<svg width="1437" height="134" viewBox="0 0 1437 134" fill="none" xmlns="http://www.w3.org/2000/svg">
<path d="M279.1 133.9C274.9 133.9 271.3 132.5 268.4 129.6C265.5 126.7 264 123.2 264 119C264 114.8 265.5 111.3 268.4 108.4C271.3 105.5 274.9 104.1 279.1 104.1C283.3 104.1 286.8 105.5 289.7 108.4C292.6 111.3 294.1 114.8 294.1 119C294.1 123.2 292.6 126.7 289.7 129.6C286.8 132.5 283.3 133.9 279.1 133.9ZM270.5 127.6C272.9 130 275.7 131.2 279.1 131.2C282.5 131.2 285.4 130 287.7 127.6C290 125.2 291.2 122.3 291.2 118.9C291.2 115.5 290 112.6 287.7 110.2C285.4 107.8 282.5 106.6 279.1 106.6C275.7 106.6 272.8 107.8 270.5 110.2C268.1 112.6 267 115.5 267 118.9C267 122.3 268.1 125.2 270.5 127.6Z" fill="#0032A0"/>
<path d="M313.4 95.3C307.7 94.8 304.9 97.4 304.9 103.1V104.6H313.4V107.4H304.9V133.3H302V107.4H297V104.6H301.9V103.1C301.9 99.5 302.9 96.8 304.9 94.9C306.9 93 309.7 92.3 313.4 92.5V95.3Z" fill="#0032A0"/>
<path d="M347.8 107.4H339.3V126.1C339.3 127.7 339.6 128.9 340.2 129.7C340.8 130.4 341.7 130.8 343 130.9C344.3 131 345.9 130.9 347.8 130.8V133.4C343.9 134 341.1 133.7 339.2 132.6C337.3 131.5 336.4 129.4 336.4 126.2V107.6H330V104.8H336.3V97.5999L339.2 96.7V104.7H347.7V107.4H347.8Z" fill="#0032A0"/>
<path d="M367.8 104C371.2 104 373.9 105 375.9 107.1C377.9 109.2 378.9 112 378.9 115.4V133.2H376V115.4C376 112.7 375.3 110.6 373.8 109C372.3 107.4 370.3 106.6 367.6 106.6C364.7 106.6 362.2 107.6 360.4 109.5C358.5 111.4 357.6 114.3 357.6 118V133.1H354.7V93H357.6V110.1C359.6 106 363 104 367.8 104Z" fill="#0032A0"/>
<path d="M399.9 104C404.1 104 407.5 105.5 410.1 108.5C412.7 111.5 414 115 414 119.1C414 119.3 414 119.5 414 119.8C414 120.1 414 120.3 414 120.5H388C388.3 123.7 389.6 126.3 391.9 128.3C394.1 130.3 396.9 131.3 400.2 131.3C402.5 131.3 404.5 130.8 406.2 129.9C407.9 128.9 409.2 127.7 410.1 126.1L412.6 127.6C411.4 129.6 409.7 131.2 407.6 132.3C405.4 133.5 402.9 134 400.1 134C395.7 134 392.1 132.6 389.3 129.8C386.5 127 385.1 123.4 385.1 119.1C385.1 114.8 386.5 111.3 389.3 108.4C392 105.4 395.5 104 399.9 104ZM399.9 106.8C396.7 106.8 393.9 107.8 391.8 109.8C389.7 111.8 388.4 114.4 388.1 117.7H411.1C410.8 114.3 409.6 111.6 407.5 109.7C405.3 107.7 402.8 106.8 399.9 106.8Z" fill="#0032A0"/>
<path d="M466.7 104C469.8 104 472.4 105 474.3 106.9C476.2 108.8 477.2 111.6 477.2 115.1V133.3H474.3V115.1C474.3 112.4 473.6 110.4 472.2 108.9C470.8 107.4 469 106.7 466.7 106.7C464.1 106.7 462.1 107.6 460.5 109.3C458.9 111 458.1 113.7 458.1 117.2V133.2H455.2V115.1C455.2 112.4 454.5 110.4 453.2 108.9C451.9 107.4 450.1 106.7 447.8 106.7C445.3 106.7 443.2 107.6 441.5 109.4C439.8 111.2 438.9 113.8 438.9 117.3V133.3H436V104.6H438.9V109.5C440.9 105.8 444 103.9 448.1 103.9C450.2 103.9 452 104.4 453.6 105.4C455.2 106.4 456.3 107.9 457 109.7C458 107.8 459.3 106.3 461 105.3C462.7 104.3 464.7 104 466.7 104Z" fill="#0032A0"/>
<path d="M498.3 133.9C494.1 133.9 490.5 132.5 487.6 129.6C484.7 126.7 483.2 123.2 483.2 119C483.2 114.8 484.7 111.3 487.6 108.4C490.5 105.5 494.1 104.1 498.3 104.1C502.5 104.1 506 105.5 508.9 108.4C511.8 111.3 513.3 114.8 513.3 119C513.3 123.2 511.8 126.7 508.9 129.6C506 132.5 502.5 133.9 498.3 133.9ZM489.7 127.6C492 130 494.9 131.2 498.3 131.2C501.7 131.2 504.6 130 506.9 127.6C509.2 125.2 510.4 122.3 510.4 118.9C510.4 115.5 509.2 112.6 506.9 110.2C504.6 107.8 501.7 106.6 498.3 106.6C494.9 106.6 492 107.8 489.7 110.2C487.3 112.6 486.2 115.5 486.2 118.9C486.2 122.3 487.3 125.2 489.7 127.6Z" fill="#0032A0"/>
<path d="M533.4 104C536.8 104 539.5 105 541.5 107.1C543.5 109.2 544.5 112 544.5 115.4V133.2H541.6V115.4C541.6 112.7 540.9 110.6 539.4 109C537.9 107.4 535.9 106.6 533.2 106.6C530.3 106.6 527.8 107.6 526 109.5C524.1 111.4 523.2 114.3 523.2 118V133.1H520.3V104.4H523.2V109.8C525.2 106 528.6 104 533.4 104Z" fill="#0032A0"/>
<path d="M567.2 107.4H558.7V126.1C558.7 127.7 559 128.9 559.6 129.7C560.2 130.4 561.1 130.8 562.4 130.9C563.7 131 565.3 130.9 567.2 130.8V133.4C563.3 134 560.5 133.7 558.6 132.6C556.7 131.5 555.8 129.4 555.8 126.2V107.6H549.5V104.8H555.8V97.5999L558.7 96.7V104.7H567.2V107.4Z" fill="#0032A0"/>
<path d="M587.2 104C590.6 104 593.3 105 595.3 107.1C597.3 109.2 598.3 112 598.3 115.4V133.2H595.4V115.4C595.4 112.7 594.7 110.6 593.2 109C591.7 107.4 589.7 106.6 587 106.6C584.1 106.6 581.6 107.6 579.8 109.5C577.9 111.4 577 114.3 577 118V133.1H574.1V93H577V110.1C579 106 582.5 104 587.2 104Z" fill="#0032A0"/>
<path d="M69.2 45.0999C69.2 67.2999 53 84.4999 31.3 84.4999H0V5.69995H31.3C53 5.69995 69.2 22.8999 69.2 45.0999ZM54.3 45.0999C54.3 30.5999 44.8 20.5999 31.2 20.5999H15.5V69.7H31.3C44.9 69.6 54.3 59.5999 54.3 45.0999Z" fill="#0032A0"/>
<path d="M107.7 72.8999C113.3 72.8999 117.8 70.5 120.3 67.3L132 74.0999C126.7 81.7999 118.3 86.0999 107.5 86.0999C88.6002 86.0999 76.7002 73.1999 76.7002 56.3999C76.7002 39.5999 88.7002 26.7 106.4 26.7C123.1 26.7 134.9 39.8999 134.9 56.3999C134.9 58.4999 134.7 60.4999 134.3 62.3999H91.8002C93.8002 69.6999 100 72.8999 107.7 72.8999ZM120.3 50.9999C118.5 42.8999 112.4 39.5999 106.3 39.5999C98.5002 39.5999 93.2002 43.7999 91.6002 50.9999H120.3Z" fill="#0032A0"/>
<path d="M185.1 68.0001C185.1 80.2001 174.5 86.0001 162.5 86.0001C151.2 86.0001 142.9 81.3001 138.9 72.6001L151.5 65.5001C153.1 70.1001 156.9 72.8001 162.5 72.8001C167.1 72.8001 170.3 71.2001 170.3 68.0001C170.3 59.8001 141.3 64.3001 141.3 44.5001C141.3 33.0001 151.1 26.6001 162.7 26.6001C171.8 26.6001 179.7 30.8001 184.1 38.5001L171.7 45.3001C170 41.7001 166.9 39.6001 162.7 39.6001C159.1 39.6001 156.2 41.2001 156.2 44.2001C156.1 52.5001 185.1 47.3001 185.1 68.0001Z" fill="#0032A0"/>
<path d="M212.2 42.1V65.5C212.2 71.6 216.6 71.7 224.9 71.2V84.4C204.5 86.7 197.7 80.7 197.7 65.5V42.1H187.9V28.1H197.7V16.7L212.2 12.3V28.1H224.9V42.1H212.2Z" fill="#0032A0"/>
<path d="M233.5 12.5C233.5 7.7 237.6 3.5 242.4 3.5C247.4 3.5 251.4 7.7 251.4 12.5C251.4 17.3 247.3 21.4 242.4 21.4C237.5 21.4 233.5 17.4 233.5 12.5ZM235.2 28.2H249.7V84.5H235.2V28.2Z" fill="#0032A0"/>
<path d="M315.5 49.9001V84.4001H301V51.7001C301 44.0001 296.4 40.1001 289.9 40.1001C282.8 40.1001 277.5 44.3001 277.5 54.1001V84.5001H263V28.2001H277.5V34.5001C280.9 29.4001 286.7 26.6001 294.3 26.6001C306.2 26.6001 315.5 34.9001 315.5 49.9001Z" fill="#0032A0"/>
<path d="M385.2 28.2V84.4999H370.7V77.8999C366.6 82.9999 360.6 86.0999 352.4 86.0999C337.4 86.0999 325.1 73.1999 325.1 56.3999C325.1 39.5999 337.5 26.7 352.4 26.7C360.6 26.7 366.7 29.8999 370.7 34.8999V28.3H385.2V28.2ZM370.7 56.3C370.7 46.8 364.1 40.3999 355.1 40.3999C346.2 40.3999 339.6 46.8 339.6 56.3C339.6 65.8 346.2 72.2 355.1 72.2C364 72.2 370.7 65.8 370.7 56.3Z" fill="#0032A0"/>
<path d="M417.8 42.1V65.5C417.8 71.6 422.2 71.7 430.5 71.2V84.4C410.1 86.7 403.3 80.7 403.3 65.5V42.1H393.5V28.1H403.3V16.7L417.8 12.3V28.1H430.5V42.1H417.8Z" fill="#0032A0"/>
<path d="M549.8 51.3C535.4 50.1 521 48.9 506.4 47.7C509.1 43.6 511.7 39.6 514.3 35.6C514.2 35.5 514.1 35.5 514.1 35.4C510.2 38 506.2 40.6 502.1 43.3C500.9 28.7 499.7 14.3 498.4 0C498.3 0 498.2 0 498.1 0C496.9 14.4 495.7 28.7 494.4 43.3C490.2 40.6 486.3 38 482.3 35.4C482.2 35.5 482.2 35.5 482.1 35.6C484.7 39.6 487.3 43.5 490 47.6C475.4 48.8 460.9 50 446.5 51.3C446.5 51.4 446.5 51.5 446.5 51.6C460.9 52.8 475.3 54 490 55.3C487.3 59.4 484.7 63.4 482.1 67.4C482.2 67.5 482.3 67.5 482.3 67.6C486.3 65 490.2 62.4 494.3 59.7C495.5 74.3 496.7 88.7 498 103C498.1 103 498.2 103 498.3 103C499.5 88.6 500.7 74.3 501.9 59.7C506.1 62.4 510 65 513.9 67.6L514.1 67.4C511.5 63.5 508.9 59.5 506.2 55.4C520.8 54.2 535.2 53 549.6 51.8V51.3H549.8ZM498.2 56.4C495.4 56.4 493.2 54.2 493.2 51.4C493.2 48.6 495.4 46.4 498.2 46.4C501 46.4 503.2 48.6 503.2 51.4C503.3 54.2 501.1 56.4 498.2 56.4Z" fill="#0032A0"/>
<path d="M494 81.4999C481.2 80.1999 469.5 68.8 468.2 55.7C469.3 55.8 470.2 55.8999 471.2 55.8999C472 55.8999 472.3 56.1999 472.4 56.9999C473.7 63.1999 476.9 68.1999 481.8 72.0999C485 74.6999 488.6 76.4 492.7 77.2C493.4 77.4 493.8 77.5999 493.8 78.3999C493.8 79.4999 493.9 80.4999 494 81.4999Z" fill="white"/>
<path d="M494 21.3C493.9 22.5 493.9 23.7 493.7 24.7C493.6 25 493.1 25.4 492.7 25.5C487.7 26.6 483.3 29 479.7 32.6C476 36.3 473.6 40.6 472.5 45.7C472.3 46.6 471.9 46.9 471 46.9C470.1 46.9 469.3 47 468.4 47.1C468.4 47.1 468.3 47.1 468.3 47C469.4 34.6 480.6 22.8 494 21.3Z" fill="white"/>
<path d="M528.4 47.0999C527.2 46.9999 525.9 46.9 524.7 46.7C524.5 46.7 524.2 46.1 524.1 45.8C523 40.6 520.5 36.0999 516.7 32.3999C513.1 28.8999 508.9 26.4999 503.9 25.4999C503 25.2999 502.6 24.8999 502.7 23.9999C502.7 23.0999 502.6 22.2 502.5 21.2C514.9 22.5 526.9 33.4999 528.4 47.0999Z" fill="white"/>
<path d="M528.5 55.7C527.7 61.6 525.4 66.7 521.6 71.2C516.6 77 510.3 80.5 502.6 81.7C502.7 80.4 502.7 79.1999 502.9 78.0999C503 77.7999 503.5 77.4 503.9 77.3C509 76.2 513.4 73.6999 517.1 69.9999C520.8 66.2999 523.1 61.9 524.2 56.8C524.3 56.1 524.6 55.9 525.3 55.8C526.3 55.9 527.3 55.8 528.5 55.7Z" fill="white"/>
<path d="M501.9 51.3999C501.9 53.2999 500.3 54.9999 498.4 54.9999C496.5 54.9999 494.8 53.3999 494.8 51.4999C494.8 50.9999 494.9 50.4999 495.1 50.0999C495.2 49.8999 495.3 49.6999 495.4 49.4999C496 48.5999 497.1 47.8999 498.3 47.8999C499.3 47.8999 500.2 48.2999 500.8 48.8999C500.9 48.9999 501 49.0999 501 49.0999C501.5 49.6999 501.8 50.4999 501.9 51.3999Z" fill="white"/>
<path d="M572.7 26.6001C565.2 26.6001 559.3 29.4001 555.9 34.5001V28.2001H541.4V49.1001C544.2 49.3001 547 49.6001 549.8 49.8001C550.6 49.9001 551.2 50.5001 551.2 51.3001V51.6001C551.2 52.4001 550.6 53.0001 549.8 53.1001L541.4 53.8001V84.5001H556V54.1001C556 44.3001 561.3 40.1001 568.4 40.1001C574.9 40.1001 579.5 44.0001 579.5 51.7001V84.4001H594V49.9001C594 34.9001 584.7 26.6001 572.7 26.6001Z" fill="#0032A0"/>
<path d="M448 21.4C453 21.4 457 17.3 457 12.5C457 7.7 452.9 3.5 448 3.5C443.2 3.5 439.1 7.7 439.1 12.5C439.1 17.3 443.1 21.4 448 21.4Z" fill="#0032A0"/>
<path d="M448.7 53.2001L446.5 53.0001C445.7 52.9001 445.1 52.3001 445.1 51.5001C445.1 51.4001 445.1 51.3001 445.1 51.2001C445.1 50.4001 445.7 49.8001 446.5 49.7001C446.5 49.7001 450.1 49.4001 455.2 49.0001V28.1001H440.7V84.4001H455.2V53.7001C453.1 53.6001 450.9 53.4001 448.7 53.2001Z" fill="#0032A0"/>
<rect x="614.3" y="2" width="8.75916" height="130" fill="#0032A0"/>
<path d="M668.243 71.344C654.515 71.344 645.491 64.72 641.843 54.736L653.171 48.112C655.571 54.352 660.275 58.384 668.627 58.384C676.595 58.384 679.379 55.024 679.379 51.28C679.379 46.288 674.867 44.368 664.883 41.488C654.611 38.512 644.627 34.192 644.627 21.424C644.627 8.752 655.187 1.456 666.707 1.456C677.747 1.456 686.195 7.12 690.707 16.528L679.571 22.96C677.171 17.872 673.523 14.32 666.707 14.32C661.139 14.32 657.875 17.2 657.875 21.04C657.875 25.168 660.467 27.376 670.643 30.448C681.299 33.808 692.627 37.36 692.627 51.088C692.627 63.664 682.547 71.344 668.243 71.344ZM743.437 70L739.405 57.904H712.621L708.589 70H694.285L717.805 2.8H734.221L757.837 70H743.437ZM716.845 45.52H735.277L726.061 18.064L716.845 45.52ZM803.242 2.8H816.49V70H806.41L777.61 28.912V70H764.362V2.8H774.442L803.242 43.792V2.8ZM873.403 2.8V15.472H855.259V70H842.011V15.472H823.963V2.8H873.403ZM908.731 71.344C889.339 71.344 873.883 55.984 873.883 36.4C873.883 16.72 889.339 1.456 908.731 1.456C928.123 1.456 943.675 16.72 943.675 36.4C943.675 55.984 928.123 71.344 908.731 71.344ZM908.731 58.384C920.923 58.384 930.427 49.264 930.427 36.4C930.427 23.44 920.923 14.32 908.731 14.32C896.539 14.32 887.035 23.44 887.035 36.4C887.035 49.264 896.539 58.384 908.731 58.384ZM1003.67 2.8C1022.2 2.8 1036.03 17.488 1036.03 36.4C1036.03 55.312 1022.2 70 1003.67 70H976.987V2.8H1003.67ZM1003.67 57.328C1015.29 57.328 1023.35 48.784 1023.35 36.4C1023.35 24.016 1015.29 15.472 1003.67 15.472H990.235V57.328H1003.67ZM1077.2 71.344C1057.81 71.344 1042.35 55.984 1042.35 36.4C1042.35 16.72 1057.81 1.456 1077.2 1.456C1096.59 1.456 1112.14 16.72 1112.14 36.4C1112.14 55.984 1096.59 71.344 1077.2 71.344ZM1077.2 58.384C1089.39 58.384 1098.9 49.264 1098.9 36.4C1098.9 23.44 1089.39 14.32 1077.2 14.32C1065.01 14.32 1055.5 23.44 1055.5 36.4C1055.5 49.264 1065.01 58.384 1077.2 58.384ZM1187.22 2.8V70H1174.06V26.416L1155.15 57.616H1153.62L1134.7 26.512V70H1121.46V2.8H1135.09L1154.38 34.576L1173.58 2.8H1187.22ZM1199.74 2.8H1212.98V70H1199.74V2.8ZM1264.3 2.8H1277.55V70H1267.47L1238.67 28.912V70H1225.42V2.8H1235.5L1264.3 43.792V2.8ZM1355.97 33.904V39.088C1355.97 58.48 1342.24 71.344 1322.95 71.344C1301.92 71.344 1286.95 55.696 1286.95 36.496C1286.95 17.008 1302.11 1.456 1322.18 1.456C1334.95 1.456 1345.79 7.888 1351.46 17.104L1340.13 23.632C1337.06 18.256 1330.24 14.32 1322.08 14.32C1309.31 14.32 1300.1 23.728 1300.1 36.496C1300.1 48.976 1309.03 58.384 1323.04 58.384C1333.6 58.384 1340.32 53.296 1342.63 45.616H1322.27V33.904H1355.97ZM1397.17 71.344C1377.78 71.344 1362.32 55.984 1362.32 36.4C1362.32 16.72 1377.78 1.456 1397.17 1.456C1416.56 1.456 1432.11 16.72 1432.11 36.4C1432.11 55.984 1416.56 71.344 1397.17 71.344ZM1397.17 58.384C1409.36 58.384 1418.86 49.264 1418.86 36.4C1418.86 23.44 1409.36 14.32 1397.17 14.32C1384.98 14.32 1375.47 23.44 1375.47 36.4C1375.47 49.264 1384.98 58.384 1397.17 58.384Z" fill="#0032A0"/>
<path d="M661.139 86.2C673.491 86.2 682.579 96.056 682.579 108.6C682.579 121.08 673.491 131 661.139 131H643.539V86.2H661.139ZM661.139 123.96C669.651 123.96 675.475 117.432 675.475 108.6C675.475 99.704 669.651 93.24 661.139 93.24H650.899V123.96H661.139ZM710.281 131.832C697.353 131.832 687.049 121.592 687.049 108.6C687.049 95.608 697.353 85.368 710.281 85.368C723.273 85.368 733.513 95.608 733.513 108.6C733.513 121.592 723.273 131.832 710.281 131.832ZM710.281 124.664C719.241 124.664 726.153 117.816 726.153 108.6C726.153 99.384 719.241 92.536 710.281 92.536C701.321 92.536 694.409 99.384 694.409 108.6C694.409 117.816 701.321 124.664 710.281 124.664ZM783.107 86.2V131H775.747V99.064L762.115 121.592H761.219L747.587 99V131H740.227V86.2H748.163L761.667 108.6L775.235 86.2H783.107ZM792.039 86.2H799.399V131H792.039V86.2ZM835.232 86.2H842.592V131H836.832L815.712 100.6V131H808.352V86.2H814.112L835.232 116.6V86.2ZM851.539 86.2H858.899V131H851.539V86.2ZM889.036 131.832C875.404 131.832 865.612 121.592 865.612 108.6C865.612 95.608 875.404 85.368 889.036 85.368C897.228 85.368 904.524 89.528 908.3 96.056L901.9 99.768C899.532 95.352 894.668 92.536 889.036 92.536C879.372 92.536 872.972 99.384 872.972 108.6C872.972 117.816 879.372 124.664 889.036 124.664C894.668 124.664 899.596 121.848 901.9 117.432L908.3 121.08C904.588 127.608 897.292 131.832 889.036 131.832ZM943.286 131L940.15 121.976H921.078L917.942 131H909.942L926.198 86.2H935.03L951.222 131H943.286ZM923.51 115.064H937.718L930.614 94.84L923.51 115.064ZM982.919 86.2H990.279V131H984.519L963.399 100.6V131H956.039V86.2H961.799L982.919 116.6V86.2ZM1040.76 131L1031.29 114.68H1022.59V131H1015.23V86.2H1033.15C1041.15 86.2 1047.55 92.6 1047.55 100.6C1047.55 106.36 1043.9 111.48 1038.65 113.592L1048.83 131H1040.76ZM1022.59 93.112V108.088H1033.15C1037.05 108.088 1040.19 104.76 1040.19 100.6C1040.19 96.376 1037.05 93.112 1033.15 93.112H1022.59ZM1061.84 123.96H1081.68V131H1054.48V86.2H1081.36V93.24H1061.84V104.888H1079.76V111.864H1061.84V123.96ZM1104.93 86.2C1113.37 86.2 1119.77 92.6 1119.77 100.92C1119.77 109.176 1113.37 115.64 1104.93 115.64H1095.77V131H1088.41V86.2H1104.93ZM1104.93 108.728C1109.28 108.728 1112.41 105.4 1112.41 100.92C1112.41 96.376 1109.28 93.112 1104.93 93.112H1095.77V108.728H1104.93ZM1142.68 131.832C1132.82 131.832 1125.72 125.816 1125.72 116.152V86.2H1133.08V115.704C1133.08 120.952 1136.08 124.664 1142.68 124.664C1149.27 124.664 1152.28 120.952 1152.28 115.704V86.2H1159.64V116.152C1159.64 125.816 1152.47 131.832 1142.68 131.832ZM1194.47 107.768C1198.25 109.752 1200.74 113.4 1200.74 118.2C1200.74 125.624 1194.73 131 1187.3 131H1168.1V86.2H1185.89C1193.13 86.2 1199.01 91.448 1199.01 98.616C1199.01 102.52 1197.29 105.72 1194.47 107.768ZM1185.89 93.112H1175.46V104.888H1185.89C1189.16 104.888 1191.65 102.328 1191.65 99C1191.65 95.672 1189.16 93.112 1185.89 93.112ZM1187.3 124.088C1190.76 124.088 1193.38 121.336 1193.38 117.816C1193.38 114.296 1190.76 111.544 1187.3 111.544H1175.46V124.088H1187.3ZM1214.52 123.96H1232.76V131H1207.16V86.2H1214.52V123.96ZM1238.23 86.2H1245.59V131H1238.23V86.2ZM1275.72 131.832C1262.09 131.832 1252.3 121.592 1252.3 108.6C1252.3 95.608 1262.09 85.368 1275.72 85.368C1283.92 85.368 1291.21 89.528 1294.99 96.056L1288.59 99.768C1286.22 95.352 1281.36 92.536 1275.72 92.536C1266.06 92.536 1259.66 99.384 1259.66 108.6C1259.66 117.816 1266.06 124.664 1275.72 124.664C1281.36 124.664 1286.28 121.848 1288.59 117.432L1294.99 121.08C1291.28 127.608 1283.98 131.832 1275.72 131.832Z" fill="white"/>
</svg>
