<svg width="1253" height="134" viewBox="0 0 1253 134" fill="none" xmlns="http://www.w3.org/2000/svg">
<path d="M251.3 93.2H254.2V133.3H251.3V126.6C250.1 128.9 248.4 130.6 246.3 131.9C244.1 133.2 241.7 133.8 239 133.8C234.9 133.8 231.4 132.4 228.5 129.5C225.6 126.6 224.2 123.1 224.2 118.9C224.2 114.7 225.6 111.2 228.5 108.3C231.4 105.4 234.9 104 239 104C241.7 104 244.1 104.7 246.3 105.9C248.5 107.2 250.1 109 251.3 111.2V93.2ZM230.5 127.6C232.9 130 235.7 131.2 239.1 131.2C242.5 131.2 245.4 130 247.7 127.6C250.1 125.2 251.2 122.3 251.2 118.9C251.2 115.5 250 112.6 247.7 110.2C245.3 107.8 242.5 106.6 239.1 106.6C235.7 106.6 232.8 107.8 230.5 110.2C228.1 112.6 227 115.5 227 118.9C227 122.3 228.2 125.3 230.5 127.6Z" fill="#0032A0"/>
<path d="M276.1 133.9C271.9 133.9 268.3 132.5 265.4 129.6C262.5 126.7 261 123.2 261 119C261 114.8 262.5 111.3 265.4 108.4C268.3 105.5 271.9 104.1 276.1 104.1C280.3 104.1 283.8 105.5 286.7 108.4C289.6 111.3 291.1 114.8 291.1 119C291.1 123.2 289.6 126.7 286.7 129.6C283.8 132.5 280.3 133.9 276.1 133.9ZM267.5 127.6C269.9 130 272.7 131.2 276.1 131.2C279.5 131.2 282.4 130 284.7 127.6C287 125.2 288.2 122.3 288.2 118.9C288.2 115.5 287 112.6 284.7 110.2C282.4 107.8 279.5 106.6 276.1 106.6C272.7 106.6 269.8 107.8 267.5 110.2C265.1 112.6 264 115.5 264 118.9C264 122.3 265.1 125.3 267.5 127.6Z" fill="#0032A0"/>
<path d="M343.9 104C347 104 349.6 105 351.5 106.9C353.4 108.8 354.4 111.6 354.4 115.1V133.3H351.5V115.1C351.5 112.4 350.8 110.4 349.4 108.9C348 107.4 346.2 106.7 343.9 106.7C341.3 106.7 339.3 107.6 337.7 109.3C336.1 111.1 335.3 113.7 335.3 117.2V133.2H332.4V115C332.4 112.3 331.7 110.3 330.4 108.8C329.1 107.3 327.3 106.6 325 106.6C322.5 106.6 320.4 107.5 318.7 109.3C317 111.1 316.1 113.7 316.1 117.2V133.2H313.2V104.5H316.1V109.4C318.1 105.7 321.2 103.8 325.3 103.8C327.4 103.8 329.2 104.3 330.8 105.3C332.4 106.3 333.5 107.8 334.2 109.6C335.2 107.7 336.5 106.2 338.2 105.2C340.1 104.5 342 104 343.9 104Z" fill="#0032A0"/>
<path d="M375.4 104C379.6 104 383 105.5 385.6 108.5C388.2 111.5 389.5 115 389.5 119.1C389.5 119.3 389.5 119.5 389.5 119.8C389.5 120.1 389.5 120.3 389.5 120.5H363.5C363.8 123.7 365.1 126.3 367.4 128.3C369.7 130.3 372.4 131.3 375.7 131.3C378 131.3 380 130.8 381.7 129.9C383.4 128.9 384.7 127.7 385.6 126.1L388.1 127.6C386.9 129.6 385.2 131.2 383.1 132.3C380.9 133.5 378.4 134 375.6 134C371.2 134 367.6 132.6 364.8 129.8C362 127 360.6 123.4 360.6 119.1C360.6 114.8 362 111.3 364.8 108.4C367.4 105.4 371 104 375.4 104ZM375.4 106.8C372.2 106.8 369.4 107.8 367.3 109.8C365.2 111.8 363.9 114.4 363.6 117.7H386.6C386.3 114.3 385.1 111.6 383 109.7C380.8 107.7 378.3 106.8 375.4 106.8ZM375 95.1L370.4 100.6H367.1L373.3 93.3L376.6 93.4L382.9 100.8L379.6 100.6L375 95.1Z" fill="#0032A0"/>
<path d="M397 112.1C397 113.5 397.6 114.6 398.8 115.4C400 116.2 401.4 116.8 403.1 117.3C404.8 117.7 406.5 118.2 408.2 118.6C409.9 119.1 411.4 119.9 412.5 121.1C413.7 122.3 414.3 123.9 414.3 125.9C414.3 128.3 413.4 130.2 411.5 131.7C409.6 133.2 407.1 134 404.1 134C401.3 134 399 133.4 397.1 132.3C395.2 131.1 393.9 129.6 393.2 127.7L395.7 126.3C396.2 127.9 397.2 129.1 398.7 130C400.2 130.9 402 131.3 404.1 131.3C406.2 131.3 408 130.8 409.4 129.9C410.8 129 411.5 127.6 411.5 125.9C411.5 124.5 410.9 123.4 409.7 122.5C408.5 121.7 407.1 121 405.4 120.6C403.7 120.2 402 119.7 400.3 119.2C398.6 118.7 397.1 117.9 395.9 116.8C394.7 115.7 394.1 114.1 394.1 112.2C394.1 109.9 395 108 396.8 106.4C398.6 104.8 401 104 403.8 104C406.1 104 408.1 104.5 409.8 105.5C411.5 106.5 412.8 107.9 413.6 109.7L411.2 111.1C410.6 109.7 409.7 108.6 408.3 107.9C407 107.2 405.5 106.8 403.8 106.8C401.9 106.8 400.2 107.3 398.9 108.2C397.7 109.2 397 110.5 397 112.1Z" fill="#0032A0"/>
<path d="M31.3 5.69995C42.1 5.69995 51.1 9.49995 58.4 17.0999C65.6 24.6999 69.3 33.9999 69.3 45.0999C69.3 56.1999 65.7 65.4999 58.4 73.0999C51.2 80.6999 42.1 84.5 31.3 84.5H0V5.79996H31.3V5.69995ZM31.3 69.5999C38.1 69.5999 43.7 67.3 47.9 62.8C52.2 58.3 54.3 52.3999 54.3 45.0999C54.3 37.7999 52.2 31.8999 47.9 27.3999C43.6 22.8999 38.1 20.5999 31.3 20.5999H15.5V69.5999H31.3Z" fill="#0032A0"/>
<path d="M91.8002 62.3001C93.7002 69.4001 99.0002 72.9001 107.7 72.9001C113.2 72.9001 117.4 71.0001 120.3 67.3001L132 74.0001C126.4 82.0001 118.3 86.0001 107.5 86.0001C98.2002 86.0001 90.7002 83.2001 85.1002 77.6001C79.5002 72.0001 76.7002 64.9001 76.7002 56.3001C76.7002 47.8001 79.5002 40.8001 85.0002 35.1001C90.5002 29.4001 97.7002 26.6001 106.4 26.6001C114.6 26.6001 121.5 29.5001 126.8 35.1001C132.2 40.8001 134.8 47.9001 134.8 56.2001C134.8 58.1001 134.6 60.1001 134.2 62.2001H91.8002V62.3001ZM91.6002 51.0001H120.3C119.5 47.2001 117.8 44.3001 115.2 42.5001C112.6 40.6001 109.7 39.7001 106.4 39.7001C102.5 39.7001 99.3002 40.7001 96.7002 42.7001C94.1002 44.6001 92.4002 47.4001 91.6002 51.0001Z" fill="#0032A0"/>
<path d="M156 44.2001C156 45.7001 157 46.9 159 47.9C161 48.8 163.4 49.7 166.3 50.4C169.1 51.1 172 52 174.8 53.1C177.6 54.2 180.1 56 182.1 58.6C184.1 61.2 185.1 64.3001 185.1 68.2001C185.1 74.0001 182.9 78.4001 178.6 81.5001C174.3 84.6001 168.9 86.2001 162.5 86.2001C151 86.2001 143.1 81.7 138.9 72.8L151.5 65.7001C153.1 70.6001 156.8 73.0001 162.5 73.0001C167.7 73.0001 170.3 71.4001 170.3 68.2001C170.3 66.7001 169.3 65.5001 167.3 64.5001C165.3 63.6001 162.9 62.7001 160 62.0001C157.1 61.3001 154.3 60.3001 151.5 59.2001C148.6 58.1001 146.2 56.3 144.2 53.9C142.2 51.5 141.2 48.4001 141.2 44.7001C141.2 39.2001 143.2 34.8 147.3 31.6C151.4 28.4 156.5 26.8 162.5 26.8C167.1 26.8 171.2 27.8 175 29.9C178.7 32 181.7 34.9001 183.9 38.7001L171.5 45.4C169.7 41.6 166.7 39.7001 162.5 39.7001C160.6 39.7001 159.1 40.1 157.8 40.9C156.6 41.6 156 42.7001 156 44.2001Z" fill="#0032A0"/>
<path d="M224.9 42.0999H212.2V65.4999C212.2 67.4999 212.7 68.8999 213.7 69.7999C214.7 70.6999 216.1 71.1999 218 71.2999C219.9 71.3999 222.2 71.4 225 71.2V84.3999C215 85.4999 208 84.5999 203.9 81.5999C199.8 78.5999 197.8 73.1999 197.8 65.4999V42.0999H188V28.2H197.8V16.7999L212.3 12.3999V28.0999H225V42.0999H224.9Z" fill="#0032A0"/>
<path d="M242.3 21.4001C239.9 21.4001 237.8 20.5001 236.1 18.8001C234.3 17.0001 233.5 15.0001 233.5 12.6001C233.5 10.2001 234.4 8.10011 236.1 6.30011C237.9 4.50011 239.9 3.6001 242.3 3.6001C244.8 3.6001 246.9 4.50011 248.7 6.30011C250.5 8.10011 251.3 10.2001 251.3 12.6001C251.3 15.0001 250.4 17.1001 248.7 18.8001C246.9 20.6001 244.8 21.4001 242.3 21.4001ZM235.1 84.4001V28.2001H249.6V84.4001H235.1Z" fill="#0032A0"/>
<path d="M409.9 51.3C395.5 50.1 381.1 48.9 366.5 47.7C369.2 43.6 371.8 39.6 374.4 35.6C374.3 35.5 374.2 35.5 374.2 35.4C370.3 38 366.3 40.6 362.2 43.3C361 28.7 359.8 14.3 358.5 0C358.4 0 358.3 0 358.2 0C357 14.4 355.8 28.7 354.5 43.3C350.3 40.6 346.4 38 342.4 35.4C342.3 35.5 342.3 35.5 342.2 35.6C344.8 39.6 347.4 43.5 350.1 47.6C335.5 48.8 321 50 306.6 51.3C306.6 51.4 306.6 51.5 306.6 51.6C321 52.8 335.4 54 350.1 55.3C347.4 59.4 344.8 63.4 342.2 67.4C342.3 67.5 342.4 67.5 342.4 67.6C346.4 65 350.3 62.4 354.4 59.7C355.6 74.3 356.8 88.7 358.1 103C358.2 103 358.3 103 358.4 103C359.6 88.6 360.8 74.3 362 59.7C366.2 62.4 370.1 65 374 67.6L374.2 67.4C371.6 63.5 369 59.5 366.3 55.4C380.9 54.2 395.3 53 409.7 51.8V51.3H409.9ZM358.4 56.4C355.6 56.4 353.4 54.2 353.4 51.4C353.4 48.6 355.6 46.4 358.4 46.4C361.2 46.4 363.4 48.6 363.4 51.4C363.4 54.3 361.3 56.4 358.4 56.4Z" fill="#0032A0"/>
<path d="M354.1 81.4999C341.3 80.1999 329.6 68.8 328.3 55.7C329.4 55.8 330.3 55.8999 331.3 55.8999C332.1 55.8999 332.4 56.1999 332.5 56.9999C333.8 63.1999 337 68.1999 341.9 72.0999C345.1 74.6999 348.7 76.4 352.8 77.2C353.5 77.4 353.9 77.5999 353.9 78.3999C353.9 79.4999 354.1 80.4999 354.1 81.4999Z" fill="white"/>
<path d="M354.2 21.3C354.1 22.5 354.1 23.7001 353.9 24.7001C353.8 25.0001 353.3 25.4001 352.9 25.5001C347.9 26.6001 343.5 29 339.9 32.6C336.2 36.3 333.8 40.6001 332.7 45.7001C332.5 46.6001 332.1 46.9 331.2 46.9C330.3 46.9 329.5 47 328.6 47.1C328.6 47.1 328.5 47.1001 328.5 47.0001C329.5 34.6001 340.7 22.8 354.2 21.3Z" fill="white"/>
<path d="M388.5 47.2001C387.3 47.1001 386 47 384.8 46.8C384.6 46.8 384.3 46.2 384.2 45.9C383.1 40.7 380.6 36.2001 376.8 32.5001C373.2 29.0001 369 26.6 364 25.6C363.1 25.4 362.7 25 362.8 24.1C362.8 23.2 362.7 22.3 362.6 21.3C375 22.5 387.1 33.5001 388.5 47.2001Z" fill="white"/>
<path d="M388.6 55.7C387.8 61.6 385.5 66.7 381.7 71.2C376.7 77 370.4 80.5 362.7 81.7C362.8 80.4 362.8 79.1999 363 78.0999C363.1 77.7999 363.6 77.3999 364 77.2999C369.1 76.1999 373.5 73.6999 377.2 69.9999C380.9 66.2999 383.2 61.8999 384.3 56.7999C384.4 56.0999 384.7 55.8999 385.4 55.7999C386.4 55.8999 387.4 55.8 388.6 55.7Z" fill="white"/>
<path d="M362 51.3999C362 53.2999 360.4 54.9999 358.5 54.9999C356.6 54.9999 354.9 53.3999 354.9 51.4999C354.9 50.9999 355 50.4999 355.2 50.0999C355.3 49.8999 355.4 49.6999 355.5 49.4999C356.1 48.5999 357.2 47.8999 358.4 47.8999C359.4 47.8999 360.3 48.2999 360.9 48.8999C361 48.9999 361.1 49.0999 361.1 49.0999C361.7 49.7999 362 50.5999 362 51.3999Z" fill="white"/>
<path d="M315.4 53.8001C313.2 53.6001 311 53.4001 308.9 53.3001L306.7 53.1001C305.9 53.0001 305.3 52.4001 305.3 51.6001C305.3 51.5001 305.3 51.4001 305.3 51.3001C305.3 50.5001 305.9 49.9001 306.7 49.8001C306.7 49.8001 310.3 49.5001 315.4 49.1001C315.3 42.2001 313.3 36.8001 309.4 32.8001C305.4 28.7001 300.3 26.6001 294.2 26.6001C286.6 26.6001 281 29.2001 277.4 34.5001V28.2001H262.9V84.4001H277.4V54.0001C277.4 49.4001 278.5 45.9001 280.8 43.5001C283 41.2001 286 40.0001 289.8 40.0001C293.2 40.0001 295.9 41.0001 297.9 43.0001C299.9 45.0001 300.9 47.9001 300.9 51.6001V84.3001H315.4V53.8001Z" fill="#0032A0"/>
<rect x="430.3" y="2" width="8.75916" height="130" fill="#0032A0"/>
<path d="M484.243 71.344C470.515 71.344 461.491 64.72 457.843 54.736L469.171 48.112C471.571 54.352 476.275 58.384 484.627 58.384C492.595 58.384 495.379 55.024 495.379 51.28C495.379 46.288 490.867 44.368 480.883 41.488C470.611 38.512 460.627 34.192 460.627 21.424C460.627 8.752 471.187 1.456 482.707 1.456C493.747 1.456 502.195 7.12 506.707 16.528L495.571 22.96C493.171 17.872 489.523 14.32 482.707 14.32C477.139 14.32 473.875 17.2 473.875 21.04C473.875 25.168 476.467 27.376 486.643 30.448C497.299 33.808 508.627 37.36 508.627 51.088C508.627 63.664 498.547 71.344 484.243 71.344ZM559.437 70L555.405 57.904H528.621L524.589 70H510.285L533.805 2.8H550.221L573.837 70H559.437ZM532.845 45.52H551.277L542.061 18.064L532.845 45.52ZM619.242 2.8H632.49V70H622.41L593.61 28.912V70H580.362V2.8H590.442L619.242 43.792V2.8ZM689.403 2.8V15.472H671.259V70H658.011V15.472H639.963V2.8H689.403ZM724.731 71.344C705.339 71.344 689.883 55.984 689.883 36.4C689.883 16.72 705.339 1.456 724.731 1.456C744.123 1.456 759.675 16.72 759.675 36.4C759.675 55.984 744.123 71.344 724.731 71.344ZM724.731 58.384C736.923 58.384 746.427 49.264 746.427 36.4C746.427 23.44 736.923 14.32 724.731 14.32C712.539 14.32 703.035 23.44 703.035 36.4C703.035 49.264 712.539 58.384 724.731 58.384ZM819.675 2.8C838.203 2.8 852.027 17.488 852.027 36.4C852.027 55.312 838.203 70 819.675 70H792.987V2.8H819.675ZM819.675 57.328C831.291 57.328 839.355 48.784 839.355 36.4C839.355 24.016 831.291 15.472 819.675 15.472H806.235V57.328H819.675ZM893.2 71.344C873.808 71.344 858.352 55.984 858.352 36.4C858.352 16.72 873.808 1.456 893.2 1.456C912.592 1.456 928.144 16.72 928.144 36.4C928.144 55.984 912.592 71.344 893.2 71.344ZM893.2 58.384C905.392 58.384 914.896 49.264 914.896 36.4C914.896 23.44 905.392 14.32 893.2 14.32C881.008 14.32 871.504 23.44 871.504 36.4C871.504 49.264 881.008 58.384 893.2 58.384ZM1003.22 2.8V70H990.063V26.416L971.151 57.616H969.615L950.703 26.512V70H937.455V2.8H951.087L970.383 34.576L989.583 2.8H1003.22ZM1015.74 2.8H1028.98V70H1015.74V2.8ZM1080.3 2.8H1093.55V70H1083.47L1054.67 28.912V70H1041.42V2.8H1051.5L1080.3 43.792V2.8ZM1171.97 33.904V39.088C1171.97 58.48 1158.24 71.344 1138.95 71.344C1117.92 71.344 1102.95 55.696 1102.95 36.496C1102.95 17.008 1118.11 1.456 1138.18 1.456C1150.95 1.456 1161.79 7.888 1167.46 17.104L1156.13 23.632C1153.06 18.256 1146.24 14.32 1138.08 14.32C1125.31 14.32 1116.1 23.728 1116.1 36.496C1116.1 48.976 1125.03 58.384 1139.04 58.384C1149.6 58.384 1156.32 53.296 1158.63 45.616H1138.27V33.904H1171.97ZM1213.17 71.344C1193.78 71.344 1178.32 55.984 1178.32 36.4C1178.32 16.72 1193.78 1.456 1213.17 1.456C1232.56 1.456 1248.11 16.72 1248.11 36.4C1248.11 55.984 1232.56 71.344 1213.17 71.344ZM1213.17 58.384C1225.36 58.384 1234.86 49.264 1234.86 36.4C1234.86 23.44 1225.36 14.32 1213.17 14.32C1200.98 14.32 1191.47 23.44 1191.47 36.4C1191.47 49.264 1200.98 58.384 1213.17 58.384Z" fill="#0032A0"/>
<path d="M485.075 131L475.603 114.68H466.899V131H459.539V86.2H477.459C485.459 86.2 491.859 92.6 491.859 100.6C491.859 106.36 488.211 111.48 482.963 113.592L493.139 131H485.075ZM466.899 93.112V108.088H477.459C481.363 108.088 484.499 104.76 484.499 100.6C484.499 96.376 481.363 93.112 477.459 93.112H466.899ZM506.149 123.96H525.989V131H498.789V86.2H525.669V93.24H506.149V104.888H524.069V111.864H506.149V123.96ZM549.239 86.2C557.687 86.2 564.087 92.6 564.087 100.92C564.087 109.176 557.687 115.64 549.239 115.64H540.087V131H532.727V86.2H549.239ZM549.239 108.728C553.591 108.728 556.727 105.4 556.727 100.92C556.727 96.376 553.591 93.112 549.239 93.112H540.087V108.728H549.239ZM586.989 131.832C577.133 131.832 570.029 125.816 570.029 116.152V86.2H577.389V115.704C577.389 120.952 580.397 124.664 586.989 124.664C593.581 124.664 596.589 120.952 596.589 115.704V86.2H603.949V116.152C603.949 125.816 596.781 131.832 586.989 131.832ZM638.782 107.768C642.558 109.752 645.054 113.4 645.054 118.2C645.054 125.624 639.038 131 631.614 131H612.414V86.2H630.206C637.438 86.2 643.326 91.448 643.326 98.616C643.326 102.52 641.598 105.72 638.782 107.768ZM630.206 93.112H619.774V104.888H630.206C633.47 104.888 635.966 102.328 635.966 99C635.966 95.672 633.47 93.112 630.206 93.112ZM631.614 124.088C635.07 124.088 637.694 121.336 637.694 117.816C637.694 114.296 635.07 111.544 631.614 111.544H619.774V124.088H631.614ZM658.837 123.96H677.077V131H651.477V86.2H658.837V123.96ZM682.539 86.2H689.899V131H682.539V86.2ZM720.036 131.832C706.404 131.832 696.612 121.592 696.612 108.6C696.612 95.608 706.404 85.368 720.036 85.368C728.228 85.368 735.524 89.528 739.3 96.056L732.9 99.768C730.532 95.352 725.668 92.536 720.036 92.536C710.372 92.536 703.972 99.384 703.972 108.6C703.972 117.816 710.372 124.664 720.036 124.664C725.668 124.664 730.596 121.848 732.9 117.432L739.3 121.08C735.588 127.608 728.292 131.832 720.036 131.832ZM774.286 131L771.15 121.976H752.078L748.942 131H740.942L757.198 86.2H766.03L782.222 131H774.286ZM754.51 115.064H768.718L761.614 94.84L754.51 115.064ZM820.639 86.2C832.991 86.2 842.079 96.056 842.079 108.6C842.079 121.08 832.991 131 820.639 131H803.039V86.2H820.639ZM820.639 123.96C829.151 123.96 834.975 117.432 834.975 108.6C834.975 99.704 829.151 93.24 820.639 93.24H810.399V123.96H820.639ZM869.781 131.832C856.853 131.832 846.549 121.592 846.549 108.6C846.549 95.608 856.853 85.368 869.781 85.368C882.773 85.368 893.013 95.608 893.013 108.6C893.013 121.592 882.773 131.832 869.781 131.832ZM869.781 124.664C878.741 124.664 885.653 117.816 885.653 108.6C885.653 99.384 878.741 92.536 869.781 92.536C860.821 92.536 853.909 99.384 853.909 108.6C853.909 117.816 860.821 124.664 869.781 124.664ZM942.607 86.2V131H935.247V99.064L921.615 121.592H920.719L907.087 99V131H899.727V86.2H907.663L921.167 108.6L934.735 86.2H942.607ZM951.539 86.2H958.899V131H951.539V86.2ZM994.732 86.2H1002.09V131H996.332L975.212 100.6V131H967.852V86.2H973.612L994.732 116.6V86.2ZM1011.04 86.2H1018.4V131H1011.04V86.2ZM1048.54 131.832C1034.9 131.832 1025.11 121.592 1025.11 108.6C1025.11 95.608 1034.9 85.368 1048.54 85.368C1056.73 85.368 1064.02 89.528 1067.8 96.056L1061.4 99.768C1059.03 95.352 1054.17 92.536 1048.54 92.536C1038.87 92.536 1032.47 99.384 1032.47 108.6C1032.47 117.816 1038.87 124.664 1048.54 124.664C1054.17 124.664 1059.1 121.848 1061.4 117.432L1067.8 121.08C1064.09 127.608 1056.79 131.832 1048.54 131.832ZM1102.79 131L1099.65 121.976H1080.58L1077.44 131H1069.44L1085.7 86.2H1094.53L1110.72 131H1102.79ZM1083.01 115.064H1097.22L1090.11 94.84L1083.01 115.064ZM1142.42 86.2H1149.78V131H1144.02L1122.9 100.6V131H1115.54V86.2H1121.3L1142.42 116.6V86.2ZM1187.91 131L1184.77 121.976H1165.7L1162.57 131H1154.57L1170.82 86.2H1179.65L1195.85 131H1187.91ZM1168.13 115.064H1182.34L1175.24 94.84L1168.13 115.064Z" fill="white"/>
</svg>
