<svg width="1080" height="134" viewBox="0 0 1080 134" fill="none" xmlns="http://www.w3.org/2000/svg">
<path d="M409.9 51.3C395.5 50.1 381.1 48.9 366.5 47.7C369.2 43.6 371.8 39.6 374.4 35.6C374.3 35.5 374.2 35.5 374.2 35.4C370.3 38 366.3 40.6 362.2 43.3C361 28.7 359.8 14.3 358.5 0C358.4 0 358.3 0 358.2 0C357 14.4 355.8 28.7 354.5 43.3C350.3 40.6 346.4 38 342.4 35.4C342.3 35.5 342.3 35.5 342.2 35.6C344.8 39.6 347.4 43.5 350.1 47.6C335.5 48.8 321 50 306.6 51.3C306.6 51.4 306.6 51.5 306.6 51.6C321 52.8 335.4 54 350.1 55.3C347.4 59.4 344.8 63.4 342.2 67.4C342.3 67.5 342.4 67.5 342.4 67.6C346.4 65 350.3 62.4 354.4 59.7C355.6 74.3 356.8 88.7 358.1 103C358.2 103 358.3 103 358.4 103C359.6 88.6 360.8 74.3 362 59.7C366.2 62.4 370.1 65 374 67.6L374.2 67.4C371.6 63.5 369 59.5 366.3 55.4C380.9 54.2 395.3 53 409.7 51.8V51.3H409.9ZM358.4 56.4C355.6 56.4 353.4 54.2 353.4 51.4C353.4 48.6 355.6 46.4 358.4 46.4C361.2 46.4 363.4 48.6 363.4 51.4C363.4 54.2 361.3 56.4 358.4 56.4Z" fill="#0032A0"/>
<path d="M354.1 81.5C341.3 80.2 329.6 68.8 328.3 55.7C329.4 55.8 330.3 55.9 331.3 55.9C332.1 55.9 332.4 56.2 332.5 57C333.8 63.2 337 68.2 341.9 72.1C345.1 74.7 348.7 76.4 352.8 77.2C353.5 77.4 353.9 77.6 353.9 78.4C353.9 79.5 354.1 80.5 354.1 81.5Z" fill="#3FA9F5"/>
<path d="M354.2 21.3C354.1 22.5 354.1 23.7 353.9 24.7C353.8 25 353.3 25.4 352.9 25.5C347.9 26.6 343.5 29 339.9 32.6C336.2 36.3 333.8 40.6 332.7 45.7C332.5 46.6 332.1 46.9 331.2 46.9C330.3 46.9 329.5 47 328.6 47.1C328.6 47.1 328.5 47.1 328.5 47C329.5 34.6 340.7 22.7 354.2 21.3Z" fill="#3FA9F5"/>
<path d="M388.5 47.1C387.3 47 386 46.9 384.8 46.7C384.6 46.7 384.3 46.1 384.2 45.8C383.1 40.6 380.6 36.1 376.8 32.4C373.2 28.9 369 26.5 364 25.5C363.1 25.3 362.7 24.9 362.8 24C362.8 23.1 362.7 22.2 362.6 21.2C375 22.5 387.1 33.5 388.5 47.1Z" fill="#3FA9F5"/>
<path d="M388.6 55.7C387.8 61.6 385.5 66.7 381.7 71.2C376.7 77 370.4 80.5 362.7 81.7C362.8 80.4 362.8 79.2 363 78.1C363.1 77.8 363.6 77.4 364 77.3C369.1 76.2 373.5 73.7 377.2 70C380.9 66.3 383.2 61.9 384.3 56.8C384.4 56.1 384.7 55.9 385.4 55.8C386.4 55.9 387.4 55.8 388.6 55.7Z" fill="#3FA9F5"/>
<path d="M362 51.4C362 53.3 360.4 55 358.5 55C356.6 55 354.9 53.4 354.9 51.5C354.9 51 355 50.5 355.2 50.1C355.3 49.9 355.4 49.7 355.5 49.5C356.1 48.6 357.2 47.9 358.4 47.9C359.4 47.9 360.3 48.3 360.9 48.9C361 49 361.1 49.1 361.1 49.1C361.7 49.7 362 50.5 362 51.4Z" fill="#3FA9F5"/>
<path d="M240.9 93.1H243.8V133.2H240.9V126.5C239.7 128.8 238 130.5 235.9 131.8C233.7 133.1 231.3 133.7 228.6 133.7C224.5 133.7 221 132.3 218.1 129.4C215.2 126.5 213.8 123 213.8 118.8C213.8 114.6 215.2 111.1 218.1 108.2C221 105.3 224.5 103.9 228.6 103.9C231.3 103.9 233.7 104.6 235.9 105.8C238.1 107.1 239.7 108.9 240.9 111.1V93.1ZM220.1 127.6C222.5 130 225.3 131.2 228.7 131.2C232.1 131.2 235 130 237.3 127.6C239.7 125.2 240.8 122.3 240.8 118.9C240.8 115.5 239.6 112.6 237.3 110.2C234.9 107.8 232.1 106.6 228.7 106.6C225.3 106.6 222.4 107.8 220.1 110.2C217.7 112.6 216.6 115.5 216.6 118.9C216.6 122.3 217.8 125.2 220.1 127.6Z" fill="#0032A0"/>
<path d="M265.5 104C269.7 104 273.1 105.5 275.7 108.5C278.3 111.5 279.6 115 279.6 119.1C279.6 119.3 279.6 119.5 279.6 119.8C279.6 120.1 279.6 120.3 279.6 120.5H253.6C253.9 123.7 255.2 126.3 257.5 128.3C259.8 130.3 262.5 131.3 265.8 131.3C268.1 131.3 270.1 130.8 271.8 129.9C273.5 128.9 274.8 127.7 275.7 126.1L278.2 127.6C277 129.6 275.3 131.2 273.2 132.3C271 133.5 268.5 134 265.7 134C261.3 134 257.7 132.6 254.9 129.8C252.1 127 250.7 123.4 250.7 119.1C250.7 114.8 252.1 111.3 254.9 108.4C257.6 105.4 261.1 104 265.5 104ZM265.5 106.7C262.3 106.7 259.5 107.7 257.4 109.7C255.3 111.7 254 114.3 253.7 117.6H276.7C276.4 114.2 275.2 111.5 273.1 109.6C270.9 107.7 268.4 106.7 265.5 106.7Z" fill="#0032A0"/>
<path d="M286.3 133.3V91.4H289.2V133.3H286.3Z" fill="#0032A0"/>
<path d="M344 104C347.1 104 349.7 105 351.6 106.9C353.5 108.8 354.5 111.6 354.5 115.1V133.3H351.6V115.1C351.6 112.4 350.9 110.4 349.5 108.9C348.1 107.4 346.3 106.7 344 106.7C341.4 106.7 339.4 107.6 337.8 109.3C336.2 111.1 335.4 113.7 335.4 117.2V133.2H332.5V115C332.5 112.3 331.8 110.3 330.5 108.8C329.2 107.3 327.4 106.6 325.1 106.6C322.6 106.6 320.5 107.5 318.8 109.3C317.1 111.1 316.2 113.7 316.2 117.2V133.2H313.3V104.5H316.2V109.4C318.2 105.7 321.3 103.8 325.4 103.8C327.5 103.8 329.3 104.3 330.9 105.3C332.5 106.3 333.6 107.8 334.3 109.6C335.3 107.7 336.6 106.2 338.3 105.2C340.1 104.5 342 104 344 104Z" fill="#0032A0"/>
<path d="M375.4 104C379.6 104 383 105.5 385.6 108.5C388.2 111.5 389.5 115 389.5 119.1C389.5 119.3 389.5 119.5 389.5 119.8C389.5 120.1 389.5 120.3 389.5 120.5H363.5C363.8 123.7 365.1 126.3 367.4 128.3C369.7 130.3 372.4 131.3 375.7 131.3C378 131.3 380 130.8 381.7 129.9C383.4 128.9 384.7 127.7 385.6 126.1L388.1 127.6C386.9 129.6 385.2 131.2 383.1 132.3C380.9 133.5 378.4 134 375.6 134C371.2 134 367.6 132.6 364.8 129.8C362 127 360.6 123.4 360.6 119.1C360.6 114.8 362 111.3 364.8 108.4C367.5 105.4 371 104 375.4 104ZM375.4 106.7C372.2 106.7 369.4 107.7 367.3 109.7C365.2 111.7 363.9 114.3 363.6 117.6H386.6C386.3 114.2 385.1 111.5 383 109.6C380.8 107.7 378.3 106.7 375.4 106.7Z" fill="#0032A0"/>
<path d="M397.1 112C397.1 113.4 397.7 114.5 398.9 115.3C400.1 116.1 401.5 116.7 403.2 117.2C404.9 117.6 406.6 118.1 408.3 118.5C410 119 411.5 119.8 412.6 121C413.8 122.2 414.4 123.8 414.4 125.8C414.4 128.2 413.5 130.1 411.6 131.6C409.7 133.1 407.2 133.9 404.2 133.9C401.4 133.9 399.1 133.3 397.2 132.2C395.3 131 394 129.5 393.3 127.6L395.8 126.2C396.3 127.8 397.3 129 398.8 129.9C400.3 130.8 402.1 131.2 404.2 131.2C406.3 131.2 408.1 130.7 409.5 129.8C410.9 128.9 411.6 127.5 411.6 125.8C411.6 124.4 411 123.3 409.8 122.4C408.6 121.6 407.2 120.9 405.5 120.5C403.8 120.1 402.1 119.6 400.4 119.1C398.7 118.6 397.2 117.8 396 116.7C394.8 115.6 394.2 114 394.2 112.1C394.2 109.8 395.1 107.9 396.9 106.3C398.7 104.7 401.1 103.9 403.9 103.9C406.2 103.9 408.2 104.4 409.9 105.4C411.6 106.4 412.9 107.8 413.7 109.6L411.3 111C410.7 109.6 409.8 108.5 408.4 107.8C407.1 107.1 405.6 106.7 403.9 106.7C402 106.7 400.3 107.2 399 108.1C397.7 109.1 397.1 110.4 397.1 112Z" fill="#0032A0"/>
<path d="M31.3 5.69995C42.1 5.69995 51.1 9.49995 58.4 17.1C65.6 24.7 69.3 33.9999 69.3 45.0999C69.3 56.1999 65.7 65.4999 58.4 73.0999C51.2 80.6999 42.1 84.5 31.3 84.5H0V5.69995H31.3ZM31.3 69.5999C38.1 69.5999 43.7 67.3 47.9 62.8C52.2 58.3 54.3 52.3999 54.3 45.0999C54.3 37.7999 52.2 31.9 47.9 27.4C43.6 22.9 38.1 20.6 31.3 20.6H15.5V69.5999H31.3Z" fill="#0032A0"/>
<path d="M91.8002 62.2C93.7002 69.3 99.0002 72.8 107.7 72.8C113.2 72.8 117.4 70.9 120.3 67.2L132 73.9C126.4 81.9 118.3 85.9 107.5 85.9C98.2002 85.9 90.7002 83.1 85.1002 77.5C79.5002 71.9 76.7002 64.8 76.7002 56.2C76.7002 47.7 79.5002 40.7 85.0002 35C90.5002 29.3 97.7002 26.5 106.4 26.5C114.6 26.5 121.5 29.4 126.8 35C132.2 40.7 134.8 47.8 134.8 56.1C134.8 58 134.6 60 134.2 62.1H91.8002V62.2ZM91.6002 51H120.3C119.5 47.2 117.8 44.3 115.2 42.5C112.6 40.6 109.7 39.7 106.4 39.7C102.5 39.7 99.3002 40.7 96.7002 42.7C94.1002 44.6 92.4002 47.4 91.6002 51Z" fill="#0032A0"/>
<path d="M156 44.1C156 45.6 157 46.8 159 47.8C161 48.7 163.4 49.6 166.3 50.3C169.1 51 172 51.9 174.8 53C177.6 54.1 180.1 55.9 182.1 58.5C184.1 61.1 185.1 64.2 185.1 68.1C185.1 73.9 182.9 78.3 178.6 81.4C174.3 84.5 168.9 86.1 162.5 86.1C151 86.1 143.1 81.6 138.9 72.7L151.5 65.6C153.1 70.5 156.8 72.9 162.5 72.9C167.7 72.9 170.3 71.3 170.3 68.1C170.3 66.6 169.3 65.4 167.3 64.4C165.3 63.5 162.9 62.6 160 61.9C157.1 61.2 154.3 60.2 151.5 59.1C148.6 58 146.2 56.2 144.2 53.8C142.2 51.4 141.2 48.3 141.2 44.6C141.2 39.1 143.2 34.7 147.3 31.5C151.4 28.3 156.5 26.7 162.5 26.7C167.1 26.7 171.2 27.7 175 29.8C178.7 31.9 181.7 34.8 183.9 38.6L171.5 45.3C169.7 41.5 166.7 39.6 162.5 39.6C160.6 39.6 159.1 40 157.8 40.8C156.6 41.6 156 42.7 156 44.1Z" fill="#0032A0"/>
<path d="M224.9 42.1H212.2V65.5C212.2 67.5 212.7 68.9 213.7 69.8C214.7 70.7 216.1 71.2 218 71.3C219.9 71.4 222.2 71.4 225 71.2V84.4C215 85.5 208 84.6 203.9 81.6C199.8 78.6 197.8 73.2 197.8 65.5V42.1H188V28.2H197.8V16.8L212.3 12.4V28.1H225V42.1H224.9Z" fill="#0032A0"/>
<path d="M242.3 21.4C239.9 21.4 237.8 20.5 236.1 18.8C234.3 17 233.5 15 233.5 12.6C233.5 10.2 234.4 8.09997 236.1 6.29997C237.9 4.49997 239.9 3.59998 242.3 3.59998C244.8 3.59998 246.9 4.49997 248.7 6.29997C250.5 8.09997 251.3 10.2 251.3 12.6C251.3 15 250.4 17.1 248.7 18.8C246.9 20.5 244.8 21.4 242.3 21.4ZM235.1 84.4V28.2H249.6V84.4H235.1Z" fill="#0032A0"/>
<path d="M315.4 53.7C313.2 53.5 311 53.3 308.9 53.2L306.7 53C305.9 52.9 305.3 52.3 305.3 51.5C305.3 51.4 305.3 51.3 305.3 51.2C305.3 50.4 305.9 49.8 306.7 49.7C306.7 49.7 310.3 49.4 315.4 49C315.3 42.1 313.3 36.7 309.4 32.7C305.4 28.6 300.3 26.5 294.2 26.5C286.6 26.5 281 29.1 277.4 34.4V28.1H262.9V84.3H277.4V54C277.4 49.4 278.5 45.9 280.8 43.5C283 41.2 286 40 289.8 40C293.2 40 295.9 41 297.9 43C299.9 45 300.9 47.9 300.9 51.6V84.3H315.4V53.7Z" fill="#0032A0"/>
<rect x="430.4" y="2" width="8.75916" height="130" fill="#47ABEE"/>
<path d="M479.783 66.134C468.2 66.134 460.586 60.545 457.508 52.121L467.066 46.532C469.091 51.797 473.06 55.199 480.107 55.199C486.83 55.199 489.179 52.364 489.179 49.205C489.179 44.993 485.372 43.373 476.948 40.943C468.281 38.432 459.857 34.787 459.857 24.014C459.857 13.322 468.767 7.166 478.487 7.166C487.802 7.166 494.93 11.945 498.737 19.883L489.341 25.31C487.316 21.017 484.238 18.02 478.487 18.02C473.789 18.02 471.035 20.45 471.035 23.69C471.035 27.173 473.222 29.036 481.808 31.628C490.799 34.463 500.357 37.46 500.357 49.043C500.357 59.654 491.852 66.134 479.783 66.134ZM543.228 65L539.826 54.794H517.227L513.825 65H501.756L521.601 8.3H535.452L555.378 65H543.228ZM520.791 44.345H536.343L528.567 21.179L520.791 44.345ZM593.688 8.3H604.866V65H596.361L572.061 30.332V65H560.883V8.3H569.388L593.688 42.887V8.3ZM669.492 18.992H646.812V32.438H668.844V43.13H646.812V65H635.634V8.3H669.492V18.992ZM708.741 65L697.32 45.317H688.815V65H677.637V8.3H700.317C710.766 8.3 719.19 16.724 719.19 27.092C719.19 34.22 714.735 40.619 708.255 43.616L720.81 65H708.741ZM688.815 18.749V35.516H700.317C704.529 35.516 708.012 31.79 708.012 27.092C708.012 22.394 704.529 18.749 700.317 18.749H688.815ZM763.842 65L760.44 54.794H737.841L734.439 65H722.37L742.215 8.3H756.066L775.992 65H763.842ZM741.405 44.345H756.957L749.181 21.179L741.405 44.345ZM814.302 8.3H825.48V65H816.975L792.675 30.332V65H781.497V8.3H790.002L814.302 42.887V8.3ZM862.89 66.134C845.718 66.134 833.406 53.174 833.406 36.65C833.406 20.045 845.718 7.166 862.89 7.166C873.258 7.166 882.411 12.431 887.271 20.531L877.632 26.12C874.878 21.098 869.37 18.02 862.89 18.02C851.793 18.02 844.503 25.715 844.503 36.65C844.503 47.504 851.793 55.199 862.89 55.199C869.37 55.199 874.959 52.121 877.632 47.18L887.271 52.769C882.492 60.869 873.339 66.134 862.89 66.134ZM894.138 8.3H905.316V65H894.138V8.3ZM934.301 66.134C922.718 66.134 915.104 60.545 912.026 52.121L921.584 46.532C923.609 51.797 927.578 55.199 934.625 55.199C941.348 55.199 943.697 52.364 943.697 49.205C943.697 44.993 939.89 43.373 931.466 40.943C922.799 38.432 914.375 34.787 914.375 24.014C914.375 13.322 923.285 7.166 933.005 7.166C942.32 7.166 949.448 11.945 953.255 19.883L943.859 25.31C941.834 21.017 938.756 18.02 933.005 18.02C928.307 18.02 925.553 20.45 925.553 23.69C925.553 27.173 927.74 29.036 936.326 31.628C945.317 34.463 954.875 37.46 954.875 49.043C954.875 59.654 946.37 66.134 934.301 66.134ZM988.662 66.134C971.49 66.134 959.178 53.174 959.178 36.65C959.178 20.045 971.49 7.166 988.662 7.166C999.03 7.166 1008.18 12.431 1013.04 20.531L1003.4 26.12C1000.65 21.098 995.142 18.02 988.662 18.02C977.565 18.02 970.275 25.715 970.275 36.65C970.275 47.504 977.565 55.199 988.662 55.199C995.142 55.199 1000.73 52.121 1003.4 47.18L1013.04 52.769C1008.26 60.869 999.111 66.134 988.662 66.134ZM1046.17 66.134C1029.8 66.134 1016.76 53.174 1016.76 36.65C1016.76 20.045 1029.8 7.166 1046.17 7.166C1062.53 7.166 1075.65 20.045 1075.65 36.65C1075.65 53.174 1062.53 66.134 1046.17 66.134ZM1046.17 55.199C1056.45 55.199 1064.47 47.504 1064.47 36.65C1064.47 25.715 1056.45 18.02 1046.17 18.02C1035.88 18.02 1027.86 25.715 1027.86 36.65C1027.86 47.504 1035.88 55.199 1046.17 55.199Z" fill="#0032A0"/>
<path d="M466.999 118.96H486.839V126H459.639V81.2H486.519V88.24H466.999V99.888H484.919V106.864H466.999V118.96ZM508.489 126.832C499.657 126.832 493.577 122.48 491.209 115.824L497.545 112.112C499.145 116.656 502.601 119.664 508.681 119.664C514.505 119.664 517.001 117.04 517.001 113.776C517.001 109.808 513.481 108.464 506.825 106.416C499.849 104.304 493.065 101.744 493.065 93.296C493.065 85.04 499.913 80.368 507.465 80.368C514.825 80.368 520.265 84.272 523.081 90.224L516.873 93.808C515.273 90.224 512.457 87.536 507.465 87.536C503.177 87.536 500.425 89.712 500.425 93.104C500.425 96.56 502.921 98.032 509.449 100.08C516.873 102.448 524.361 104.752 524.361 113.648C524.361 121.84 517.833 126.832 508.489 126.832ZM558.197 81.2V88.24H545.589V126H538.229V88.24H525.557V81.2H558.197ZM589.636 126L586.5 116.976H567.428L564.292 126H556.292L572.548 81.2H581.38L597.572 126H589.636ZM569.86 110.064H584.068L576.964 89.84L569.86 110.064ZM619.989 81.2C632.341 81.2 641.429 91.056 641.429 103.6C641.429 116.08 632.341 126 619.989 126H602.389V81.2H619.989ZM619.989 118.96C628.501 118.96 634.325 112.432 634.325 103.6C634.325 94.704 628.501 88.24 619.989 88.24H609.749V118.96H619.989ZM669.131 126.832C656.203 126.832 645.899 116.592 645.899 103.6C645.899 90.608 656.203 80.368 669.131 80.368C682.123 80.368 692.363 90.608 692.363 103.6C692.363 116.592 682.123 126.832 669.131 126.832ZM669.131 119.664C678.091 119.664 685.003 112.816 685.003 103.6C685.003 94.384 678.091 87.536 669.131 87.536C660.171 87.536 653.259 94.384 653.259 103.6C653.259 112.816 660.171 119.664 669.131 119.664ZM712.301 126.832C703.469 126.832 697.389 122.48 695.021 115.824L701.357 112.112C702.957 116.656 706.413 119.664 712.493 119.664C718.317 119.664 720.813 117.04 720.813 113.776C720.813 109.808 717.293 108.464 710.637 106.416C703.661 104.304 696.877 101.744 696.877 93.296C696.877 85.04 703.725 80.368 711.277 80.368C718.637 80.368 724.077 84.272 726.893 90.224L720.685 93.808C719.085 90.224 716.269 87.536 711.277 87.536C706.989 87.536 704.237 89.712 704.237 93.104C704.237 96.56 706.733 98.032 713.261 100.08C720.685 102.448 728.173 104.752 728.173 113.648C728.173 121.84 721.645 126.832 712.301 126.832ZM767.089 126.832C757.233 126.832 750.129 120.816 750.129 111.152V81.2H757.489V110.704C757.489 115.952 760.497 119.664 767.089 119.664C773.681 119.664 776.689 115.952 776.689 110.704V81.2H784.049V111.152C784.049 120.816 776.881 126.832 767.089 126.832ZM819.394 81.2H826.754V126H820.994L799.874 95.6V126H792.514V81.2H798.274L819.394 111.6V81.2ZM835.702 81.2H843.062V126H835.702V81.2ZM869.614 81.2C881.966 81.2 891.054 91.056 891.054 103.6C891.054 116.08 881.966 126 869.614 126H852.014V81.2H869.614ZM869.614 118.96C878.126 118.96 883.95 112.432 883.95 103.6C883.95 94.704 878.126 88.24 869.614 88.24H859.374V118.96H869.614ZM918.756 126.832C905.828 126.832 895.524 116.592 895.524 103.6C895.524 90.608 905.828 80.368 918.756 80.368C931.748 80.368 941.988 90.608 941.988 103.6C941.988 116.592 931.748 126.832 918.756 126.832ZM918.756 119.664C927.716 119.664 934.628 112.816 934.628 103.6C934.628 94.384 927.716 87.536 918.756 87.536C909.796 87.536 902.884 94.384 902.884 103.6C902.884 112.816 909.796 119.664 918.756 119.664ZM961.926 126.832C953.094 126.832 947.014 122.48 944.646 115.824L950.982 112.112C952.582 116.656 956.038 119.664 962.118 119.664C967.942 119.664 970.438 117.04 970.438 113.776C970.438 109.808 966.918 108.464 960.262 106.416C953.286 104.304 946.502 101.744 946.502 93.296C946.502 85.04 953.35 80.368 960.902 80.368C968.262 80.368 973.702 84.272 976.518 90.224L970.31 93.808C968.71 90.224 965.894 87.536 960.902 87.536C956.614 87.536 953.862 89.712 953.862 93.104C953.862 96.56 956.358 98.032 962.886 100.08C970.31 102.448 977.798 104.752 977.798 113.648C977.798 121.84 971.27 126.832 961.926 126.832Z" fill="#47ABEE"/>
</svg>
