<svg width="1195" height="135" viewBox="0 0 1195 135" fill="none" xmlns="http://www.w3.org/2000/svg">
<path d="M251.3 93.2H254.2V133.3H251.3V126.6C250.1 128.9 248.4 130.6 246.3 131.9C244.1 133.2 241.7 133.8 239 133.8C234.9 133.8 231.4 132.4 228.5 129.5C225.6 126.6 224.2 123.1 224.2 118.9C224.2 114.7 225.6 111.2 228.5 108.3C231.4 105.4 234.9 104 239 104C241.7 104 244.1 104.7 246.3 105.9C248.5 107.2 250.1 109 251.3 111.2V93.2ZM230.5 127.6C232.9 130 235.7 131.2 239.1 131.2C242.5 131.2 245.4 130 247.7 127.6C250.1 125.2 251.2 122.3 251.2 118.9C251.2 115.5 250 112.6 247.7 110.2C245.3 107.8 242.5 106.6 239.1 106.6C235.7 106.6 232.8 107.8 230.5 110.2C228.1 112.6 227 115.5 227 118.9C227 122.3 228.2 125.3 230.5 127.6Z" fill="white"/>
<path d="M276.1 133.9C271.9 133.9 268.3 132.5 265.4 129.6C262.5 126.7 261 123.2 261 119C261 114.8 262.5 111.3 265.4 108.4C268.3 105.5 271.9 104.1 276.1 104.1C280.3 104.1 283.8 105.5 286.7 108.4C289.6 111.3 291.1 114.8 291.1 119C291.1 123.2 289.6 126.7 286.7 129.6C283.8 132.5 280.3 133.9 276.1 133.9ZM267.5 127.6C269.9 130 272.7 131.2 276.1 131.2C279.5 131.2 282.4 130 284.7 127.6C287 125.2 288.2 122.3 288.2 118.9C288.2 115.5 287 112.6 284.7 110.2C282.4 107.8 279.5 106.6 276.1 106.6C272.7 106.6 269.8 107.8 267.5 110.2C265.1 112.6 264 115.5 264 118.9C264 122.3 265.1 125.3 267.5 127.6Z" fill="white"/>
<path d="M343.9 104C347 104 349.6 105 351.5 106.9C353.4 108.8 354.4 111.6 354.4 115.1V133.3H351.5V115.1C351.5 112.4 350.8 110.4 349.4 108.9C348 107.4 346.2 106.7 343.9 106.7C341.3 106.7 339.3 107.6 337.7 109.3C336.1 111.1 335.3 113.7 335.3 117.2V133.2H332.4V115C332.4 112.3 331.7 110.3 330.4 108.8C329.1 107.3 327.3 106.6 325 106.6C322.5 106.6 320.4 107.5 318.7 109.3C317 111.1 316.1 113.7 316.1 117.2V133.2H313.2V104.5H316.1V109.4C318.1 105.7 321.2 103.8 325.3 103.8C327.4 103.8 329.2 104.3 330.8 105.3C332.4 106.3 333.5 107.8 334.2 109.6C335.2 107.7 336.5 106.2 338.2 105.2C340.1 104.5 342 104 343.9 104Z" fill="white"/>
<path d="M375.4 104C379.6 104 383 105.5 385.6 108.5C388.2 111.5 389.5 115 389.5 119.1C389.5 119.3 389.5 119.5 389.5 119.8C389.5 120.1 389.5 120.3 389.5 120.5H363.5C363.8 123.7 365.1 126.3 367.4 128.3C369.7 130.3 372.4 131.3 375.7 131.3C378 131.3 380 130.8 381.7 129.9C383.4 128.9 384.7 127.7 385.6 126.1L388.1 127.6C386.9 129.6 385.2 131.2 383.1 132.3C380.9 133.5 378.4 134 375.6 134C371.2 134 367.6 132.6 364.8 129.8C362 127 360.6 123.4 360.6 119.1C360.6 114.8 362 111.3 364.8 108.4C367.4 105.4 371 104 375.4 104ZM375.4 106.8C372.2 106.8 369.4 107.8 367.3 109.8C365.2 111.8 363.9 114.4 363.6 117.7H386.6C386.3 114.3 385.1 111.6 383 109.7C380.8 107.7 378.3 106.8 375.4 106.8ZM375 95.1L370.4 100.6H367.1L373.3 93.3L376.6 93.4L382.9 100.8L379.6 100.6L375 95.1Z" fill="white"/>
<path d="M397 112.1C397 113.5 397.6 114.6 398.8 115.4C400 116.2 401.4 116.8 403.1 117.3C404.8 117.7 406.5 118.2 408.2 118.6C409.9 119.1 411.4 119.9 412.5 121.1C413.7 122.3 414.3 123.9 414.3 125.9C414.3 128.3 413.4 130.2 411.5 131.7C409.6 133.2 407.1 134 404.1 134C401.3 134 399 133.4 397.1 132.3C395.2 131.1 393.9 129.6 393.2 127.7L395.7 126.3C396.2 127.9 397.2 129.1 398.7 130C400.2 130.9 402 131.3 404.1 131.3C406.2 131.3 408 130.8 409.4 129.9C410.8 129 411.5 127.6 411.5 125.9C411.5 124.5 410.9 123.4 409.7 122.5C408.5 121.7 407.1 121 405.4 120.6C403.7 120.2 402 119.7 400.3 119.2C398.6 118.7 397.1 117.9 395.9 116.8C394.7 115.7 394.1 114.1 394.1 112.2C394.1 109.9 395 108 396.8 106.4C398.6 104.8 401 104 403.8 104C406.1 104 408.1 104.5 409.8 105.5C411.5 106.5 412.8 107.9 413.6 109.7L411.2 111.1C410.6 109.7 409.7 108.6 408.3 107.9C407 107.2 405.5 106.8 403.8 106.8C401.9 106.8 400.2 107.3 398.9 108.2C397.7 109.2 397 110.5 397 112.1Z" fill="white"/>
<path d="M31.3 5.69998C42.1 5.69998 51.1 9.49998 58.4 17.1C65.6 24.7 69.3 34 69.3 45.1C69.3 56.2 65.7 65.5 58.4 73.1C51.2 80.7 42.1 84.5 31.3 84.5H0V5.79999H31.3V5.69998ZM31.3 69.6C38.1 69.6 43.7 67.3 47.9 62.8C52.2 58.3 54.3 52.4 54.3 45.1C54.3 37.8 52.2 31.9 47.9 27.4C43.6 22.9 38.1 20.6 31.3 20.6H15.5V69.6H31.3Z" fill="white"/>
<path d="M91.8002 62.3C93.7002 69.4 99.0002 72.9 107.7 72.9C113.2 72.9 117.4 71 120.3 67.3L132 74C126.4 82 118.3 86 107.5 86C98.2002 86 90.7002 83.2 85.1002 77.6C79.5002 72 76.7002 64.9 76.7002 56.3C76.7002 47.8 79.5002 40.8 85.0002 35.1C90.5002 29.4 97.7002 26.6 106.4 26.6C114.6 26.6 121.5 29.5 126.8 35.1C132.2 40.8 134.8 47.9 134.8 56.2C134.8 58.1 134.6 60.1 134.2 62.2H91.8002V62.3ZM91.6002 51H120.3C119.5 47.2 117.8 44.3 115.2 42.5C112.6 40.6 109.7 39.7 106.4 39.7C102.5 39.7 99.3002 40.7 96.7002 42.7C94.1002 44.6 92.4002 47.4 91.6002 51Z" fill="white"/>
<path d="M156 44.2C156 45.7 157 46.9 159 47.9C161 48.8 163.4 49.7 166.3 50.4C169.1 51.1 172 52 174.8 53.1C177.6 54.2 180.1 56 182.1 58.6C184.1 61.2 185.1 64.3 185.1 68.2C185.1 74 182.9 78.4 178.6 81.5C174.3 84.6 168.9 86.2 162.5 86.2C151 86.2 143.1 81.7 138.9 72.8L151.5 65.7C153.1 70.6 156.8 73 162.5 73C167.7 73 170.3 71.4 170.3 68.2C170.3 66.7 169.3 65.5 167.3 64.5C165.3 63.6 162.9 62.7 160 62C157.1 61.3 154.3 60.3 151.5 59.2C148.6 58.1 146.2 56.3 144.2 53.9C142.2 51.5 141.2 48.4 141.2 44.7C141.2 39.2 143.2 34.8 147.3 31.6C151.4 28.4 156.5 26.8 162.5 26.8C167.1 26.8 171.2 27.8 175 29.9C178.7 32 181.7 34.9 183.9 38.7L171.5 45.4C169.7 41.6 166.7 39.7 162.5 39.7C160.6 39.7 159.1 40.1 157.8 40.9C156.6 41.6 156 42.7 156 44.2Z" fill="white"/>
<path d="M224.9 42.1H212.2V65.5C212.2 67.5 212.7 68.9 213.7 69.8C214.7 70.7 216.1 71.2 218 71.3C219.9 71.4 222.2 71.4 225 71.2V84.4C215 85.5 208 84.6 203.9 81.6C199.8 78.6 197.8 73.2 197.8 65.5V42.1H188V28.2H197.8V16.8L212.3 12.4V28.1H225V42.1H224.9Z" fill="white"/>
<path d="M242.3 21.4C239.9 21.4 237.8 20.5 236.1 18.8C234.3 17 233.5 15 233.5 12.6C233.5 10.2 234.4 8.09999 236.1 6.29999C237.9 4.49999 239.9 3.59998 242.3 3.59998C244.8 3.59998 246.9 4.49999 248.7 6.29999C250.5 8.09999 251.3 10.2 251.3 12.6C251.3 15 250.4 17.1 248.7 18.8C246.9 20.6 244.8 21.4 242.3 21.4ZM235.1 84.4V28.2H249.6V84.4H235.1Z" fill="white"/>
<path d="M409.9 51.3C395.5 50.1 381.1 48.9 366.5 47.7C369.2 43.6 371.8 39.6 374.4 35.6C374.3 35.5 374.2 35.5 374.2 35.4C370.3 38 366.3 40.6 362.2 43.3C361 28.7 359.8 14.3 358.5 0C358.4 0 358.3 0 358.2 0C357 14.4 355.8 28.7 354.5 43.3C350.3 40.6 346.4 38 342.4 35.4C342.3 35.5 342.3 35.5 342.2 35.6C344.8 39.6 347.4 43.5 350.1 47.6C335.5 48.8 321 50 306.6 51.3C306.6 51.4 306.6 51.5 306.6 51.6C321 52.8 335.4 54 350.1 55.3C347.4 59.4 344.8 63.4 342.2 67.4C342.3 67.5 342.4 67.5 342.4 67.6C346.4 65 350.3 62.4 354.4 59.7C355.6 74.3 356.8 88.7 358.1 103C358.2 103 358.3 103 358.4 103C359.6 88.6 360.8 74.3 362 59.7C366.2 62.4 370.1 65 374 67.6L374.2 67.4C371.6 63.5 369 59.5 366.3 55.4C380.9 54.2 395.3 53 409.7 51.8V51.3H409.9ZM358.4 56.4C355.6 56.4 353.4 54.2 353.4 51.4C353.4 48.6 355.6 46.4 358.4 46.4C361.2 46.4 363.4 48.6 363.4 51.4C363.4 54.3 361.3 56.4 358.4 56.4Z" fill="white"/>
<path d="M354.1 81.5C341.3 80.2 329.6 68.8 328.3 55.7C329.4 55.8 330.3 55.9 331.3 55.9C332.1 55.9 332.4 56.2 332.5 57C333.8 63.2 337 68.2 341.9 72.1C345.1 74.7 348.7 76.4 352.8 77.2C353.5 77.4 353.9 77.6 353.9 78.4C353.9 79.5 354.1 80.5 354.1 81.5Z" fill="white"/>
<path d="M354.2 21.3C354.1 22.5 354.1 23.7 353.9 24.7C353.8 25 353.3 25.4 352.9 25.5C347.9 26.6 343.5 29 339.9 32.6C336.2 36.3 333.8 40.6 332.7 45.7C332.5 46.6 332.1 46.9 331.2 46.9C330.3 46.9 329.5 47 328.6 47.1C328.6 47.1 328.5 47.1 328.5 47C329.5 34.6 340.7 22.8 354.2 21.3Z" fill="white"/>
<path d="M388.5 47.2C387.3 47.1 386 47 384.8 46.8C384.6 46.8 384.3 46.2 384.2 45.9C383.1 40.7 380.6 36.2 376.8 32.5C373.2 29 369 26.6 364 25.6C363.1 25.4 362.7 25 362.8 24.1C362.8 23.2 362.7 22.3 362.6 21.3C375 22.5 387.1 33.5 388.5 47.2Z" fill="white"/>
<path d="M388.6 55.7C387.8 61.6 385.5 66.7 381.7 71.2C376.7 77 370.4 80.5 362.7 81.7C362.8 80.4 362.8 79.2 363 78.1C363.1 77.8 363.6 77.4 364 77.3C369.1 76.2 373.5 73.7 377.2 70C380.9 66.3 383.2 61.9 384.3 56.8C384.4 56.1 384.7 55.9 385.4 55.8C386.4 55.9 387.4 55.8 388.6 55.7Z" fill="white"/>
<path d="M362 51.4C362 53.3 360.4 55 358.5 55C356.6 55 354.9 53.4 354.9 51.5C354.9 51 355 50.5 355.2 50.1C355.3 49.9 355.4 49.7 355.5 49.5C356.1 48.6 357.2 47.9 358.4 47.9C359.4 47.9 360.3 48.3 360.9 48.9C361 49 361.1 49.1 361.1 49.1C361.7 49.8 362 50.6 362 51.4Z" fill="white"/>
<path d="M315.4 53.8C313.2 53.6 311 53.4 308.9 53.3L306.7 53.1C305.9 53 305.3 52.4 305.3 51.6C305.3 51.5 305.3 51.4 305.3 51.3C305.3 50.5 305.9 49.9 306.7 49.8C306.7 49.8 310.3 49.5 315.4 49.1C315.3 42.2 313.3 36.8 309.4 32.8C305.4 28.7 300.3 26.6 294.2 26.6C286.6 26.6 281 29.2 277.4 34.5V28.2H262.9V84.4H277.4V54C277.4 49.4 278.5 45.9 280.8 43.5C283 41.2 286 40 289.8 40C293.2 40 295.9 41 297.9 43C299.9 45 300.9 47.9 300.9 51.6V84.3H315.4V53.8Z" fill="white"/>
<rect x="430.3" y="2" width="8.75916" height="130" fill="white"/>
<path d="M484.243 74.344C470.515 74.344 461.491 67.72 457.843 57.736L469.171 51.112C471.571 57.352 476.275 61.384 484.627 61.384C492.595 61.384 495.379 58.024 495.379 54.28C495.379 49.288 490.867 47.368 480.883 44.488C470.611 41.512 460.627 37.192 460.627 24.424C460.627 11.752 471.187 4.456 482.707 4.456C493.747 4.456 502.195 10.12 506.707 19.528L495.571 25.96C493.171 20.872 489.523 17.32 482.707 17.32C477.139 17.32 473.875 20.2 473.875 24.04C473.875 28.168 476.467 30.376 486.643 33.448C497.299 36.808 508.627 40.36 508.627 54.088C508.627 66.664 498.547 74.344 484.243 74.344ZM559.437 73L555.405 60.904H528.621L524.589 73H510.285L533.805 5.8H550.221L573.837 73H559.437ZM532.845 48.52H551.277L542.061 21.064L532.845 48.52ZM619.242 5.8H632.49V73H622.41L593.61 31.912V73H580.362V5.8H590.442L619.242 46.792V5.8ZM709.083 18.472H682.203V34.408H708.315V47.08H682.203V73H668.955V5.8H709.083V18.472ZM755.601 73L742.065 49.672H731.985V73H718.737V5.8H745.617C758.001 5.8 767.985 15.784 767.985 28.072C767.985 36.52 762.705 44.104 755.025 47.656L769.905 73H755.601ZM731.985 18.184V38.056H745.617C750.609 38.056 754.737 33.64 754.737 28.072C754.737 22.504 750.609 18.184 745.617 18.184H731.985ZM820.905 73L816.873 60.904H790.089L786.057 73H771.753L795.273 5.8H811.689L835.305 73H820.905ZM794.313 48.52H812.745L803.529 21.064L794.313 48.52ZM880.71 5.8H893.958V73H883.878L855.078 31.912V73H841.83V5.8H851.91L880.71 46.792V5.8ZM938.296 74.344C917.944 74.344 903.352 58.984 903.352 39.4C903.352 19.72 917.944 4.456 938.296 4.456C950.584 4.456 961.432 10.696 967.192 20.296L955.768 26.92C952.504 20.968 945.976 17.32 938.296 17.32C925.144 17.32 916.504 26.44 916.504 39.4C916.504 52.264 925.144 61.384 938.296 61.384C945.976 61.384 952.6 57.736 955.768 51.88L967.192 58.504C961.528 68.104 950.68 74.344 938.296 74.344ZM975.33 5.8H988.578V73H975.33V5.8ZM1022.93 74.344C1009.2 74.344 1000.18 67.72 996.531 57.736L1007.86 51.112C1010.26 57.352 1014.96 61.384 1023.31 61.384C1031.28 61.384 1034.07 58.024 1034.07 54.28C1034.07 49.288 1029.55 47.368 1019.57 44.488C1009.3 41.512 999.315 37.192 999.315 24.424C999.315 11.752 1009.87 4.456 1021.39 4.456C1032.43 4.456 1040.88 10.12 1045.39 19.528L1034.26 25.96C1031.86 20.872 1028.21 17.32 1021.39 17.32C1015.83 17.32 1012.56 20.2 1012.56 24.04C1012.56 28.168 1015.15 30.376 1025.33 33.448C1035.99 36.808 1047.31 40.36 1047.31 54.088C1047.31 66.664 1037.23 74.344 1022.93 74.344ZM1087.36 74.344C1067.01 74.344 1052.41 58.984 1052.41 39.4C1052.41 19.72 1067.01 4.456 1087.36 4.456C1099.65 4.456 1110.49 10.696 1116.25 20.296L1104.83 26.92C1101.57 20.968 1095.04 17.32 1087.36 17.32C1074.21 17.32 1065.57 26.44 1065.57 39.4C1065.57 52.264 1074.21 61.384 1087.36 61.384C1095.04 61.384 1101.66 57.736 1104.83 51.88L1116.25 58.504C1110.59 68.104 1099.74 74.344 1087.36 74.344ZM1155.51 74.344C1136.12 74.344 1120.66 58.984 1120.66 39.4C1120.66 19.72 1136.12 4.456 1155.51 4.456C1174.9 4.456 1190.46 19.72 1190.46 39.4C1190.46 58.984 1174.9 74.344 1155.51 74.344ZM1155.51 61.384C1167.7 61.384 1177.21 52.264 1177.21 39.4C1177.21 26.44 1167.7 17.32 1155.51 17.32C1143.32 17.32 1133.82 26.44 1133.82 39.4C1133.82 52.264 1143.32 61.384 1155.51 61.384Z" fill="white"/>
<path d="M466.899 126.96H486.739V134H459.539V89.2H486.419V96.24H466.899V107.888H484.819V114.864H466.899V126.96ZM508.389 134.832C499.557 134.832 493.477 130.48 491.109 123.824L497.445 120.112C499.045 124.656 502.501 127.664 508.581 127.664C514.405 127.664 516.901 125.04 516.901 121.776C516.901 117.808 513.381 116.464 506.725 114.416C499.749 112.304 492.965 109.744 492.965 101.296C492.965 93.04 499.813 88.368 507.365 88.368C514.725 88.368 520.165 92.272 522.981 98.224L516.773 101.808C515.173 98.224 512.357 95.536 507.365 95.536C503.077 95.536 500.325 97.712 500.325 101.104C500.325 104.56 502.821 106.032 509.349 108.08C516.773 110.448 524.261 112.752 524.261 121.648C524.261 129.84 517.733 134.832 508.389 134.832ZM558.097 89.2V96.24H545.489V134H538.129V96.24H525.457V89.2H558.097ZM589.536 134L586.4 124.976H567.328L564.192 134H556.192L572.448 89.2H581.28L597.472 134H589.536ZM569.76 118.064H583.968L576.864 97.84L569.76 118.064ZM619.889 89.2C632.241 89.2 641.329 99.056 641.329 111.6C641.329 124.08 632.241 134 619.889 134H602.289V89.2H619.889ZM619.889 126.96C628.401 126.96 634.225 120.432 634.225 111.6C634.225 102.704 628.401 96.24 619.889 96.24H609.649V126.96H619.889ZM669.031 134.832C656.103 134.832 645.799 124.592 645.799 111.6C645.799 98.608 656.103 88.368 669.031 88.368C682.023 88.368 692.263 98.608 692.263 111.6C692.263 124.592 682.023 134.832 669.031 134.832ZM669.031 127.664C677.991 127.664 684.903 120.816 684.903 111.6C684.903 102.384 677.991 95.536 669.031 95.536C660.071 95.536 653.159 102.384 653.159 111.6C653.159 120.816 660.071 127.664 669.031 127.664ZM712.201 134.832C703.369 134.832 697.289 130.48 694.921 123.824L701.257 120.112C702.857 124.656 706.313 127.664 712.393 127.664C718.217 127.664 720.713 125.04 720.713 121.776C720.713 117.808 717.193 116.464 710.537 114.416C703.561 112.304 696.777 109.744 696.777 101.296C696.777 93.04 703.625 88.368 711.177 88.368C718.537 88.368 723.977 92.272 726.793 98.224L720.585 101.808C718.985 98.224 716.169 95.536 711.177 95.536C706.889 95.536 704.137 97.712 704.137 101.104C704.137 104.56 706.633 106.032 713.161 108.08C720.585 110.448 728.073 112.752 728.073 121.648C728.073 129.84 721.545 134.832 712.201 134.832ZM766.989 134.832C757.133 134.832 750.029 128.816 750.029 119.152V89.2H757.389V118.704C757.389 123.952 760.397 127.664 766.989 127.664C773.581 127.664 776.589 123.952 776.589 118.704V89.2H783.949V119.152C783.949 128.816 776.781 134.832 766.989 134.832ZM819.294 89.2H826.654V134H820.894L799.774 103.6V134H792.414V89.2H798.174L819.294 119.6V89.2ZM835.602 89.2H842.962V134H835.602V89.2ZM869.514 89.2C881.866 89.2 890.954 99.056 890.954 111.6C890.954 124.08 881.866 134 869.514 134H851.914V89.2H869.514ZM869.514 126.96C878.026 126.96 883.85 120.432 883.85 111.6C883.85 102.704 878.026 96.24 869.514 96.24H859.274V126.96H869.514ZM918.656 134.832C905.728 134.832 895.424 124.592 895.424 111.6C895.424 98.608 905.728 88.368 918.656 88.368C931.648 88.368 941.888 98.608 941.888 111.6C941.888 124.592 931.648 134.832 918.656 134.832ZM918.656 127.664C927.616 127.664 934.528 120.816 934.528 111.6C934.528 102.384 927.616 95.536 918.656 95.536C909.696 95.536 902.784 102.384 902.784 111.6C902.784 120.816 909.696 127.664 918.656 127.664ZM961.826 134.832C952.994 134.832 946.914 130.48 944.546 123.824L950.882 120.112C952.482 124.656 955.938 127.664 962.018 127.664C967.842 127.664 970.338 125.04 970.338 121.776C970.338 117.808 966.818 116.464 960.162 114.416C953.186 112.304 946.402 109.744 946.402 101.296C946.402 93.04 953.25 88.368 960.802 88.368C968.162 88.368 973.602 92.272 976.418 98.224L970.21 101.808C968.61 98.224 965.794 95.536 960.802 95.536C956.514 95.536 953.762 97.712 953.762 101.104C953.762 104.56 956.258 106.032 962.786 108.08C970.21 110.448 977.698 112.752 977.698 121.648C977.698 129.84 971.17 134.832 961.826 134.832Z" fill="white"/>
</svg>
