<svg width="1195" height="134" viewBox="0 0 1195 134" fill="none" xmlns="http://www.w3.org/2000/svg">
<path d="M409.9 51.3C395.5 50.1 381.1 48.9 366.5 47.7C369.2 43.6 371.8 39.6 374.4 35.6C374.3 35.5 374.2 35.5 374.2 35.4C370.3 38 366.3 40.6 362.2 43.3C361 28.7 359.8 14.3 358.5 0C358.4 0 358.3 0 358.2 0C357 14.4 355.8 28.7 354.5 43.3C350.3 40.6 346.4 38 342.4 35.4C342.3 35.5 342.3 35.5 342.2 35.6C344.8 39.6 347.4 43.5 350.1 47.6C335.5 48.8 321 50 306.6 51.3C306.6 51.4 306.6 51.5 306.6 51.6C321 52.8 335.4 54 350.1 55.3C347.4 59.4 344.8 63.4 342.2 67.4C342.3 67.5 342.4 67.5 342.4 67.6C346.4 65 350.3 62.4 354.4 59.7C355.6 74.3 356.8 88.7 358.1 103C358.2 103 358.3 103 358.4 103C359.6 88.6 360.8 74.3 362 59.7C366.2 62.4 370.1 65 374 67.6L374.2 67.4C371.6 63.5 369 59.5 366.3 55.4C380.9 54.2 395.3 53 409.7 51.8V51.3H409.9ZM358.4 56.4C355.6 56.4 353.4 54.2 353.4 51.4C353.4 48.6 355.6 46.4 358.4 46.4C361.2 46.4 363.4 48.6 363.4 51.4C363.4 54.2 361.3 56.4 358.4 56.4Z" fill="white"/>
<path d="M354.1 81.5C341.3 80.2 329.6 68.8 328.3 55.7C329.4 55.8 330.3 55.9 331.3 55.9C332.1 55.9 332.4 56.2 332.5 57C333.8 63.2 337 68.2 341.9 72.1C345.1 74.7 348.7 76.4 352.8 77.2C353.5 77.4 353.9 77.6 353.9 78.4C353.9 79.5 354.1 80.5 354.1 81.5Z" fill="white"/>
<path d="M354.2 21.3C354.1 22.5 354.1 23.7 353.9 24.7C353.8 25 353.3 25.4 352.9 25.5C347.9 26.6 343.5 29 339.9 32.6C336.2 36.3 333.8 40.6 332.7 45.7C332.5 46.6 332.1 46.9 331.2 46.9C330.3 46.9 329.5 47 328.6 47.1C328.6 47.1 328.5 47.1 328.5 47C329.5 34.6 340.7 22.7 354.2 21.3Z" fill="white"/>
<path d="M388.5 47.1C387.3 47 386 46.9 384.8 46.7C384.6 46.7 384.3 46.1 384.2 45.8C383.1 40.6 380.6 36.1 376.8 32.4C373.2 28.9 369 26.5 364 25.5C363.1 25.3 362.7 24.9 362.8 24C362.8 23.1 362.7 22.2 362.6 21.2C375 22.5 387.1 33.5 388.5 47.1Z" fill="white"/>
<path d="M388.6 55.7C387.8 61.6 385.5 66.7 381.7 71.2C376.7 77 370.4 80.5 362.7 81.7C362.8 80.4 362.8 79.2 363 78.1C363.1 77.8 363.6 77.4 364 77.3C369.1 76.2 373.5 73.7 377.2 70C380.9 66.3 383.2 61.9 384.3 56.8C384.4 56.1 384.7 55.9 385.4 55.8C386.4 55.9 387.4 55.8 388.6 55.7Z" fill="white"/>
<path d="M362 51.4C362 53.3 360.4 55 358.5 55C356.6 55 354.9 53.4 354.9 51.5C354.9 51 355 50.5 355.2 50.1C355.3 49.9 355.4 49.7 355.5 49.5C356.1 48.6 357.2 47.9 358.4 47.9C359.4 47.9 360.3 48.3 360.9 48.9C361 49 361.1 49.1 361.1 49.1C361.7 49.7 362 50.5 362 51.4Z" fill="white"/>
<path d="M240.9 93.1H243.8V133.2H240.9V126.5C239.7 128.8 238 130.5 235.9 131.8C233.7 133.1 231.3 133.7 228.6 133.7C224.5 133.7 221 132.3 218.1 129.4C215.2 126.5 213.8 123 213.8 118.8C213.8 114.6 215.2 111.1 218.1 108.2C221 105.3 224.5 103.9 228.6 103.9C231.3 103.9 233.7 104.6 235.9 105.8C238.1 107.1 239.7 108.9 240.9 111.1V93.1ZM220.1 127.6C222.5 130 225.3 131.2 228.7 131.2C232.1 131.2 235 130 237.3 127.6C239.7 125.2 240.8 122.3 240.8 118.9C240.8 115.5 239.6 112.6 237.3 110.2C234.9 107.8 232.1 106.6 228.7 106.6C225.3 106.6 222.4 107.8 220.1 110.2C217.7 112.6 216.6 115.5 216.6 118.9C216.6 122.3 217.8 125.2 220.1 127.6Z" fill="white"/>
<path d="M265.5 104C269.7 104 273.1 105.5 275.7 108.5C278.3 111.5 279.6 115 279.6 119.1C279.6 119.3 279.6 119.5 279.6 119.8C279.6 120.1 279.6 120.3 279.6 120.5H253.6C253.9 123.7 255.2 126.3 257.5 128.3C259.8 130.3 262.5 131.3 265.8 131.3C268.1 131.3 270.1 130.8 271.8 129.9C273.5 128.9 274.8 127.7 275.7 126.1L278.2 127.6C277 129.6 275.3 131.2 273.2 132.3C271 133.5 268.5 134 265.7 134C261.3 134 257.7 132.6 254.9 129.8C252.1 127 250.7 123.4 250.7 119.1C250.7 114.8 252.1 111.3 254.9 108.4C257.6 105.4 261.1 104 265.5 104ZM265.5 106.7C262.3 106.7 259.5 107.7 257.4 109.7C255.3 111.7 254 114.3 253.7 117.6H276.7C276.4 114.2 275.2 111.5 273.1 109.6C270.9 107.7 268.4 106.7 265.5 106.7Z" fill="white"/>
<path d="M286.3 133.3V91.4H289.2V133.3H286.3Z" fill="white"/>
<path d="M344 104C347.1 104 349.7 105 351.6 106.9C353.5 108.8 354.5 111.6 354.5 115.1V133.3H351.6V115.1C351.6 112.4 350.9 110.4 349.5 108.9C348.1 107.4 346.3 106.7 344 106.7C341.4 106.7 339.4 107.6 337.8 109.3C336.2 111.1 335.4 113.7 335.4 117.2V133.2H332.5V115C332.5 112.3 331.8 110.3 330.5 108.8C329.2 107.3 327.4 106.6 325.1 106.6C322.6 106.6 320.5 107.5 318.8 109.3C317.1 111.1 316.2 113.7 316.2 117.2V133.2H313.3V104.5H316.2V109.4C318.2 105.7 321.3 103.8 325.4 103.8C327.5 103.8 329.3 104.3 330.9 105.3C332.5 106.3 333.6 107.8 334.3 109.6C335.3 107.7 336.6 106.2 338.3 105.2C340.1 104.5 342 104 344 104Z" fill="white"/>
<path d="M375.4 104C379.6 104 383 105.5 385.6 108.5C388.2 111.5 389.5 115 389.5 119.1C389.5 119.3 389.5 119.5 389.5 119.8C389.5 120.1 389.5 120.3 389.5 120.5H363.5C363.8 123.7 365.1 126.3 367.4 128.3C369.7 130.3 372.4 131.3 375.7 131.3C378 131.3 380 130.8 381.7 129.9C383.4 128.9 384.7 127.7 385.6 126.1L388.1 127.6C386.9 129.6 385.2 131.2 383.1 132.3C380.9 133.5 378.4 134 375.6 134C371.2 134 367.6 132.6 364.8 129.8C362 127 360.6 123.4 360.6 119.1C360.6 114.8 362 111.3 364.8 108.4C367.5 105.4 371 104 375.4 104ZM375.4 106.7C372.2 106.7 369.4 107.7 367.3 109.7C365.2 111.7 363.9 114.3 363.6 117.6H386.6C386.3 114.2 385.1 111.5 383 109.6C380.8 107.7 378.3 106.7 375.4 106.7Z" fill="white"/>
<path d="M397.1 112C397.1 113.4 397.7 114.5 398.9 115.3C400.1 116.1 401.5 116.7 403.2 117.2C404.9 117.6 406.6 118.1 408.3 118.5C410 119 411.5 119.8 412.6 121C413.8 122.2 414.4 123.8 414.4 125.8C414.4 128.2 413.5 130.1 411.6 131.6C409.7 133.1 407.2 133.9 404.2 133.9C401.4 133.9 399.1 133.3 397.2 132.2C395.3 131 394 129.5 393.3 127.6L395.8 126.2C396.3 127.8 397.3 129 398.8 129.9C400.3 130.8 402.1 131.2 404.2 131.2C406.3 131.2 408.1 130.7 409.5 129.8C410.9 128.9 411.6 127.5 411.6 125.8C411.6 124.4 411 123.3 409.8 122.4C408.6 121.6 407.2 120.9 405.5 120.5C403.8 120.1 402.1 119.6 400.4 119.1C398.7 118.6 397.2 117.8 396 116.7C394.8 115.6 394.2 114 394.2 112.1C394.2 109.8 395.1 107.9 396.9 106.3C398.7 104.7 401.1 103.9 403.9 103.9C406.2 103.9 408.2 104.4 409.9 105.4C411.6 106.4 412.9 107.8 413.7 109.6L411.3 111C410.7 109.6 409.8 108.5 408.4 107.8C407.1 107.1 405.6 106.7 403.9 106.7C402 106.7 400.3 107.2 399 108.1C397.7 109.1 397.1 110.4 397.1 112Z" fill="white"/>
<path d="M31.3 5.69995C42.1 5.69995 51.1 9.49995 58.4 17.1C65.6 24.7 69.3 33.9999 69.3 45.0999C69.3 56.1999 65.7 65.4999 58.4 73.0999C51.2 80.6999 42.1 84.5 31.3 84.5H0V5.69995H31.3ZM31.3 69.5999C38.1 69.5999 43.7 67.3 47.9 62.8C52.2 58.3 54.3 52.3999 54.3 45.0999C54.3 37.7999 52.2 31.9 47.9 27.4C43.6 22.9 38.1 20.6 31.3 20.6H15.5V69.5999H31.3Z" fill="white"/>
<path d="M91.8002 62.2C93.7002 69.3 99.0002 72.8 107.7 72.8C113.2 72.8 117.4 70.9 120.3 67.2L132 73.9C126.4 81.9 118.3 85.9 107.5 85.9C98.2002 85.9 90.7002 83.1 85.1002 77.5C79.5002 71.9 76.7002 64.8 76.7002 56.2C76.7002 47.7 79.5002 40.7 85.0002 35C90.5002 29.3 97.7002 26.5 106.4 26.5C114.6 26.5 121.5 29.4 126.8 35C132.2 40.7 134.8 47.8 134.8 56.1C134.8 58 134.6 60 134.2 62.1H91.8002V62.2ZM91.6002 51H120.3C119.5 47.2 117.8 44.3 115.2 42.5C112.6 40.6 109.7 39.7 106.4 39.7C102.5 39.7 99.3002 40.7 96.7002 42.7C94.1002 44.6 92.4002 47.4 91.6002 51Z" fill="white"/>
<path d="M156 44.1C156 45.6 157 46.8 159 47.8C161 48.7 163.4 49.6 166.3 50.3C169.1 51 172 51.9 174.8 53C177.6 54.1 180.1 55.9 182.1 58.5C184.1 61.1 185.1 64.2 185.1 68.1C185.1 73.9 182.9 78.3 178.6 81.4C174.3 84.5 168.9 86.1 162.5 86.1C151 86.1 143.1 81.6 138.9 72.7L151.5 65.6C153.1 70.5 156.8 72.9 162.5 72.9C167.7 72.9 170.3 71.3 170.3 68.1C170.3 66.6 169.3 65.4 167.3 64.4C165.3 63.5 162.9 62.6 160 61.9C157.1 61.2 154.3 60.2 151.5 59.1C148.6 58 146.2 56.2 144.2 53.8C142.2 51.4 141.2 48.3 141.2 44.6C141.2 39.1 143.2 34.7 147.3 31.5C151.4 28.3 156.5 26.7 162.5 26.7C167.1 26.7 171.2 27.7 175 29.8C178.7 31.9 181.7 34.8 183.9 38.6L171.5 45.3C169.7 41.5 166.7 39.6 162.5 39.6C160.6 39.6 159.1 40 157.8 40.8C156.6 41.6 156 42.7 156 44.1Z" fill="white"/>
<path d="M224.9 42.1H212.2V65.5C212.2 67.5 212.7 68.9 213.7 69.8C214.7 70.7 216.1 71.2 218 71.3C219.9 71.4 222.2 71.4 225 71.2V84.4C215 85.5 208 84.6 203.9 81.6C199.8 78.6 197.8 73.2 197.8 65.5V42.1H188V28.2H197.8V16.8L212.3 12.4V28.1H225V42.1H224.9Z" fill="white"/>
<path d="M242.3 21.4C239.9 21.4 237.8 20.5 236.1 18.8C234.3 17 233.5 15 233.5 12.6C233.5 10.2 234.4 8.09997 236.1 6.29997C237.9 4.49997 239.9 3.59998 242.3 3.59998C244.8 3.59998 246.9 4.49997 248.7 6.29997C250.5 8.09997 251.3 10.2 251.3 12.6C251.3 15 250.4 17.1 248.7 18.8C246.9 20.5 244.8 21.4 242.3 21.4ZM235.1 84.4V28.2H249.6V84.4H235.1Z" fill="white"/>
<path d="M315.4 53.7C313.2 53.5 311 53.3 308.9 53.2L306.7 53C305.9 52.9 305.3 52.3 305.3 51.5C305.3 51.4 305.3 51.3 305.3 51.2C305.3 50.4 305.9 49.8 306.7 49.7C306.7 49.7 310.3 49.4 315.4 49C315.3 42.1 313.3 36.7 309.4 32.7C305.4 28.6 300.3 26.5 294.2 26.5C286.6 26.5 281 29.1 277.4 34.4V28.1H262.9V84.3H277.4V54C277.4 49.4 278.5 45.9 280.8 43.5C283 41.2 286 40 289.8 40C293.2 40 295.9 41 297.9 43C299.9 45 300.9 47.9 300.9 51.6V84.3H315.4V53.7Z" fill="white"/>
<rect x="430.4" y="2" width="8.75916" height="130" fill="white"/>
<path d="M484.343 71.344C470.615 71.344 461.591 64.72 457.943 54.736L469.271 48.112C471.671 54.352 476.375 58.384 484.727 58.384C492.695 58.384 495.479 55.024 495.479 51.28C495.479 46.288 490.967 44.368 480.983 41.488C470.711 38.512 460.727 34.192 460.727 21.424C460.727 8.752 471.287 1.456 482.807 1.456C493.847 1.456 502.295 7.12 506.807 16.528L495.671 22.96C493.271 17.872 489.623 14.32 482.807 14.32C477.239 14.32 473.975 17.2 473.975 21.04C473.975 25.168 476.567 27.376 486.743 30.448C497.399 33.808 508.727 37.36 508.727 51.088C508.727 63.664 498.647 71.344 484.343 71.344ZM559.537 70L555.505 57.904H528.721L524.689 70H510.385L533.905 2.8H550.321L573.937 70H559.537ZM532.945 45.52H551.377L542.161 18.064L532.945 45.52ZM619.342 2.8H632.59V70H622.51L593.71 28.912V70H580.462V2.8H590.542L619.342 43.792V2.8ZM709.183 15.472H682.303V31.408H708.415V44.08H682.303V70H669.055V2.8H709.183V15.472ZM755.701 70L742.165 46.672H732.085V70H718.837V2.8H745.717C758.101 2.8 768.085 12.784 768.085 25.072C768.085 33.52 762.805 41.104 755.125 44.656L770.005 70H755.701ZM732.085 15.184V35.056H745.717C750.709 35.056 754.837 30.64 754.837 25.072C754.837 19.504 750.709 15.184 745.717 15.184H732.085ZM821.005 70L816.973 57.904H790.189L786.157 70H771.853L795.373 2.8H811.789L835.405 70H821.005ZM794.413 45.52H812.845L803.629 18.064L794.413 45.52ZM880.81 2.8H894.058V70H883.978L855.178 28.912V70H841.93V2.8H852.01L880.81 43.792V2.8ZM938.396 71.344C918.044 71.344 903.452 55.984 903.452 36.4C903.452 16.72 918.044 1.456 938.396 1.456C950.684 1.456 961.532 7.696 967.292 17.296L955.868 23.92C952.604 17.968 946.076 14.32 938.396 14.32C925.244 14.32 916.604 23.44 916.604 36.4C916.604 49.264 925.244 58.384 938.396 58.384C946.076 58.384 952.7 54.736 955.868 48.88L967.292 55.504C961.628 65.104 950.78 71.344 938.396 71.344ZM975.43 2.8H988.678V70H975.43V2.8ZM1023.03 71.344C1009.3 71.344 1000.28 64.72 996.631 54.736L1007.96 48.112C1010.36 54.352 1015.06 58.384 1023.41 58.384C1031.38 58.384 1034.17 55.024 1034.17 51.28C1034.17 46.288 1029.65 44.368 1019.67 41.488C1009.4 38.512 999.415 34.192 999.415 21.424C999.415 8.752 1009.97 1.456 1021.49 1.456C1032.53 1.456 1040.98 7.12 1045.49 16.528L1034.36 22.96C1031.96 17.872 1028.31 14.32 1021.49 14.32C1015.93 14.32 1012.66 17.2 1012.66 21.04C1012.66 25.168 1015.25 27.376 1025.43 30.448C1036.09 33.808 1047.41 37.36 1047.41 51.088C1047.41 63.664 1037.33 71.344 1023.03 71.344ZM1087.46 71.344C1067.11 71.344 1052.51 55.984 1052.51 36.4C1052.51 16.72 1067.11 1.456 1087.46 1.456C1099.75 1.456 1110.59 7.696 1116.35 17.296L1104.93 23.92C1101.67 17.968 1095.14 14.32 1087.46 14.32C1074.31 14.32 1065.67 23.44 1065.67 36.4C1065.67 49.264 1074.31 58.384 1087.46 58.384C1095.14 58.384 1101.76 54.736 1104.93 48.88L1116.35 55.504C1110.69 65.104 1099.84 71.344 1087.46 71.344ZM1155.61 71.344C1136.22 71.344 1120.76 55.984 1120.76 36.4C1120.76 16.72 1136.22 1.456 1155.61 1.456C1175 1.456 1190.56 16.72 1190.56 36.4C1190.56 55.984 1175 71.344 1155.61 71.344ZM1155.61 58.384C1167.8 58.384 1177.31 49.264 1177.31 36.4C1177.31 23.44 1167.8 14.32 1155.61 14.32C1143.42 14.32 1133.92 23.44 1133.92 36.4C1133.92 49.264 1143.42 58.384 1155.61 58.384Z" fill="white"/>
<path d="M466.999 123.96H486.839V131H459.639V86.2H486.519V93.24H466.999V104.888H484.919V111.864H466.999V123.96ZM508.489 131.832C499.657 131.832 493.577 127.48 491.209 120.824L497.545 117.112C499.145 121.656 502.601 124.664 508.681 124.664C514.505 124.664 517.001 122.04 517.001 118.776C517.001 114.808 513.481 113.464 506.825 111.416C499.849 109.304 493.065 106.744 493.065 98.296C493.065 90.04 499.913 85.368 507.465 85.368C514.825 85.368 520.265 89.272 523.081 95.224L516.873 98.808C515.273 95.224 512.457 92.536 507.465 92.536C503.177 92.536 500.425 94.712 500.425 98.104C500.425 101.56 502.921 103.032 509.449 105.08C516.873 107.448 524.361 109.752 524.361 118.648C524.361 126.84 517.833 131.832 508.489 131.832ZM558.197 86.2V93.24H545.589V131H538.229V93.24H525.557V86.2H558.197ZM589.636 131L586.5 121.976H567.428L564.292 131H556.292L572.548 86.2H581.38L597.572 131H589.636ZM569.86 115.064H584.068L576.964 94.84L569.86 115.064ZM619.989 86.2C632.341 86.2 641.429 96.056 641.429 108.6C641.429 121.08 632.341 131 619.989 131H602.389V86.2H619.989ZM619.989 123.96C628.501 123.96 634.325 117.432 634.325 108.6C634.325 99.704 628.501 93.24 619.989 93.24H609.749V123.96H619.989ZM669.131 131.832C656.203 131.832 645.899 121.592 645.899 108.6C645.899 95.608 656.203 85.368 669.131 85.368C682.123 85.368 692.363 95.608 692.363 108.6C692.363 121.592 682.123 131.832 669.131 131.832ZM669.131 124.664C678.091 124.664 685.003 117.816 685.003 108.6C685.003 99.384 678.091 92.536 669.131 92.536C660.171 92.536 653.259 99.384 653.259 108.6C653.259 117.816 660.171 124.664 669.131 124.664ZM712.301 131.832C703.469 131.832 697.389 127.48 695.021 120.824L701.357 117.112C702.957 121.656 706.413 124.664 712.493 124.664C718.317 124.664 720.813 122.04 720.813 118.776C720.813 114.808 717.293 113.464 710.637 111.416C703.661 109.304 696.877 106.744 696.877 98.296C696.877 90.04 703.725 85.368 711.277 85.368C718.637 85.368 724.077 89.272 726.893 95.224L720.685 98.808C719.085 95.224 716.269 92.536 711.277 92.536C706.989 92.536 704.237 94.712 704.237 98.104C704.237 101.56 706.733 103.032 713.261 105.08C720.685 107.448 728.173 109.752 728.173 118.648C728.173 126.84 721.645 131.832 712.301 131.832ZM767.089 131.832C757.233 131.832 750.129 125.816 750.129 116.152V86.2H757.489V115.704C757.489 120.952 760.497 124.664 767.089 124.664C773.681 124.664 776.689 120.952 776.689 115.704V86.2H784.049V116.152C784.049 125.816 776.881 131.832 767.089 131.832ZM819.394 86.2H826.754V131H820.994L799.874 100.6V131H792.514V86.2H798.274L819.394 116.6V86.2ZM835.702 86.2H843.062V131H835.702V86.2ZM869.614 86.2C881.966 86.2 891.054 96.056 891.054 108.6C891.054 121.08 881.966 131 869.614 131H852.014V86.2H869.614ZM869.614 123.96C878.126 123.96 883.95 117.432 883.95 108.6C883.95 99.704 878.126 93.24 869.614 93.24H859.374V123.96H869.614ZM918.756 131.832C905.828 131.832 895.524 121.592 895.524 108.6C895.524 95.608 905.828 85.368 918.756 85.368C931.748 85.368 941.988 95.608 941.988 108.6C941.988 121.592 931.748 131.832 918.756 131.832ZM918.756 124.664C927.716 124.664 934.628 117.816 934.628 108.6C934.628 99.384 927.716 92.536 918.756 92.536C909.796 92.536 902.884 99.384 902.884 108.6C902.884 117.816 909.796 124.664 918.756 124.664ZM961.926 131.832C953.094 131.832 947.014 127.48 944.646 120.824L950.982 117.112C952.582 121.656 956.038 124.664 962.118 124.664C967.942 124.664 970.438 122.04 970.438 118.776C970.438 114.808 966.918 113.464 960.262 111.416C953.286 109.304 946.502 106.744 946.502 98.296C946.502 90.04 953.35 85.368 960.902 85.368C968.262 85.368 973.702 89.272 976.518 95.224L970.31 98.808C968.71 95.224 965.894 92.536 960.902 92.536C956.614 92.536 953.862 94.712 953.862 98.104C953.862 101.56 956.358 103.032 962.886 105.08C970.31 107.448 977.798 109.752 977.798 118.648C977.798 126.84 971.27 131.832 961.926 131.832Z" fill="white"/>
</svg>
