<svg width="1080" height="134" viewBox="0 0 1080 134" fill="none" xmlns="http://www.w3.org/2000/svg">
<path d="M251.3 93.2H254.2V133.3H251.3V126.6C250.1 128.9 248.4 130.6 246.3 131.9C244.1 133.2 241.7 133.8 239 133.8C234.9 133.8 231.4 132.4 228.5 129.5C225.6 126.6 224.2 123.1 224.2 118.9C224.2 114.7 225.6 111.2 228.5 108.3C231.4 105.4 234.9 104 239 104C241.7 104 244.1 104.7 246.3 105.9C248.5 107.2 250.1 109 251.3 111.2V93.2ZM230.5 127.6C232.9 130 235.7 131.2 239.1 131.2C242.5 131.2 245.4 130 247.7 127.6C250.1 125.2 251.2 122.3 251.2 118.9C251.2 115.5 250 112.6 247.7 110.2C245.3 107.8 242.5 106.6 239.1 106.6C235.7 106.6 232.8 107.8 230.5 110.2C228.1 112.6 227 115.5 227 118.9C227 122.3 228.2 125.3 230.5 127.6Z" fill="#0032A0"/>
<path d="M276.1 133.9C271.9 133.9 268.3 132.5 265.4 129.6C262.5 126.7 261 123.2 261 119C261 114.8 262.5 111.3 265.4 108.4C268.3 105.5 271.9 104.1 276.1 104.1C280.3 104.1 283.8 105.5 286.7 108.4C289.6 111.3 291.1 114.8 291.1 119C291.1 123.2 289.6 126.7 286.7 129.6C283.8 132.5 280.3 133.9 276.1 133.9ZM267.5 127.6C269.9 130 272.7 131.2 276.1 131.2C279.5 131.2 282.4 130 284.7 127.6C287 125.2 288.2 122.3 288.2 118.9C288.2 115.5 287 112.6 284.7 110.2C282.4 107.8 279.5 106.6 276.1 106.6C272.7 106.6 269.8 107.8 267.5 110.2C265.1 112.6 264 115.5 264 118.9C264 122.3 265.1 125.3 267.5 127.6Z" fill="#0032A0"/>
<path d="M343.9 104C347 104 349.6 105 351.5 106.9C353.4 108.8 354.4 111.6 354.4 115.1V133.3H351.5V115.1C351.5 112.4 350.8 110.4 349.4 108.9C348 107.4 346.2 106.7 343.9 106.7C341.3 106.7 339.3 107.6 337.7 109.3C336.1 111.1 335.3 113.7 335.3 117.2V133.2H332.4V115C332.4 112.3 331.7 110.3 330.4 108.8C329.1 107.3 327.3 106.6 325 106.6C322.5 106.6 320.4 107.5 318.7 109.3C317 111.1 316.1 113.7 316.1 117.2V133.2H313.2V104.5H316.1V109.4C318.1 105.7 321.2 103.8 325.3 103.8C327.4 103.8 329.2 104.3 330.8 105.3C332.4 106.3 333.5 107.8 334.2 109.6C335.2 107.7 336.5 106.2 338.2 105.2C340.1 104.5 342 104 343.9 104Z" fill="#0032A0"/>
<path d="M375.4 104C379.6 104 383 105.5 385.6 108.5C388.2 111.5 389.5 115 389.5 119.1C389.5 119.3 389.5 119.5 389.5 119.8C389.5 120.1 389.5 120.3 389.5 120.5H363.5C363.8 123.7 365.1 126.3 367.4 128.3C369.7 130.3 372.4 131.3 375.7 131.3C378 131.3 380 130.8 381.7 129.9C383.4 128.9 384.7 127.7 385.6 126.1L388.1 127.6C386.9 129.6 385.2 131.2 383.1 132.3C380.9 133.5 378.4 134 375.6 134C371.2 134 367.6 132.6 364.8 129.8C362 127 360.6 123.4 360.6 119.1C360.6 114.8 362 111.3 364.8 108.4C367.4 105.4 371 104 375.4 104ZM375.4 106.8C372.2 106.8 369.4 107.8 367.3 109.8C365.2 111.8 363.9 114.4 363.6 117.7H386.6C386.3 114.3 385.1 111.6 383 109.7C380.8 107.7 378.3 106.8 375.4 106.8ZM375 95.1L370.4 100.6H367.1L373.3 93.3L376.6 93.4L382.9 100.8L379.6 100.6L375 95.1Z" fill="#0032A0"/>
<path d="M397 112.1C397 113.5 397.6 114.6 398.8 115.4C400 116.2 401.4 116.8 403.1 117.3C404.8 117.7 406.5 118.2 408.2 118.6C409.9 119.1 411.4 119.9 412.5 121.1C413.7 122.3 414.3 123.9 414.3 125.9C414.3 128.3 413.4 130.2 411.5 131.7C409.6 133.2 407.1 134 404.1 134C401.3 134 399 133.4 397.1 132.3C395.2 131.1 393.9 129.6 393.2 127.7L395.7 126.3C396.2 127.9 397.2 129.1 398.7 130C400.2 130.9 402 131.3 404.1 131.3C406.2 131.3 408 130.8 409.4 129.9C410.8 129 411.5 127.6 411.5 125.9C411.5 124.5 410.9 123.4 409.7 122.5C408.5 121.7 407.1 121 405.4 120.6C403.7 120.2 402 119.7 400.3 119.2C398.6 118.7 397.1 117.9 395.9 116.8C394.7 115.7 394.1 114.1 394.1 112.2C394.1 109.9 395 108 396.8 106.4C398.6 104.8 401 104 403.8 104C406.1 104 408.1 104.5 409.8 105.5C411.5 106.5 412.8 107.9 413.6 109.7L411.2 111.1C410.6 109.7 409.7 108.6 408.3 107.9C407 107.2 405.5 106.8 403.8 106.8C401.9 106.8 400.2 107.3 398.9 108.2C397.7 109.2 397 110.5 397 112.1Z" fill="#0032A0"/>
<path d="M31.3 5.69998C42.1 5.69998 51.1 9.49998 58.4 17.1C65.6 24.7 69.3 34 69.3 45.1C69.3 56.2 65.7 65.5 58.4 73.1C51.2 80.7 42.1 84.5 31.3 84.5H0V5.79999H31.3V5.69998ZM31.3 69.6C38.1 69.6 43.7 67.3 47.9 62.8C52.2 58.3 54.3 52.4 54.3 45.1C54.3 37.8 52.2 31.9 47.9 27.4C43.6 22.9 38.1 20.6 31.3 20.6H15.5V69.6H31.3Z" fill="#0032A0"/>
<path d="M91.8002 62.3C93.7002 69.4 99.0002 72.9 107.7 72.9C113.2 72.9 117.4 71 120.3 67.3L132 74C126.4 82 118.3 86 107.5 86C98.2002 86 90.7002 83.2 85.1002 77.6C79.5002 72 76.7002 64.9 76.7002 56.3C76.7002 47.8 79.5002 40.8 85.0002 35.1C90.5002 29.4 97.7002 26.6 106.4 26.6C114.6 26.6 121.5 29.5 126.8 35.1C132.2 40.8 134.8 47.9 134.8 56.2C134.8 58.1 134.6 60.1 134.2 62.2H91.8002V62.3ZM91.6002 51H120.3C119.5 47.2 117.8 44.3 115.2 42.5C112.6 40.6 109.7 39.7 106.4 39.7C102.5 39.7 99.3002 40.7 96.7002 42.7C94.1002 44.6 92.4002 47.4 91.6002 51Z" fill="#0032A0"/>
<path d="M156 44.2C156 45.7 157 46.9 159 47.9C161 48.8 163.4 49.7 166.3 50.4C169.1 51.1 172 52 174.8 53.1C177.6 54.2 180.1 56 182.1 58.6C184.1 61.2 185.1 64.3 185.1 68.2C185.1 74 182.9 78.4 178.6 81.5C174.3 84.6 168.9 86.2 162.5 86.2C151 86.2 143.1 81.7 138.9 72.8L151.5 65.7C153.1 70.6 156.8 73 162.5 73C167.7 73 170.3 71.4 170.3 68.2C170.3 66.7 169.3 65.5 167.3 64.5C165.3 63.6 162.9 62.7 160 62C157.1 61.3 154.3 60.3 151.5 59.2C148.6 58.1 146.2 56.3 144.2 53.9C142.2 51.5 141.2 48.4 141.2 44.7C141.2 39.2 143.2 34.8 147.3 31.6C151.4 28.4 156.5 26.8 162.5 26.8C167.1 26.8 171.2 27.8 175 29.9C178.7 32 181.7 34.9 183.9 38.7L171.5 45.4C169.7 41.6 166.7 39.7 162.5 39.7C160.6 39.7 159.1 40.1 157.8 40.9C156.6 41.6 156 42.7 156 44.2Z" fill="#0032A0"/>
<path d="M224.9 42.1H212.2V65.5C212.2 67.5 212.7 68.9 213.7 69.8C214.7 70.7 216.1 71.2 218 71.3C219.9 71.4 222.2 71.4 225 71.2V84.4C215 85.5 208 84.6 203.9 81.6C199.8 78.6 197.8 73.2 197.8 65.5V42.1H188V28.2H197.8V16.8L212.3 12.4V28.1H225V42.1H224.9Z" fill="#0032A0"/>
<path d="M242.3 21.4C239.9 21.4 237.8 20.5 236.1 18.8C234.3 17 233.5 15 233.5 12.6C233.5 10.2 234.4 8.09999 236.1 6.29999C237.9 4.49999 239.9 3.59998 242.3 3.59998C244.8 3.59998 246.9 4.49999 248.7 6.29999C250.5 8.09999 251.3 10.2 251.3 12.6C251.3 15 250.4 17.1 248.7 18.8C246.9 20.6 244.8 21.4 242.3 21.4ZM235.1 84.4V28.2H249.6V84.4H235.1Z" fill="#0032A0"/>
<path d="M409.9 51.3C395.5 50.1 381.1 48.9 366.5 47.7C369.2 43.6 371.8 39.6 374.4 35.6C374.3 35.5 374.2 35.5 374.2 35.4C370.3 38 366.3 40.6 362.2 43.3C361 28.7 359.8 14.3 358.5 0C358.4 0 358.3 0 358.2 0C357 14.4 355.8 28.7 354.5 43.3C350.3 40.6 346.4 38 342.4 35.4C342.3 35.5 342.3 35.5 342.2 35.6C344.8 39.6 347.4 43.5 350.1 47.6C335.5 48.8 321 50 306.6 51.3C306.6 51.4 306.6 51.5 306.6 51.6C321 52.8 335.4 54 350.1 55.3C347.4 59.4 344.8 63.4 342.2 67.4C342.3 67.5 342.4 67.5 342.4 67.6C346.4 65 350.3 62.4 354.4 59.7C355.6 74.3 356.8 88.7 358.1 103C358.2 103 358.3 103 358.4 103C359.6 88.6 360.8 74.3 362 59.7C366.2 62.4 370.1 65 374 67.6L374.2 67.4C371.6 63.5 369 59.5 366.3 55.4C380.9 54.2 395.3 53 409.7 51.8V51.3H409.9ZM358.4 56.4C355.6 56.4 353.4 54.2 353.4 51.4C353.4 48.6 355.6 46.4 358.4 46.4C361.2 46.4 363.4 48.6 363.4 51.4C363.4 54.3 361.3 56.4 358.4 56.4Z" fill="#0032A0"/>
<path d="M354.1 81.5C341.3 80.2 329.6 68.8 328.3 55.7C329.4 55.8 330.3 55.9 331.3 55.9C332.1 55.9 332.4 56.2 332.5 57C333.8 63.2 337 68.2 341.9 72.1C345.1 74.7 348.7 76.4 352.8 77.2C353.5 77.4 353.9 77.6 353.9 78.4C353.9 79.5 354.1 80.5 354.1 81.5Z" fill="#3FA9F5"/>
<path d="M354.2 21.3C354.1 22.5 354.1 23.7 353.9 24.7C353.8 25 353.3 25.4 352.9 25.5C347.9 26.6 343.5 29 339.9 32.6C336.2 36.3 333.8 40.6 332.7 45.7C332.5 46.6 332.1 46.9 331.2 46.9C330.3 46.9 329.5 47 328.6 47.1C328.6 47.1 328.5 47.1 328.5 47C329.5 34.6 340.7 22.8 354.2 21.3Z" fill="#3FA9F5"/>
<path d="M388.5 47.2C387.3 47.1 386 47 384.8 46.8C384.6 46.8 384.3 46.2 384.2 45.9C383.1 40.7 380.6 36.2 376.8 32.5C373.2 29 369 26.6 364 25.6C363.1 25.4 362.7 25 362.8 24.1C362.8 23.2 362.7 22.3 362.6 21.3C375 22.5 387.1 33.5 388.5 47.2Z" fill="#3FA9F5"/>
<path d="M388.6 55.7C387.8 61.6 385.5 66.7 381.7 71.2C376.7 77 370.4 80.5 362.7 81.7C362.8 80.4 362.8 79.2 363 78.1C363.1 77.8 363.6 77.4 364 77.3C369.1 76.2 373.5 73.7 377.2 70C380.9 66.3 383.2 61.9 384.3 56.8C384.4 56.1 384.7 55.9 385.4 55.8C386.4 55.9 387.4 55.8 388.6 55.7Z" fill="#3FA9F5"/>
<path d="M362 51.4C362 53.3 360.4 55 358.5 55C356.6 55 354.9 53.4 354.9 51.5C354.9 51 355 50.5 355.2 50.1C355.3 49.9 355.4 49.7 355.5 49.5C356.1 48.6 357.2 47.9 358.4 47.9C359.4 47.9 360.3 48.3 360.9 48.9C361 49 361.1 49.1 361.1 49.1C361.7 49.8 362 50.6 362 51.4Z" fill="#3FA9F5"/>
<path d="M315.4 53.8C313.2 53.6 311 53.4 308.9 53.3L306.7 53.1C305.9 53 305.3 52.4 305.3 51.6C305.3 51.5 305.3 51.4 305.3 51.3C305.3 50.5 305.9 49.9 306.7 49.8C306.7 49.8 310.3 49.5 315.4 49.1C315.3 42.2 313.3 36.8 309.4 32.8C305.4 28.7 300.3 26.6 294.2 26.6C286.6 26.6 281 29.2 277.4 34.5V28.2H262.9V84.4H277.4V54C277.4 49.4 278.5 45.9 280.8 43.5C283 41.2 286 40 289.8 40C293.2 40 295.9 41 297.9 43C299.9 45 300.9 47.9 300.9 51.6V84.3H315.4V53.8Z" fill="#0032A0"/>
<rect x="430.3" y="2" width="8.75916" height="130" fill="#47ABEE"/>
<path d="M479.683 65.634C468.1 65.634 460.486 60.045 457.408 51.621L466.966 46.032C468.991 51.297 472.96 54.699 480.007 54.699C486.73 54.699 489.079 51.864 489.079 48.705C489.079 44.493 485.272 42.873 476.848 40.443C468.181 37.932 459.757 34.287 459.757 23.514C459.757 12.822 468.667 6.666 478.387 6.666C487.702 6.666 494.83 11.445 498.637 19.383L489.241 24.81C487.216 20.517 484.138 17.52 478.387 17.52C473.689 17.52 470.935 19.95 470.935 23.19C470.935 26.673 473.122 28.536 481.708 31.128C490.699 33.963 500.257 36.96 500.257 48.543C500.257 59.154 491.752 65.634 479.683 65.634ZM543.128 64.5L539.726 54.294H517.127L513.725 64.5H501.656L521.501 7.8H535.352L555.278 64.5H543.128ZM520.691 43.845H536.243L528.467 20.679L520.691 43.845ZM593.588 7.8H604.766V64.5H596.261L571.961 29.832V64.5H560.783V7.8H569.288L593.588 42.387V7.8ZM669.392 18.492H646.712V31.938H668.744V42.63H646.712V64.5H635.534V7.8H669.392V18.492ZM708.641 64.5L697.22 44.817H688.715V64.5H677.537V7.8H700.217C710.666 7.8 719.09 16.224 719.09 26.592C719.09 33.72 714.635 40.119 708.155 43.116L720.71 64.5H708.641ZM688.715 18.249V35.016H700.217C704.429 35.016 707.912 31.29 707.912 26.592C707.912 21.894 704.429 18.249 700.217 18.249H688.715ZM763.742 64.5L760.34 54.294H737.741L734.339 64.5H722.27L742.115 7.8H755.966L775.892 64.5H763.742ZM741.305 43.845H756.857L749.081 20.679L741.305 43.845ZM814.202 7.8H825.38V64.5H816.875L792.575 29.832V64.5H781.397V7.8H789.902L814.202 42.387V7.8ZM862.79 65.634C845.618 65.634 833.306 52.674 833.306 36.15C833.306 19.545 845.618 6.666 862.79 6.666C873.158 6.666 882.311 11.931 887.171 20.031L877.532 25.62C874.778 20.598 869.27 17.52 862.79 17.52C851.693 17.52 844.403 25.215 844.403 36.15C844.403 47.004 851.693 54.699 862.79 54.699C869.27 54.699 874.859 51.621 877.532 46.68L887.171 52.269C882.392 60.369 873.239 65.634 862.79 65.634ZM894.038 7.8H905.216V64.5H894.038V7.8ZM934.201 65.634C922.618 65.634 915.004 60.045 911.926 51.621L921.484 46.032C923.509 51.297 927.478 54.699 934.525 54.699C941.248 54.699 943.597 51.864 943.597 48.705C943.597 44.493 939.79 42.873 931.366 40.443C922.699 37.932 914.275 34.287 914.275 23.514C914.275 12.822 923.185 6.666 932.905 6.666C942.22 6.666 949.348 11.445 953.155 19.383L943.759 24.81C941.734 20.517 938.656 17.52 932.905 17.52C928.207 17.52 925.453 19.95 925.453 23.19C925.453 26.673 927.64 28.536 936.226 31.128C945.217 33.963 954.775 36.96 954.775 48.543C954.775 59.154 946.27 65.634 934.201 65.634ZM988.562 65.634C971.39 65.634 959.078 52.674 959.078 36.15C959.078 19.545 971.39 6.666 988.562 6.666C998.93 6.666 1008.08 11.931 1012.94 20.031L1003.3 25.62C1000.55 20.598 995.042 17.52 988.562 17.52C977.465 17.52 970.175 25.215 970.175 36.15C970.175 47.004 977.465 54.699 988.562 54.699C995.042 54.699 1000.63 51.621 1003.3 46.68L1012.94 52.269C1008.16 60.369 999.011 65.634 988.562 65.634ZM1046.07 65.634C1029.7 65.634 1016.66 52.674 1016.66 36.15C1016.66 19.545 1029.7 6.666 1046.07 6.666C1062.43 6.666 1075.55 19.545 1075.55 36.15C1075.55 52.674 1062.43 65.634 1046.07 65.634ZM1046.07 54.699C1056.35 54.699 1064.37 47.004 1064.37 36.15C1064.37 25.215 1056.35 17.52 1046.07 17.52C1035.78 17.52 1027.76 25.215 1027.76 36.15C1027.76 47.004 1035.78 54.699 1046.07 54.699Z" fill="#0032A0"/>
<path d="M467.084 119.35H487.234V126.5H459.609V81H486.909V88.15H467.084V99.98H485.284V107.065H467.084V119.35ZM509.222 127.345C500.252 127.345 494.077 122.925 491.672 116.165L498.107 112.395C499.732 117.01 503.242 120.065 509.417 120.065C515.332 120.065 517.867 117.4 517.867 114.085C517.867 110.055 514.292 108.69 507.532 106.61C500.447 104.465 493.557 101.865 493.557 93.285C493.557 84.9 500.512 80.155 508.182 80.155C515.657 80.155 521.182 84.12 524.042 90.165L517.737 93.805C516.112 90.165 513.252 87.435 508.182 87.435C503.827 87.435 501.032 89.645 501.032 93.09C501.032 96.6 503.567 98.095 510.197 100.175C517.737 102.58 525.342 104.92 525.342 113.955C525.342 122.275 518.712 127.345 509.222 127.345ZM559.707 81V88.15H546.902V126.5H539.427V88.15H526.557V81H559.707ZM591.637 126.5L588.452 117.335H569.082L565.897 126.5H557.772L574.282 81H583.252L599.697 126.5H591.637ZM571.552 110.315H585.982L578.767 89.775L571.552 110.315ZM622.465 81C635.01 81 644.24 91.01 644.24 103.75C644.24 116.425 635.01 126.5 622.465 126.5H604.59V81H622.465ZM622.465 119.35C631.11 119.35 637.025 112.72 637.025 103.75C637.025 94.715 631.11 88.15 622.465 88.15H612.065V119.35H622.465ZM672.374 127.345C659.244 127.345 648.779 116.945 648.779 103.75C648.779 90.555 659.244 80.155 672.374 80.155C685.569 80.155 695.969 90.555 695.969 103.75C695.969 116.945 685.569 127.345 672.374 127.345ZM672.374 120.065C681.474 120.065 688.494 113.11 688.494 103.75C688.494 94.39 681.474 87.435 672.374 87.435C663.274 87.435 656.254 94.39 656.254 103.75C656.254 113.11 663.274 120.065 672.374 120.065ZM716.219 127.345C707.249 127.345 701.074 122.925 698.669 116.165L705.104 112.395C706.729 117.01 710.239 120.065 716.414 120.065C722.329 120.065 724.864 117.4 724.864 114.085C724.864 110.055 721.289 108.69 714.529 106.61C707.444 104.465 700.554 101.865 700.554 93.285C700.554 84.9 707.509 80.155 715.179 80.155C722.654 80.155 728.179 84.12 731.039 90.165L724.734 93.805C723.109 90.165 720.249 87.435 715.179 87.435C710.824 87.435 708.029 89.645 708.029 93.09C708.029 96.6 710.564 98.095 717.194 100.175C724.734 102.58 732.339 104.92 732.339 113.955C732.339 122.275 725.709 127.345 716.219 127.345ZM771.862 127.345C761.852 127.345 754.637 121.235 754.637 111.42V81H762.112V110.965C762.112 116.295 765.167 120.065 771.862 120.065C778.557 120.065 781.612 116.295 781.612 110.965V81H789.087V111.42C789.087 121.235 781.807 127.345 771.862 127.345ZM824.985 81H832.46V126.5H826.61L805.16 95.625V126.5H797.685V81H803.535L824.985 111.875V81ZM841.548 81H849.023V126.5H841.548V81ZM875.99 81C888.535 81 897.765 91.01 897.765 103.75C897.765 116.425 888.535 126.5 875.99 126.5H858.115V81H875.99ZM875.99 119.35C884.635 119.35 890.55 112.72 890.55 103.75C890.55 94.715 884.635 88.15 875.99 88.15H865.59V119.35H875.99ZM925.9 127.345C912.77 127.345 902.305 116.945 902.305 103.75C902.305 90.555 912.77 80.155 925.9 80.155C939.095 80.155 949.495 90.555 949.495 103.75C949.495 116.945 939.095 127.345 925.9 127.345ZM925.9 120.065C935 120.065 942.02 113.11 942.02 103.75C942.02 94.39 935 87.435 925.9 87.435C916.8 87.435 909.78 94.39 909.78 103.75C909.78 113.11 916.8 120.065 925.9 120.065ZM969.744 127.345C960.774 127.345 954.599 122.925 952.194 116.165L958.629 112.395C960.254 117.01 963.764 120.065 969.939 120.065C975.854 120.065 978.389 117.4 978.389 114.085C978.389 110.055 974.814 108.69 968.054 106.61C960.969 104.465 954.079 101.865 954.079 93.285C954.079 84.9 961.034 80.155 968.704 80.155C976.179 80.155 981.704 84.12 984.564 90.165L978.259 93.805C976.634 90.165 973.774 87.435 968.704 87.435C964.349 87.435 961.554 89.645 961.554 93.09C961.554 96.6 964.089 98.095 970.719 100.175C978.259 102.58 985.864 104.92 985.864 113.955C985.864 122.275 979.234 127.345 969.744 127.345Z" fill="#47ABEE"/>
</svg>
