<svg width="1163" height="134" viewBox="0 0 1163 134" fill="none" xmlns="http://www.w3.org/2000/svg">
<path d="M279.1 133.9C274.9 133.9 271.3 132.5 268.4 129.6C265.5 126.7 264 123.2 264 119C264 114.8 265.5 111.3 268.4 108.4C271.3 105.5 274.9 104.1 279.1 104.1C283.3 104.1 286.8 105.5 289.7 108.4C292.6 111.3 294.1 114.8 294.1 119C294.1 123.2 292.6 126.7 289.7 129.6C286.8 132.5 283.3 133.9 279.1 133.9ZM270.5 127.6C272.9 130 275.7 131.2 279.1 131.2C282.5 131.2 285.4 130 287.7 127.6C290 125.2 291.2 122.3 291.2 118.9C291.2 115.5 290 112.6 287.7 110.2C285.4 107.8 282.5 106.6 279.1 106.6C275.7 106.6 272.8 107.8 270.5 110.2C268.1 112.6 267 115.5 267 118.9C267 122.3 268.1 125.2 270.5 127.6Z" fill="#0032A0"/>
<path d="M313.4 95.3C307.7 94.8 304.9 97.4 304.9 103.1V104.6H313.4V107.4H304.9V133.3H302V107.4H297V104.6H301.9V103.1C301.9 99.5 302.9 96.8 304.9 94.9C306.9 93 309.7 92.3 313.4 92.5V95.3Z" fill="#0032A0"/>
<path d="M347.8 107.4H339.3V126.1C339.3 127.7 339.6 128.9 340.2 129.7C340.8 130.4 341.7 130.8 343 130.9C344.3 131 345.9 130.9 347.8 130.8V133.4C343.9 134 341.1 133.7 339.2 132.6C337.3 131.5 336.4 129.4 336.4 126.2V107.6H330V104.8H336.3V97.5999L339.2 96.7V104.7H347.7V107.4H347.8Z" fill="#0032A0"/>
<path d="M367.8 104C371.2 104 373.9 105 375.9 107.1C377.9 109.2 378.9 112 378.9 115.4V133.2H376V115.4C376 112.7 375.3 110.6 373.8 109C372.3 107.4 370.3 106.6 367.6 106.6C364.7 106.6 362.2 107.6 360.4 109.5C358.5 111.4 357.6 114.3 357.6 118V133.1H354.7V93H357.6V110.1C359.6 106 363 104 367.8 104Z" fill="#0032A0"/>
<path d="M399.9 104C404.1 104 407.5 105.5 410.1 108.5C412.7 111.5 414 115 414 119.1C414 119.3 414 119.5 414 119.8C414 120.1 414 120.3 414 120.5H388C388.3 123.7 389.6 126.3 391.9 128.3C394.1 130.3 396.9 131.3 400.2 131.3C402.5 131.3 404.5 130.8 406.2 129.9C407.9 128.9 409.2 127.7 410.1 126.1L412.6 127.6C411.4 129.6 409.7 131.2 407.6 132.3C405.4 133.5 402.9 134 400.1 134C395.7 134 392.1 132.6 389.3 129.8C386.5 127 385.1 123.4 385.1 119.1C385.1 114.8 386.5 111.3 389.3 108.4C392 105.4 395.5 104 399.9 104ZM399.9 106.8C396.7 106.8 393.9 107.8 391.8 109.8C389.7 111.8 388.4 114.4 388.1 117.7H411.1C410.8 114.3 409.6 111.6 407.5 109.7C405.3 107.7 402.8 106.8 399.9 106.8Z" fill="#0032A0"/>
<path d="M466.7 104C469.8 104 472.4 105 474.3 106.9C476.2 108.8 477.2 111.6 477.2 115.1V133.3H474.3V115.1C474.3 112.4 473.6 110.4 472.2 108.9C470.8 107.4 469 106.7 466.7 106.7C464.1 106.7 462.1 107.6 460.5 109.3C458.9 111 458.1 113.7 458.1 117.2V133.2H455.2V115.1C455.2 112.4 454.5 110.4 453.2 108.9C451.9 107.4 450.1 106.7 447.8 106.7C445.3 106.7 443.2 107.6 441.5 109.4C439.8 111.2 438.9 113.8 438.9 117.3V133.3H436V104.6H438.9V109.5C440.9 105.8 444 103.9 448.1 103.9C450.2 103.9 452 104.4 453.6 105.4C455.2 106.4 456.3 107.9 457 109.7C458 107.8 459.3 106.3 461 105.3C462.7 104.3 464.7 104 466.7 104Z" fill="#0032A0"/>
<path d="M498.3 133.9C494.1 133.9 490.5 132.5 487.6 129.6C484.7 126.7 483.2 123.2 483.2 119C483.2 114.8 484.7 111.3 487.6 108.4C490.5 105.5 494.1 104.1 498.3 104.1C502.5 104.1 506 105.5 508.9 108.4C511.8 111.3 513.3 114.8 513.3 119C513.3 123.2 511.8 126.7 508.9 129.6C506 132.5 502.5 133.9 498.3 133.9ZM489.7 127.6C492 130 494.9 131.2 498.3 131.2C501.7 131.2 504.6 130 506.9 127.6C509.2 125.2 510.4 122.3 510.4 118.9C510.4 115.5 509.2 112.6 506.9 110.2C504.6 107.8 501.7 106.6 498.3 106.6C494.9 106.6 492 107.8 489.7 110.2C487.3 112.6 486.2 115.5 486.2 118.9C486.2 122.3 487.3 125.2 489.7 127.6Z" fill="#0032A0"/>
<path d="M533.4 104C536.8 104 539.5 105 541.5 107.1C543.5 109.2 544.5 112 544.5 115.4V133.2H541.6V115.4C541.6 112.7 540.9 110.6 539.4 109C537.9 107.4 535.9 106.6 533.2 106.6C530.3 106.6 527.8 107.6 526 109.5C524.1 111.4 523.2 114.3 523.2 118V133.1H520.3V104.4H523.2V109.8C525.2 106 528.6 104 533.4 104Z" fill="#0032A0"/>
<path d="M567.2 107.4H558.7V126.1C558.7 127.7 559 128.9 559.6 129.7C560.2 130.4 561.1 130.8 562.4 130.9C563.7 131 565.3 130.9 567.2 130.8V133.4C563.3 134 560.5 133.7 558.6 132.6C556.7 131.5 555.8 129.4 555.8 126.2V107.6H549.5V104.8H555.8V97.5999L558.7 96.7V104.7H567.2V107.4Z" fill="#0032A0"/>
<path d="M587.2 104C590.6 104 593.3 105 595.3 107.1C597.3 109.2 598.3 112 598.3 115.4V133.2H595.4V115.4C595.4 112.7 594.7 110.6 593.2 109C591.7 107.4 589.7 106.6 587 106.6C584.1 106.6 581.6 107.6 579.8 109.5C577.9 111.4 577 114.3 577 118V133.1H574.1V93H577V110.1C579 106 582.5 104 587.2 104Z" fill="#0032A0"/>
<path d="M69.2 45.0999C69.2 67.2999 53 84.4999 31.3 84.4999H0V5.69995H31.3C53 5.69995 69.2 22.8999 69.2 45.0999ZM54.3 45.0999C54.3 30.5999 44.8 20.5999 31.2 20.5999H15.5V69.7H31.3C44.9 69.6 54.3 59.5999 54.3 45.0999Z" fill="#0032A0"/>
<path d="M107.7 72.8999C113.3 72.8999 117.8 70.5 120.3 67.3L132 74.0999C126.7 81.7999 118.3 86.0999 107.5 86.0999C88.6002 86.0999 76.7002 73.1999 76.7002 56.3999C76.7002 39.5999 88.7002 26.7 106.4 26.7C123.1 26.7 134.9 39.8999 134.9 56.3999C134.9 58.4999 134.7 60.4999 134.3 62.3999H91.8002C93.8002 69.6999 100 72.8999 107.7 72.8999ZM120.3 50.9999C118.5 42.8999 112.4 39.5999 106.3 39.5999C98.5002 39.5999 93.2002 43.7999 91.6002 50.9999H120.3Z" fill="#0032A0"/>
<path d="M185.1 68C185.1 80.2 174.5 86 162.5 86C151.2 86 142.9 81.3 138.9 72.6L151.5 65.5C153.1 70.1 156.9 72.8 162.5 72.8C167.1 72.8 170.3 71.2 170.3 68C170.3 59.8 141.3 64.3 141.3 44.5C141.3 33 151.1 26.6 162.7 26.6C171.8 26.6 179.7 30.8 184.1 38.5L171.7 45.3C170 41.7 166.9 39.6 162.7 39.6C159.1 39.6 156.2 41.2 156.2 44.2C156.1 52.5 185.1 47.3 185.1 68Z" fill="#0032A0"/>
<path d="M212.2 42.1V65.5C212.2 71.6 216.6 71.7 224.9 71.2V84.4C204.5 86.7 197.7 80.7 197.7 65.5V42.1H187.9V28.1H197.7V16.7L212.2 12.3V28.1H224.9V42.1H212.2Z" fill="#0032A0"/>
<path d="M233.5 12.5C233.5 7.7 237.6 3.5 242.4 3.5C247.4 3.5 251.4 7.7 251.4 12.5C251.4 17.3 247.3 21.4 242.4 21.4C237.5 21.4 233.5 17.4 233.5 12.5ZM235.2 28.2H249.7V84.5H235.2V28.2Z" fill="#0032A0"/>
<path d="M315.5 49.9V84.4H301V51.7C301 44 296.4 40.1 289.9 40.1C282.8 40.1 277.5 44.3 277.5 54.1V84.5H263V28.2H277.5V34.5C280.9 29.4 286.7 26.6 294.3 26.6C306.2 26.6 315.5 34.9 315.5 49.9Z" fill="#0032A0"/>
<path d="M385.2 28.2V84.4999H370.7V77.8999C366.6 82.9999 360.6 86.0999 352.4 86.0999C337.4 86.0999 325.1 73.1999 325.1 56.3999C325.1 39.5999 337.5 26.7 352.4 26.7C360.6 26.7 366.7 29.8999 370.7 34.8999V28.3H385.2V28.2ZM370.7 56.3C370.7 46.8 364.1 40.3999 355.1 40.3999C346.2 40.3999 339.6 46.8 339.6 56.3C339.6 65.8 346.2 72.2 355.1 72.2C364 72.2 370.7 65.8 370.7 56.3Z" fill="#0032A0"/>
<path d="M417.8 42.1V65.5C417.8 71.6 422.2 71.7 430.5 71.2V84.4C410.1 86.7 403.3 80.7 403.3 65.5V42.1H393.5V28.1H403.3V16.7L417.8 12.3V28.1H430.5V42.1H417.8Z" fill="#0032A0"/>
<path d="M549.8 51.3C535.4 50.1 521 48.9 506.4 47.7C509.1 43.6 511.7 39.6 514.3 35.6C514.2 35.5 514.1 35.5 514.1 35.4C510.2 38 506.2 40.6 502.1 43.3C500.9 28.7 499.7 14.3 498.4 0C498.3 0 498.2 0 498.1 0C496.9 14.4 495.7 28.7 494.4 43.3C490.2 40.6 486.3 38 482.3 35.4C482.2 35.5 482.2 35.5 482.1 35.6C484.7 39.6 487.3 43.5 490 47.6C475.4 48.8 460.9 50 446.5 51.3C446.5 51.4 446.5 51.5 446.5 51.6C460.9 52.8 475.3 54 490 55.3C487.3 59.4 484.7 63.4 482.1 67.4C482.2 67.5 482.3 67.5 482.3 67.6C486.3 65 490.2 62.4 494.3 59.7C495.5 74.3 496.7 88.7 498 103C498.1 103 498.2 103 498.3 103C499.5 88.6 500.7 74.3 501.9 59.7C506.1 62.4 510 65 513.9 67.6L514.1 67.4C511.5 63.5 508.9 59.5 506.2 55.4C520.8 54.2 535.2 53 549.6 51.8V51.3H549.8ZM498.2 56.4C495.4 56.4 493.2 54.2 493.2 51.4C493.2 48.6 495.4 46.4 498.2 46.4C501 46.4 503.2 48.6 503.2 51.4C503.3 54.2 501.1 56.4 498.2 56.4Z" fill="#0032A0"/>
<path d="M494 81.4999C481.2 80.1999 469.5 68.8 468.2 55.7C469.3 55.8 470.2 55.8999 471.2 55.8999C472 55.8999 472.3 56.1999 472.4 56.9999C473.7 63.1999 476.9 68.1999 481.8 72.0999C485 74.6999 488.6 76.4 492.7 77.2C493.4 77.4 493.8 77.5999 493.8 78.3999C493.8 79.4999 493.9 80.4999 494 81.4999Z" fill="white"/>
<path d="M494 21.3C493.9 22.5 493.9 23.7 493.7 24.7C493.6 25 493.1 25.4 492.7 25.5C487.7 26.6 483.3 29 479.7 32.6C476 36.3 473.6 40.6 472.5 45.7C472.3 46.6 471.9 46.9 471 46.9C470.1 46.9 469.3 47 468.4 47.1C468.4 47.1 468.3 47.1 468.3 47C469.4 34.6 480.6 22.8 494 21.3Z" fill="white"/>
<path d="M528.4 47.0999C527.2 46.9999 525.9 46.9 524.7 46.7C524.5 46.7 524.2 46.1 524.1 45.8C523 40.6 520.5 36.0999 516.7 32.3999C513.1 28.8999 508.9 26.4999 503.9 25.4999C503 25.2999 502.6 24.8999 502.7 23.9999C502.7 23.0999 502.6 22.2 502.5 21.2C514.9 22.5 526.9 33.4999 528.4 47.0999Z" fill="white"/>
<path d="M528.5 55.7C527.7 61.6 525.4 66.7 521.6 71.2C516.6 77 510.3 80.5 502.6 81.7C502.7 80.4 502.7 79.1999 502.9 78.0999C503 77.7999 503.5 77.4 503.9 77.3C509 76.2 513.4 73.6999 517.1 69.9999C520.8 66.2999 523.1 61.9 524.2 56.8C524.3 56.1 524.6 55.9 525.3 55.8C526.3 55.9 527.3 55.8 528.5 55.7Z" fill="white"/>
<path d="M501.9 51.4C501.9 53.3 500.3 55 498.4 55C496.5 55 494.8 53.4 494.8 51.5C494.8 51 494.9 50.5 495.1 50.1C495.2 49.9 495.3 49.7 495.4 49.5C496 48.6 497.1 47.9 498.3 47.9C499.3 47.9 500.2 48.3 500.8 48.9C500.9 49 501 49.1 501 49.1C501.5 49.7 501.8 50.5 501.9 51.4Z" fill="white"/>
<path d="M572.7 26.6C565.2 26.6 559.3 29.4 555.9 34.5V28.2H541.4V49.1C544.2 49.3 547 49.6 549.8 49.8C550.6 49.9 551.2 50.5 551.2 51.3V51.6C551.2 52.4 550.6 53 549.8 53.1L541.4 53.8V84.5H556V54.1C556 44.3 561.3 40.1 568.4 40.1C574.9 40.1 579.5 44 579.5 51.7V84.4H594V49.9C594 34.9 584.7 26.6 572.7 26.6Z" fill="#0032A0"/>
<path d="M448 21.4C453 21.4 457 17.3 457 12.5C457 7.7 452.9 3.5 448 3.5C443.2 3.5 439.1 7.7 439.1 12.5C439.1 17.3 443.1 21.4 448 21.4Z" fill="#0032A0"/>
<path d="M448.7 53.2L446.5 53C445.7 52.9 445.1 52.3 445.1 51.5C445.1 51.4 445.1 51.3 445.1 51.2C445.1 50.4 445.7 49.8 446.5 49.7C446.5 49.7 450.1 49.4 455.2 49V28.1H440.7V84.4H455.2V53.7C453.1 53.6 450.9 53.4 448.7 53.2Z" fill="#0032A0"/>
<rect x="614.3" y="2" width="8.75916" height="130" fill="#0032A0"/>
<path d="M675.428 65L664.007 45.317H655.502V65H644.324V8.3H667.004C677.453 8.3 685.877 16.724 685.877 27.092C685.877 34.22 681.422 40.619 674.942 43.616L687.497 65H675.428ZM655.502 18.749V35.516H667.004C671.216 35.516 674.699 31.79 674.699 27.092C674.699 22.394 671.216 18.749 667.004 18.749H655.502ZM694.079 8.3H705.257V65H694.079V8.3ZM729.766 65L710.731 8.3H722.881L736.732 51.878L750.502 8.3H762.733L743.617 65H729.766ZM768.197 8.3H779.375V65H768.197V8.3ZM801.049 54.308H824.944V65H789.871V8.3H824.539V18.992H801.049V31.061H822.514V41.591H801.049V54.308ZM863.927 65L852.506 45.317H844.001V65H832.823V8.3H855.503C865.952 8.3 874.376 16.724 874.376 27.092C874.376 34.22 869.921 40.619 863.441 43.616L875.996 65H863.927ZM844.001 18.749V35.516H855.503C859.715 35.516 863.198 31.79 863.198 27.092C863.198 22.394 859.715 18.749 855.503 18.749H844.001ZM919.028 65L915.626 54.794H893.027L889.625 65H877.556L897.401 8.3H911.252L931.178 65H919.028ZM896.591 44.345H912.143L904.367 21.179L896.591 44.345ZM1012.42 8.3V65H1001.32V28.226L985.364 54.551H984.068L968.111 28.307V65H956.933V8.3H968.435L984.716 35.111L1000.92 8.3H1012.42ZM1059.43 65L1056.03 54.794H1033.43L1030.03 65H1017.96L1037.81 8.3H1051.66L1071.58 65H1059.43ZM1037 44.345H1052.55L1044.77 21.179L1037 44.345ZM1114.61 8.3L1095.17 42.887V65H1084.07V42.887L1064.71 8.3H1077.35L1089.66 31.952L1101.97 8.3H1114.61ZM1149.13 65L1145.73 54.794H1123.13L1119.73 65H1107.66L1127.51 8.3H1141.36L1161.28 65H1149.13ZM1126.7 44.345H1142.25L1134.47 21.179L1126.7 44.345Z" fill="#0032A0"/>
<path d="M686.419 81.2V126H679.059V94.064L665.427 116.592H664.531L650.899 94V126H643.539V81.2H651.475L664.979 103.6L678.547 81.2H686.419ZM702.712 118.96H722.552V126H695.352V81.2H722.232V88.24H702.712V99.888H720.632V106.864H702.712V118.96ZM762.249 126H753.865L744.009 109.808L734.153 126H725.769L739.849 102.96L726.601 81.2H734.921L744.009 96.112L753.097 81.2H761.481L748.233 102.96L762.249 126ZM767.664 81.2H775.024V126H767.664V81.2ZM805.161 126.832C791.529 126.832 781.737 116.592 781.737 103.6C781.737 90.608 791.529 80.368 805.161 80.368C813.353 80.368 820.649 84.528 824.425 91.056L818.025 94.768C815.657 90.352 810.793 87.536 805.161 87.536C795.497 87.536 789.097 94.384 789.097 103.6C789.097 112.816 795.497 119.664 805.161 119.664C810.793 119.664 815.721 116.848 818.025 112.432L824.425 116.08C820.713 122.608 813.417 126.832 805.161 126.832ZM851.219 126.832C838.291 126.832 827.987 116.592 827.987 103.6C827.987 90.608 838.291 80.368 851.219 80.368C864.211 80.368 874.451 90.608 874.451 103.6C874.451 116.592 864.211 126.832 851.219 126.832ZM851.219 119.664C860.179 119.664 867.091 112.816 867.091 103.6C867.091 94.384 860.179 87.536 851.219 87.536C842.259 87.536 835.347 94.384 835.347 103.6C835.347 112.816 842.259 119.664 851.219 119.664Z" fill="white"/>
</svg>
