<svg width="979" height="134" viewBox="0 0 979 134" fill="none" xmlns="http://www.w3.org/2000/svg">
<path d="M251.3 93.2H254.2V133.3H251.3V126.6C250.1 128.9 248.4 130.6 246.3 131.9C244.1 133.2 241.7 133.8 239 133.8C234.9 133.8 231.4 132.4 228.5 129.5C225.6 126.6 224.2 123.1 224.2 118.9C224.2 114.7 225.6 111.2 228.5 108.3C231.4 105.4 234.9 104 239 104C241.7 104 244.1 104.7 246.3 105.9C248.5 107.2 250.1 109 251.3 111.2V93.2ZM230.5 127.6C232.9 130 235.7 131.2 239.1 131.2C242.5 131.2 245.4 130 247.7 127.6C250.1 125.2 251.2 122.3 251.2 118.9C251.2 115.5 250 112.6 247.7 110.2C245.3 107.8 242.5 106.6 239.1 106.6C235.7 106.6 232.8 107.8 230.5 110.2C228.1 112.6 227 115.5 227 118.9C227 122.3 228.2 125.3 230.5 127.6Z" fill="#0032A0"/>
<path d="M276.1 133.9C271.9 133.9 268.3 132.5 265.4 129.6C262.5 126.7 261 123.2 261 119C261 114.8 262.5 111.3 265.4 108.4C268.3 105.5 271.9 104.1 276.1 104.1C280.3 104.1 283.8 105.5 286.7 108.4C289.6 111.3 291.1 114.8 291.1 119C291.1 123.2 289.6 126.7 286.7 129.6C283.8 132.5 280.3 133.9 276.1 133.9ZM267.5 127.6C269.9 130 272.7 131.2 276.1 131.2C279.5 131.2 282.4 130 284.7 127.6C287 125.2 288.2 122.3 288.2 118.9C288.2 115.5 287 112.6 284.7 110.2C282.4 107.8 279.5 106.6 276.1 106.6C272.7 106.6 269.8 107.8 267.5 110.2C265.1 112.6 264 115.5 264 118.9C264 122.3 265.1 125.3 267.5 127.6Z" fill="#0032A0"/>
<path d="M343.9 104C347 104 349.6 105 351.5 106.9C353.4 108.8 354.4 111.6 354.4 115.1V133.3H351.5V115.1C351.5 112.4 350.8 110.4 349.4 108.9C348 107.4 346.2 106.7 343.9 106.7C341.3 106.7 339.3 107.6 337.7 109.3C336.1 111.1 335.3 113.7 335.3 117.2V133.2H332.4V115C332.4 112.3 331.7 110.3 330.4 108.8C329.1 107.3 327.3 106.6 325 106.6C322.5 106.6 320.4 107.5 318.7 109.3C317 111.1 316.1 113.7 316.1 117.2V133.2H313.2V104.5H316.1V109.4C318.1 105.7 321.2 103.8 325.3 103.8C327.4 103.8 329.2 104.3 330.8 105.3C332.4 106.3 333.5 107.8 334.2 109.6C335.2 107.7 336.5 106.2 338.2 105.2C340.1 104.5 342 104 343.9 104Z" fill="#0032A0"/>
<path d="M375.4 104C379.6 104 383 105.5 385.6 108.5C388.2 111.5 389.5 115 389.5 119.1C389.5 119.3 389.5 119.5 389.5 119.8C389.5 120.1 389.5 120.3 389.5 120.5H363.5C363.8 123.7 365.1 126.3 367.4 128.3C369.7 130.3 372.4 131.3 375.7 131.3C378 131.3 380 130.8 381.7 129.9C383.4 128.9 384.7 127.7 385.6 126.1L388.1 127.6C386.9 129.6 385.2 131.2 383.1 132.3C380.9 133.5 378.4 134 375.6 134C371.2 134 367.6 132.6 364.8 129.8C362 127 360.6 123.4 360.6 119.1C360.6 114.8 362 111.3 364.8 108.4C367.4 105.4 371 104 375.4 104ZM375.4 106.8C372.2 106.8 369.4 107.8 367.3 109.8C365.2 111.8 363.9 114.4 363.6 117.7H386.6C386.3 114.3 385.1 111.6 383 109.7C380.8 107.7 378.3 106.8 375.4 106.8ZM375 95.1L370.4 100.6H367.1L373.3 93.3L376.6 93.4L382.9 100.8L379.6 100.6L375 95.1Z" fill="#0032A0"/>
<path d="M397 112.1C397 113.5 397.6 114.6 398.8 115.4C400 116.2 401.4 116.8 403.1 117.3C404.8 117.7 406.5 118.2 408.2 118.6C409.9 119.1 411.4 119.9 412.5 121.1C413.7 122.3 414.3 123.9 414.3 125.9C414.3 128.3 413.4 130.2 411.5 131.7C409.6 133.2 407.1 134 404.1 134C401.3 134 399 133.4 397.1 132.3C395.2 131.1 393.9 129.6 393.2 127.7L395.7 126.3C396.2 127.9 397.2 129.1 398.7 130C400.2 130.9 402 131.3 404.1 131.3C406.2 131.3 408 130.8 409.4 129.9C410.8 129 411.5 127.6 411.5 125.9C411.5 124.5 410.9 123.4 409.7 122.5C408.5 121.7 407.1 121 405.4 120.6C403.7 120.2 402 119.7 400.3 119.2C398.6 118.7 397.1 117.9 395.9 116.8C394.7 115.7 394.1 114.1 394.1 112.2C394.1 109.9 395 108 396.8 106.4C398.6 104.8 401 104 403.8 104C406.1 104 408.1 104.5 409.8 105.5C411.5 106.5 412.8 107.9 413.6 109.7L411.2 111.1C410.6 109.7 409.7 108.6 408.3 107.9C407 107.2 405.5 106.8 403.8 106.8C401.9 106.8 400.2 107.3 398.9 108.2C397.7 109.2 397 110.5 397 112.1Z" fill="#0032A0"/>
<path d="M31.3 5.69995C42.1 5.69995 51.1 9.49995 58.4 17.0999C65.6 24.6999 69.3 33.9999 69.3 45.0999C69.3 56.1999 65.7 65.4999 58.4 73.0999C51.2 80.6999 42.1 84.5 31.3 84.5H0V5.79996H31.3V5.69995ZM31.3 69.5999C38.1 69.5999 43.7 67.3 47.9 62.8C52.2 58.3 54.3 52.3999 54.3 45.0999C54.3 37.7999 52.2 31.8999 47.9 27.3999C43.6 22.8999 38.1 20.5999 31.3 20.5999H15.5V69.5999H31.3Z" fill="#0032A0"/>
<path d="M91.8002 62.3C93.7002 69.4 99.0002 72.9 107.7 72.9C113.2 72.9 117.4 71 120.3 67.3L132 74C126.4 82 118.3 86 107.5 86C98.2002 86 90.7002 83.2 85.1002 77.6C79.5002 72 76.7002 64.9 76.7002 56.3C76.7002 47.8 79.5002 40.8 85.0002 35.1C90.5002 29.4 97.7002 26.6 106.4 26.6C114.6 26.6 121.5 29.5 126.8 35.1C132.2 40.8 134.8 47.9 134.8 56.2C134.8 58.1 134.6 60.1 134.2 62.2H91.8002V62.3ZM91.6002 51H120.3C119.5 47.2 117.8 44.3 115.2 42.5C112.6 40.6 109.7 39.7 106.4 39.7C102.5 39.7 99.3002 40.7 96.7002 42.7C94.1002 44.6 92.4002 47.4 91.6002 51Z" fill="#0032A0"/>
<path d="M156 44.2001C156 45.7001 157 46.9 159 47.9C161 48.8 163.4 49.7 166.3 50.4C169.1 51.1 172 52 174.8 53.1C177.6 54.2 180.1 56 182.1 58.6C184.1 61.2 185.1 64.3001 185.1 68.2001C185.1 74.0001 182.9 78.4001 178.6 81.5001C174.3 84.6001 168.9 86.2001 162.5 86.2001C151 86.2001 143.1 81.7001 138.9 72.8L151.5 65.7001C153.1 70.6001 156.8 73.0001 162.5 73.0001C167.7 73.0001 170.3 71.4001 170.3 68.2001C170.3 66.7001 169.3 65.5001 167.3 64.5001C165.3 63.6001 162.9 62.7001 160 62.0001C157.1 61.3001 154.3 60.3001 151.5 59.2001C148.6 58.1001 146.2 56.3 144.2 53.9C142.2 51.5 141.2 48.4001 141.2 44.7001C141.2 39.2001 143.2 34.8 147.3 31.6C151.4 28.4 156.5 26.8 162.5 26.8C167.1 26.8 171.2 27.8 175 29.9C178.7 32 181.7 34.9001 183.9 38.7001L171.5 45.4C169.7 41.6 166.7 39.7001 162.5 39.7001C160.6 39.7001 159.1 40.1 157.8 40.9C156.6 41.6 156 42.7001 156 44.2001Z" fill="#0032A0"/>
<path d="M224.9 42.0999H212.2V65.4999C212.2 67.4999 212.7 68.8999 213.7 69.7999C214.7 70.6999 216.1 71.1999 218 71.2999C219.9 71.3999 222.2 71.4 225 71.2V84.3999C215 85.4999 208 84.5999 203.9 81.5999C199.8 78.5999 197.8 73.1999 197.8 65.4999V42.0999H188V28.2H197.8V16.7999L212.3 12.3999V28.0999H225V42.0999H224.9Z" fill="#0032A0"/>
<path d="M242.3 21.4C239.9 21.4 237.8 20.5 236.1 18.8C234.3 17 233.5 15 233.5 12.6C233.5 10.2 234.4 8.09999 236.1 6.29999C237.9 4.49999 239.9 3.59998 242.3 3.59998C244.8 3.59998 246.9 4.49999 248.7 6.29999C250.5 8.09999 251.3 10.2 251.3 12.6C251.3 15 250.4 17.1 248.7 18.8C246.9 20.6 244.8 21.4 242.3 21.4ZM235.1 84.4V28.2H249.6V84.4H235.1Z" fill="#0032A0"/>
<path d="M409.9 51.3C395.5 50.1 381.1 48.9 366.5 47.7C369.2 43.6 371.8 39.6 374.4 35.6C374.3 35.5 374.2 35.5 374.2 35.4C370.3 38 366.3 40.6 362.2 43.3C361 28.7 359.8 14.3 358.5 0C358.4 0 358.3 0 358.2 0C357 14.4 355.8 28.7 354.5 43.3C350.3 40.6 346.4 38 342.4 35.4C342.3 35.5 342.3 35.5 342.2 35.6C344.8 39.6 347.4 43.5 350.1 47.6C335.5 48.8 321 50 306.6 51.3C306.6 51.4 306.6 51.5 306.6 51.6C321 52.8 335.4 54 350.1 55.3C347.4 59.4 344.8 63.4 342.2 67.4C342.3 67.5 342.4 67.5 342.4 67.6C346.4 65 350.3 62.4 354.4 59.7C355.6 74.3 356.8 88.7 358.1 103C358.2 103 358.3 103 358.4 103C359.6 88.6 360.8 74.3 362 59.7C366.2 62.4 370.1 65 374 67.6L374.2 67.4C371.6 63.5 369 59.5 366.3 55.4C380.9 54.2 395.3 53 409.7 51.8V51.3H409.9ZM358.4 56.4C355.6 56.4 353.4 54.2 353.4 51.4C353.4 48.6 355.6 46.4 358.4 46.4C361.2 46.4 363.4 48.6 363.4 51.4C363.4 54.3 361.3 56.4 358.4 56.4Z" fill="#0032A0"/>
<path d="M354.1 81.4999C341.3 80.1999 329.6 68.8 328.3 55.7C329.4 55.8 330.3 55.8999 331.3 55.8999C332.1 55.8999 332.4 56.1999 332.5 56.9999C333.8 63.1999 337 68.1999 341.9 72.0999C345.1 74.6999 348.7 76.4 352.8 77.2C353.5 77.4 353.9 77.5999 353.9 78.3999C353.9 79.4999 354.1 80.4999 354.1 81.4999Z" fill="white"/>
<path d="M354.2 21.3C354.1 22.5 354.1 23.7001 353.9 24.7001C353.8 25.0001 353.3 25.4001 352.9 25.5001C347.9 26.6001 343.5 29 339.9 32.6C336.2 36.3 333.8 40.6001 332.7 45.7001C332.5 46.6001 332.1 46.9 331.2 46.9C330.3 46.9 329.5 47 328.6 47.1C328.6 47.1 328.5 47.1001 328.5 47.0001C329.5 34.6001 340.7 22.8 354.2 21.3Z" fill="white"/>
<path d="M388.5 47.2001C387.3 47.1001 386 47 384.8 46.8C384.6 46.8 384.3 46.2 384.2 45.9C383.1 40.7 380.6 36.2001 376.8 32.5001C373.2 29.0001 369 26.6 364 25.6C363.1 25.4 362.7 25 362.8 24.1C362.8 23.2 362.7 22.3 362.6 21.3C375 22.5 387.1 33.5001 388.5 47.2001Z" fill="white"/>
<path d="M388.6 55.7C387.8 61.6 385.5 66.7 381.7 71.2C376.7 77 370.4 80.5 362.7 81.7C362.8 80.4 362.8 79.1999 363 78.0999C363.1 77.7999 363.6 77.3999 364 77.2999C369.1 76.1999 373.5 73.6999 377.2 69.9999C380.9 66.2999 383.2 61.8999 384.3 56.7999C384.4 56.0999 384.7 55.8999 385.4 55.7999C386.4 55.8999 387.4 55.8 388.6 55.7Z" fill="white"/>
<path d="M362 51.3999C362 53.2999 360.4 54.9999 358.5 54.9999C356.6 54.9999 354.9 53.3999 354.9 51.4999C354.9 50.9999 355 50.4999 355.2 50.0999C355.3 49.8999 355.4 49.6999 355.5 49.4999C356.1 48.5999 357.2 47.8999 358.4 47.8999C359.4 47.8999 360.3 48.2999 360.9 48.8999C361 48.9999 361.1 49.0999 361.1 49.0999C361.7 49.7999 362 50.5999 362 51.3999Z" fill="white"/>
<path d="M315.4 53.8C313.2 53.6 311 53.4 308.9 53.3L306.7 53.1C305.9 53 305.3 52.4 305.3 51.6C305.3 51.5 305.3 51.4 305.3 51.3C305.3 50.5 305.9 49.9 306.7 49.8C306.7 49.8 310.3 49.5 315.4 49.1C315.3 42.2 313.3 36.8 309.4 32.8C305.4 28.7 300.3 26.6 294.2 26.6C286.6 26.6 281 29.2 277.4 34.5V28.2H262.9V84.4H277.4V54C277.4 49.4 278.5 45.9 280.8 43.5C283 41.2 286 40 289.8 40C293.2 40 295.9 41 297.9 43C299.9 45 300.9 47.9 300.9 51.6V84.3H315.4V53.8Z" fill="#0032A0"/>
<rect x="430.3" y="2" width="8.75916" height="130" fill="#0032A0"/>
<path d="M491.428 65L480.007 45.317H471.502V65H460.324V8.3H483.004C493.453 8.3 501.877 16.724 501.877 27.092C501.877 34.22 497.422 40.619 490.942 43.616L503.497 65H491.428ZM471.502 18.749V35.516H483.004C487.216 35.516 490.699 31.79 490.699 27.092C490.699 22.394 487.216 18.749 483.004 18.749H471.502ZM510.079 8.3H521.257V65H510.079V8.3ZM545.766 65L526.731 8.3H538.881L552.732 51.878L566.502 8.3H578.733L559.617 65H545.766ZM584.197 8.3H595.375V65H584.197V8.3ZM617.049 54.308H640.944V65H605.871V8.3H640.539V18.992H617.049V31.061H638.514V41.591H617.049V54.308ZM679.927 65L668.506 45.317H660.001V65H648.823V8.3H671.503C681.952 8.3 690.376 16.724 690.376 27.092C690.376 34.22 685.921 40.619 679.441 43.616L691.996 65H679.927ZM660.001 18.749V35.516H671.503C675.715 35.516 679.198 31.79 679.198 27.092C679.198 22.394 675.715 18.749 671.503 18.749H660.001ZM735.028 65L731.626 54.794H709.027L705.625 65H693.556L713.401 8.3H727.252L747.178 65H735.028ZM712.591 44.345H728.143L720.367 21.179L712.591 44.345ZM828.418 8.3V65H817.321V28.226L801.364 54.551H800.068L784.111 28.307V65H772.933V8.3H784.435L800.716 35.111L816.916 8.3H828.418ZM875.433 65L872.031 54.794H849.432L846.03 65H833.961L853.806 8.3H867.657L887.583 65H875.433ZM852.996 44.345H868.548L860.772 21.179L852.996 44.345ZM930.606 8.3L911.166 42.887V65H900.069V42.887L880.71 8.3H893.346L905.658 31.952L917.97 8.3H930.606ZM965.134 65L961.732 54.794H939.133L935.731 65H923.662L943.507 8.3H957.358L977.284 65H965.134ZM942.697 44.345H958.249L950.473 21.179L942.697 44.345Z" fill="#0032A0"/>
<path d="M502.419 81.2V126H495.059V94.064L481.427 116.592H480.531L466.899 94V126H459.539V81.2H467.475L480.979 103.6L494.547 81.2H502.419ZM518.712 118.96H538.552V126H511.352V81.2H538.232V88.24H518.712V99.888H536.632V106.864H518.712V118.96ZM578.249 126H569.865L560.009 109.808L550.153 126H541.769L555.849 102.96L542.601 81.2H550.921L560.009 96.112L569.097 81.2H577.481L564.233 102.96L578.249 126ZM583.664 81.2H591.024V126H583.664V81.2ZM621.161 126.832C607.529 126.832 597.737 116.592 597.737 103.6C597.737 90.608 607.529 80.368 621.161 80.368C629.353 80.368 636.649 84.528 640.425 91.056L634.025 94.768C631.657 90.352 626.793 87.536 621.161 87.536C611.497 87.536 605.097 94.384 605.097 103.6C605.097 112.816 611.497 119.664 621.161 119.664C626.793 119.664 631.721 116.848 634.025 112.432L640.425 116.08C636.713 122.608 629.417 126.832 621.161 126.832ZM667.219 126.832C654.291 126.832 643.987 116.592 643.987 103.6C643.987 90.608 654.291 80.368 667.219 80.368C680.211 80.368 690.451 90.608 690.451 103.6C690.451 116.592 680.211 126.832 667.219 126.832ZM667.219 119.664C676.179 119.664 683.091 112.816 683.091 103.6C683.091 94.384 676.179 87.536 667.219 87.536C658.259 87.536 651.347 94.384 651.347 103.6C651.347 112.816 658.259 119.664 667.219 119.664Z" fill="white"/>
</svg>
