<svg width="1074" height="134" viewBox="0 0 1074 134" fill="none" xmlns="http://www.w3.org/2000/svg">
<path d="M279.1 133.9C274.9 133.9 271.3 132.5 268.4 129.6C265.5 126.7 264 123.2 264 119C264 114.8 265.5 111.3 268.4 108.4C271.3 105.5 274.9 104.1 279.1 104.1C283.3 104.1 286.8 105.5 289.7 108.4C292.6 111.3 294.1 114.8 294.1 119C294.1 123.2 292.6 126.7 289.7 129.6C286.8 132.5 283.3 133.9 279.1 133.9ZM270.5 127.6C272.9 130 275.7 131.2 279.1 131.2C282.5 131.2 285.4 130 287.7 127.6C290 125.2 291.2 122.3 291.2 118.9C291.2 115.5 290 112.6 287.7 110.2C285.4 107.8 282.5 106.6 279.1 106.6C275.7 106.6 272.8 107.8 270.5 110.2C268.1 112.6 267 115.5 267 118.9C267 122.3 268.1 125.2 270.5 127.6Z" fill="white"/>
<path d="M313.4 95.3C307.7 94.8 304.9 97.4 304.9 103.1V104.6H313.4V107.4H304.9V133.3H302V107.4H297V104.6H301.9V103.1C301.9 99.5 302.9 96.8 304.9 94.9C306.9 93 309.7 92.3 313.4 92.5V95.3Z" fill="white"/>
<path d="M347.8 107.4H339.3V126.1C339.3 127.7 339.6 128.9 340.2 129.7C340.8 130.4 341.7 130.8 343 130.9C344.3 131 345.9 130.9 347.8 130.8V133.4C343.9 134 341.1 133.7 339.2 132.6C337.3 131.5 336.4 129.4 336.4 126.2V107.6H330V104.8H336.3V97.6L339.2 96.7V104.7H347.7V107.4H347.8Z" fill="white"/>
<path d="M367.8 104C371.2 104 373.9 105 375.9 107.1C377.9 109.2 378.9 112 378.9 115.4V133.2H376V115.4C376 112.7 375.3 110.6 373.8 109C372.3 107.4 370.3 106.6 367.6 106.6C364.7 106.6 362.2 107.6 360.4 109.5C358.5 111.4 357.6 114.3 357.6 118V133.1H354.7V93H357.6V110.1C359.6 106 363 104 367.8 104Z" fill="white"/>
<path d="M399.9 104C404.1 104 407.5 105.5 410.1 108.5C412.7 111.5 414 115 414 119.1C414 119.3 414 119.5 414 119.8C414 120.1 414 120.3 414 120.5H388C388.3 123.7 389.6 126.3 391.9 128.3C394.1 130.3 396.9 131.3 400.2 131.3C402.5 131.3 404.5 130.8 406.2 129.9C407.9 128.9 409.2 127.7 410.1 126.1L412.6 127.6C411.4 129.6 409.7 131.2 407.6 132.3C405.4 133.5 402.9 134 400.1 134C395.7 134 392.1 132.6 389.3 129.8C386.5 127 385.1 123.4 385.1 119.1C385.1 114.8 386.5 111.3 389.3 108.4C392 105.4 395.5 104 399.9 104ZM399.9 106.8C396.7 106.8 393.9 107.8 391.8 109.8C389.7 111.8 388.4 114.4 388.1 117.7H411.1C410.8 114.3 409.6 111.6 407.5 109.7C405.3 107.7 402.8 106.8 399.9 106.8Z" fill="white"/>
<path d="M466.7 104C469.8 104 472.4 105 474.3 106.9C476.2 108.8 477.2 111.6 477.2 115.1V133.3H474.3V115.1C474.3 112.4 473.6 110.4 472.2 108.9C470.8 107.4 469 106.7 466.7 106.7C464.1 106.7 462.1 107.6 460.5 109.3C458.9 111 458.1 113.7 458.1 117.2V133.2H455.2V115.1C455.2 112.4 454.5 110.4 453.2 108.9C451.9 107.4 450.1 106.7 447.8 106.7C445.3 106.7 443.2 107.6 441.5 109.4C439.8 111.2 438.9 113.8 438.9 117.3V133.3H436V104.6H438.9V109.5C440.9 105.8 444 103.9 448.1 103.9C450.2 103.9 452 104.4 453.6 105.4C455.2 106.4 456.3 107.9 457 109.7C458 107.8 459.3 106.3 461 105.3C462.7 104.3 464.7 104 466.7 104Z" fill="white"/>
<path d="M498.3 133.9C494.1 133.9 490.5 132.5 487.6 129.6C484.7 126.7 483.2 123.2 483.2 119C483.2 114.8 484.7 111.3 487.6 108.4C490.5 105.5 494.1 104.1 498.3 104.1C502.5 104.1 506 105.5 508.9 108.4C511.8 111.3 513.3 114.8 513.3 119C513.3 123.2 511.8 126.7 508.9 129.6C506 132.5 502.5 133.9 498.3 133.9ZM489.7 127.6C492 130 494.9 131.2 498.3 131.2C501.7 131.2 504.6 130 506.9 127.6C509.2 125.2 510.4 122.3 510.4 118.9C510.4 115.5 509.2 112.6 506.9 110.2C504.6 107.8 501.7 106.6 498.3 106.6C494.9 106.6 492 107.8 489.7 110.2C487.3 112.6 486.2 115.5 486.2 118.9C486.2 122.3 487.3 125.2 489.7 127.6Z" fill="white"/>
<path d="M533.4 104C536.8 104 539.5 105 541.5 107.1C543.5 109.2 544.5 112 544.5 115.4V133.2H541.6V115.4C541.6 112.7 540.9 110.6 539.4 109C537.9 107.4 535.9 106.6 533.2 106.6C530.3 106.6 527.8 107.6 526 109.5C524.1 111.4 523.2 114.3 523.2 118V133.1H520.3V104.4H523.2V109.8C525.2 106 528.6 104 533.4 104Z" fill="white"/>
<path d="M567.2 107.4H558.7V126.1C558.7 127.7 559 128.9 559.6 129.7C560.2 130.4 561.1 130.8 562.4 130.9C563.7 131 565.3 130.9 567.2 130.8V133.4C563.3 134 560.5 133.7 558.6 132.6C556.7 131.5 555.8 129.4 555.8 126.2V107.6H549.5V104.8H555.8V97.6L558.7 96.7V104.7H567.2V107.4Z" fill="white"/>
<path d="M587.2 104C590.6 104 593.3 105 595.3 107.1C597.3 109.2 598.3 112 598.3 115.4V133.2H595.4V115.4C595.4 112.7 594.7 110.6 593.2 109C591.7 107.4 589.7 106.6 587 106.6C584.1 106.6 581.6 107.6 579.8 109.5C577.9 111.4 577 114.3 577 118V133.1H574.1V93H577V110.1C579 106 582.5 104 587.2 104Z" fill="white"/>
<path d="M69.2 45.1C69.2 67.3 53 84.5 31.3 84.5H0V5.70001H31.3C53 5.70001 69.2 22.9 69.2 45.1ZM54.3 45.1C54.3 30.6 44.8 20.6 31.2 20.6H15.5V69.7H31.3C44.9 69.6 54.3 59.6 54.3 45.1Z" fill="white"/>
<path d="M107.7 72.9C113.3 72.9 117.8 70.5 120.3 67.3L132 74.1C126.7 81.8 118.3 86.1 107.5 86.1C88.6002 86.1 76.7002 73.2 76.7002 56.4C76.7002 39.6 88.7002 26.7 106.4 26.7C123.1 26.7 134.9 39.9 134.9 56.4C134.9 58.5 134.7 60.5 134.3 62.4H91.8002C93.8002 69.7 100 72.9 107.7 72.9ZM120.3 51C118.5 42.9 112.4 39.6 106.3 39.6C98.5002 39.6 93.2002 43.8 91.6002 51H120.3Z" fill="white"/>
<path d="M185.1 68C185.1 80.2 174.5 86 162.5 86C151.2 86 142.9 81.3 138.9 72.6L151.5 65.5C153.1 70.1 156.9 72.8 162.5 72.8C167.1 72.8 170.3 71.2 170.3 68C170.3 59.8 141.3 64.3 141.3 44.5C141.3 33 151.1 26.6 162.7 26.6C171.8 26.6 179.7 30.8 184.1 38.5L171.7 45.3C170 41.7 166.9 39.6 162.7 39.6C159.1 39.6 156.2 41.2 156.2 44.2C156.1 52.5 185.1 47.3 185.1 68Z" fill="white"/>
<path d="M212.2 42.1V65.5C212.2 71.6 216.6 71.7 224.9 71.2V84.4C204.5 86.7 197.7 80.7 197.7 65.5V42.1H187.9V28.1H197.7V16.7L212.2 12.3V28.1H224.9V42.1H212.2Z" fill="white"/>
<path d="M233.5 12.5C233.5 7.7 237.6 3.5 242.4 3.5C247.4 3.5 251.4 7.7 251.4 12.5C251.4 17.3 247.3 21.4 242.4 21.4C237.5 21.4 233.5 17.4 233.5 12.5ZM235.2 28.2H249.7V84.5H235.2V28.2Z" fill="white"/>
<path d="M315.5 49.9V84.4H301V51.7C301 44 296.4 40.1 289.9 40.1C282.8 40.1 277.5 44.3 277.5 54.1V84.5H263V28.2H277.5V34.5C280.9 29.4 286.7 26.6 294.3 26.6C306.2 26.6 315.5 34.9 315.5 49.9Z" fill="white"/>
<path d="M385.2 28.2V84.5H370.7V77.9C366.6 83 360.6 86.1 352.4 86.1C337.4 86.1 325.1 73.2 325.1 56.4C325.1 39.6 337.5 26.7 352.4 26.7C360.6 26.7 366.7 29.9 370.7 34.9V28.3H385.2V28.2ZM370.7 56.3C370.7 46.8 364.1 40.4 355.1 40.4C346.2 40.4 339.6 46.8 339.6 56.3C339.6 65.8 346.2 72.2 355.1 72.2C364 72.2 370.7 65.8 370.7 56.3Z" fill="white"/>
<path d="M417.8 42.1V65.5C417.8 71.6 422.2 71.7 430.5 71.2V84.4C410.1 86.7 403.3 80.7 403.3 65.5V42.1H393.5V28.1H403.3V16.7L417.8 12.3V28.1H430.5V42.1H417.8Z" fill="white"/>
<path d="M549.8 51.3C535.4 50.1 521 48.9 506.4 47.7C509.1 43.6 511.7 39.6 514.3 35.6C514.2 35.5 514.1 35.5 514.1 35.4C510.2 38 506.2 40.6 502.1 43.3C500.9 28.7 499.7 14.3 498.4 0C498.3 0 498.2 0 498.1 0C496.9 14.4 495.7 28.7 494.4 43.3C490.2 40.6 486.3 38 482.3 35.4C482.2 35.5 482.2 35.5 482.1 35.6C484.7 39.6 487.3 43.5 490 47.6C475.4 48.8 460.9 50 446.5 51.3C446.5 51.4 446.5 51.5 446.5 51.6C460.9 52.8 475.3 54 490 55.3C487.3 59.4 484.7 63.4 482.1 67.4C482.2 67.5 482.3 67.5 482.3 67.6C486.3 65 490.2 62.4 494.3 59.7C495.5 74.3 496.7 88.7 498 103C498.1 103 498.2 103 498.3 103C499.5 88.6 500.7 74.3 501.9 59.7C506.1 62.4 510 65 513.9 67.6L514.1 67.4C511.5 63.5 508.9 59.5 506.2 55.4C520.8 54.2 535.2 53 549.6 51.8V51.3H549.8ZM498.2 56.4C495.4 56.4 493.2 54.2 493.2 51.4C493.2 48.6 495.4 46.4 498.2 46.4C501 46.4 503.2 48.6 503.2 51.4C503.3 54.2 501.1 56.4 498.2 56.4Z" fill="white"/>
<path d="M494 81.5C481.2 80.2 469.5 68.8 468.2 55.7C469.3 55.8 470.2 55.9 471.2 55.9C472 55.9 472.3 56.2 472.4 57C473.7 63.2 476.9 68.2 481.8 72.1C485 74.7 488.6 76.4 492.7 77.2C493.4 77.4 493.8 77.6 493.8 78.4C493.8 79.5 493.9 80.5 494 81.5Z" fill="white"/>
<path d="M494 21.3C493.9 22.5 493.9 23.7 493.7 24.7C493.6 25 493.1 25.4 492.7 25.5C487.7 26.6 483.3 29 479.7 32.6C476 36.3 473.6 40.6 472.5 45.7C472.3 46.6 471.9 46.9 471 46.9C470.1 46.9 469.3 47 468.4 47.1C468.4 47.1 468.3 47.1 468.3 47C469.4 34.6 480.6 22.8 494 21.3Z" fill="white"/>
<path d="M528.4 47.1C527.2 47 525.9 46.9 524.7 46.7C524.5 46.7 524.2 46.1 524.1 45.8C523 40.6 520.5 36.1 516.7 32.4C513.1 28.9 508.9 26.5 503.9 25.5C503 25.3 502.6 24.9 502.7 24C502.7 23.1 502.6 22.2 502.5 21.2C514.9 22.5 526.9 33.5 528.4 47.1Z" fill="white"/>
<path d="M528.5 55.7C527.7 61.6 525.4 66.7 521.6 71.2C516.6 77 510.3 80.5 502.6 81.7C502.7 80.4 502.7 79.2 502.9 78.1C503 77.8 503.5 77.4 503.9 77.3C509 76.2 513.4 73.7 517.1 70C520.8 66.3 523.1 61.9 524.2 56.8C524.3 56.1 524.6 55.9 525.3 55.8C526.3 55.9 527.3 55.8 528.5 55.7Z" fill="white"/>
<path d="M501.9 51.4C501.9 53.3 500.3 55 498.4 55C496.5 55 494.8 53.4 494.8 51.5C494.8 51 494.9 50.5 495.1 50.1C495.2 49.9 495.3 49.7 495.4 49.5C496 48.6 497.1 47.9 498.3 47.9C499.3 47.9 500.2 48.3 500.8 48.9C500.9 49 501 49.1 501 49.1C501.5 49.7 501.8 50.5 501.9 51.4Z" fill="white"/>
<path d="M572.7 26.6C565.2 26.6 559.3 29.4 555.9 34.5V28.2H541.4V49.1C544.2 49.3 547 49.6 549.8 49.8C550.6 49.9 551.2 50.5 551.2 51.3V51.6C551.2 52.4 550.6 53 549.8 53.1L541.4 53.8V84.5H556V54.1C556 44.3 561.3 40.1 568.4 40.1C574.9 40.1 579.5 44 579.5 51.7V84.4H594V49.9C594 34.9 584.7 26.6 572.7 26.6Z" fill="white"/>
<path d="M448 21.4C453 21.4 457 17.3 457 12.5C457 7.7 452.9 3.5 448 3.5C443.2 3.5 439.1 7.7 439.1 12.5C439.1 17.3 443.1 21.4 448 21.4Z" fill="white"/>
<path d="M448.7 53.2L446.5 53C445.7 52.9 445.1 52.3 445.1 51.5C445.1 51.4 445.1 51.3 445.1 51.2C445.1 50.4 445.7 49.8 446.5 49.7C446.5 49.7 450.1 49.4 455.2 49V28.1H440.7V84.4H455.2V53.7C453.1 53.6 450.9 53.4 448.7 53.2Z" fill="white"/>
<rect x="614.3" y="2" width="8.75916" height="130" fill="white"/>
<path d="M671.216 84.634C654.044 84.634 641.732 71.674 641.732 55.15C641.732 38.545 654.044 25.666 671.216 25.666C681.584 25.666 690.737 30.931 695.597 39.031L685.958 44.62C683.204 39.598 677.696 36.52 671.216 36.52C660.119 36.52 652.829 44.215 652.829 55.15C652.829 66.004 660.119 73.699 671.216 73.699C677.696 73.699 683.285 70.621 685.958 65.68L695.597 71.269C690.818 79.369 681.665 84.634 671.216 84.634ZM738.676 83.5L735.274 73.294H712.675L709.273 83.5H697.204L717.049 26.8H730.9L750.826 83.5H738.676ZM716.239 62.845H731.791L724.015 39.679L716.239 62.845ZM787.436 83.5L776.015 63.817H767.51V83.5H756.332V26.8H779.012C789.461 26.8 797.885 35.224 797.885 45.592C797.885 52.72 793.43 59.119 786.95 62.116L799.505 83.5H787.436ZM767.51 37.249V54.016H779.012C783.224 54.016 786.707 50.29 786.707 45.592C786.707 40.894 783.224 37.249 779.012 37.249H767.51ZM806.087 26.8H817.265V83.5H806.087V26.8ZM862.024 54.097C866.56 56.689 869.476 61.144 869.476 67.057C869.476 76.777 861.619 83.5 851.818 83.5H827.761V26.8H850.117C859.675 26.8 867.37 33.28 867.37 42.757C867.37 47.617 865.345 51.424 862.024 54.097ZM850.117 37.249H838.939V49.723H850.117C853.6 49.723 856.192 47.05 856.192 43.486C856.192 39.922 853.681 37.249 850.117 37.249ZM851.818 73.051C855.625 73.051 858.379 70.216 858.379 66.328C858.379 62.521 855.625 59.686 851.818 59.686H838.939V73.051H851.818ZM911.067 54.097C915.603 56.689 918.519 61.144 918.519 67.057C918.519 76.777 910.662 83.5 900.861 83.5H876.804V26.8H899.16C908.718 26.8 916.413 33.28 916.413 42.757C916.413 47.617 914.388 51.424 911.067 54.097ZM899.16 37.249H887.982V49.723H899.16C902.643 49.723 905.235 47.05 905.235 43.486C905.235 39.922 902.724 37.249 899.16 37.249ZM900.861 73.051C904.668 73.051 907.422 70.216 907.422 66.328C907.422 62.521 904.668 59.686 900.861 59.686H887.982V73.051H900.861ZM937.025 72.808H960.92V83.5H925.847V26.8H960.515V37.492H937.025V49.561H958.49V60.091H937.025V72.808ZM1006.12 83.5L1002.72 73.294H980.118L976.716 83.5H964.647L984.492 26.8H998.343L1018.27 83.5H1006.12ZM983.682 62.845H999.234L991.458 39.679L983.682 62.845ZM1056.58 26.8H1067.76V83.5H1059.25L1034.95 48.832V83.5H1023.77V26.8H1032.28L1056.58 61.387V26.8Z" fill="white"/>
</svg>
