<svg width="732" height="134" viewBox="0 0 732 134" fill="none" xmlns="http://www.w3.org/2000/svg">
<path d="M409.9 51.3C395.5 50.1 381.1 48.9 366.5 47.7C369.2 43.6 371.8 39.6 374.4 35.6C374.3 35.5 374.2 35.5 374.2 35.4C370.3 38 366.3 40.6 362.2 43.3C361 28.7 359.8 14.3 358.5 0C358.4 0 358.3 0 358.2 0C357 14.4 355.8 28.7 354.5 43.3C350.3 40.6 346.4 38 342.4 35.4C342.3 35.5 342.3 35.5 342.2 35.6C344.8 39.6 347.4 43.5 350.1 47.6C335.5 48.8 321 50 306.6 51.3C306.6 51.4 306.6 51.5 306.6 51.6C321 52.8 335.4 54 350.1 55.3C347.4 59.4 344.8 63.4 342.2 67.4C342.3 67.5 342.4 67.5 342.4 67.6C346.4 65 350.3 62.4 354.4 59.7C355.6 74.3 356.8 88.7 358.1 103C358.2 103 358.3 103 358.4 103C359.6 88.6 360.8 74.3 362 59.7C366.2 62.4 370.1 65 374 67.6L374.2 67.4C371.6 63.5 369 59.5 366.3 55.4C380.9 54.2 395.3 53 409.7 51.8V51.3H409.9ZM358.4 56.4C355.6 56.4 353.4 54.2 353.4 51.4C353.4 48.6 355.6 46.4 358.4 46.4C361.2 46.4 363.4 48.6 363.4 51.4C363.4 54.2 361.3 56.4 358.4 56.4Z" fill="white"/>
<path d="M354.1 81.4999C341.3 80.1999 329.6 68.8 328.3 55.7C329.4 55.8 330.3 55.8999 331.3 55.8999C332.1 55.8999 332.4 56.1999 332.5 56.9999C333.8 63.1999 337 68.1999 341.9 72.0999C345.1 74.6999 348.7 76.4 352.8 77.2C353.5 77.4 353.9 77.5999 353.9 78.3999C353.9 79.4999 354.1 80.4999 354.1 81.4999Z" fill="white"/>
<path d="M354.2 21.2999C354.1 22.4999 354.1 23.6999 353.9 24.6999C353.8 24.9999 353.3 25.3999 352.9 25.4999C347.9 26.5999 343.5 28.9999 339.9 32.5999C336.2 36.2999 333.8 40.5999 332.7 45.6999C332.5 46.5999 332.1 46.8999 331.2 46.8999C330.3 46.8999 329.5 46.9999 328.6 47.0999C328.6 47.0999 328.5 47.0999 328.5 46.9999C329.5 34.5999 340.7 22.6999 354.2 21.2999Z" fill="white"/>
<path d="M388.5 47.0999C387.3 46.9999 386 46.9 384.8 46.7C384.6 46.7 384.3 46.1 384.2 45.8C383.1 40.6 380.6 36.1 376.8 32.4C373.2 28.9 369 26.5 364 25.5C363.1 25.3 362.7 24.9 362.8 24C362.8 23.1 362.7 22.2 362.6 21.2C375 22.5 387.1 33.4999 388.5 47.0999Z" fill="white"/>
<path d="M388.6 55.7C387.8 61.6 385.5 66.7 381.7 71.2C376.7 77 370.4 80.5 362.7 81.7C362.8 80.4 362.8 79.1999 363 78.0999C363.1 77.7999 363.6 77.3999 364 77.2999C369.1 76.1999 373.5 73.6999 377.2 69.9999C380.9 66.2999 383.2 61.8999 384.3 56.7999C384.4 56.0999 384.7 55.8999 385.4 55.7999C386.4 55.8999 387.4 55.8 388.6 55.7Z" fill="white"/>
<path d="M362 51.3999C362 53.2999 360.4 54.9999 358.5 54.9999C356.6 54.9999 354.9 53.3999 354.9 51.4999C354.9 50.9999 355 50.4999 355.2 50.0999C355.3 49.8999 355.4 49.6999 355.5 49.4999C356.1 48.5999 357.2 47.8999 358.4 47.8999C359.4 47.8999 360.3 48.2999 360.9 48.8999C361 48.9999 361.1 49.0999 361.1 49.0999C361.7 49.6999 362 50.4999 362 51.3999Z" fill="white"/>
<path d="M240.9 93.1H243.8V133.2H240.9V126.5C239.7 128.8 238 130.5 235.9 131.8C233.7 133.1 231.3 133.7 228.6 133.7C224.5 133.7 221 132.3 218.1 129.4C215.2 126.5 213.8 123 213.8 118.8C213.8 114.6 215.2 111.1 218.1 108.2C221 105.3 224.5 103.9 228.6 103.9C231.3 103.9 233.7 104.6 235.9 105.8C238.1 107.1 239.7 108.9 240.9 111.1V93.1ZM220.1 127.6C222.5 130 225.3 131.2 228.7 131.2C232.1 131.2 235 130 237.3 127.6C239.7 125.2 240.8 122.3 240.8 118.9C240.8 115.5 239.6 112.6 237.3 110.2C234.9 107.8 232.1 106.6 228.7 106.6C225.3 106.6 222.4 107.8 220.1 110.2C217.7 112.6 216.6 115.5 216.6 118.9C216.6 122.3 217.8 125.2 220.1 127.6Z" fill="white"/>
<path d="M265.5 104C269.7 104 273.1 105.5 275.7 108.5C278.3 111.5 279.6 115 279.6 119.1C279.6 119.3 279.6 119.5 279.6 119.8C279.6 120.1 279.6 120.3 279.6 120.5H253.6C253.9 123.7 255.2 126.3 257.5 128.3C259.8 130.3 262.5 131.3 265.8 131.3C268.1 131.3 270.1 130.8 271.8 129.9C273.5 128.9 274.8 127.7 275.7 126.1L278.2 127.6C277 129.6 275.3 131.2 273.2 132.3C271 133.5 268.5 134 265.7 134C261.3 134 257.7 132.6 254.9 129.8C252.1 127 250.7 123.4 250.7 119.1C250.7 114.8 252.1 111.3 254.9 108.4C257.6 105.4 261.1 104 265.5 104ZM265.5 106.7C262.3 106.7 259.5 107.7 257.4 109.7C255.3 111.7 254 114.3 253.7 117.6H276.7C276.4 114.2 275.2 111.5 273.1 109.6C270.9 107.7 268.4 106.7 265.5 106.7Z" fill="white"/>
<path d="M286.3 133.3V91.4H289.2V133.3H286.3Z" fill="white"/>
<path d="M344 104C347.1 104 349.7 105 351.6 106.9C353.5 108.8 354.5 111.6 354.5 115.1V133.3H351.6V115.1C351.6 112.4 350.9 110.4 349.5 108.9C348.1 107.4 346.3 106.7 344 106.7C341.4 106.7 339.4 107.6 337.8 109.3C336.2 111.1 335.4 113.7 335.4 117.2V133.2H332.5V115C332.5 112.3 331.8 110.3 330.5 108.8C329.2 107.3 327.4 106.6 325.1 106.6C322.6 106.6 320.5 107.5 318.8 109.3C317.1 111.1 316.2 113.7 316.2 117.2V133.2H313.3V104.5H316.2V109.4C318.2 105.7 321.3 103.8 325.4 103.8C327.5 103.8 329.3 104.3 330.9 105.3C332.5 106.3 333.6 107.8 334.3 109.6C335.3 107.7 336.6 106.2 338.3 105.2C340.1 104.5 342 104 344 104Z" fill="white"/>
<path d="M375.4 104C379.6 104 383 105.5 385.6 108.5C388.2 111.5 389.5 115 389.5 119.1C389.5 119.3 389.5 119.5 389.5 119.8C389.5 120.1 389.5 120.3 389.5 120.5H363.5C363.8 123.7 365.1 126.3 367.4 128.3C369.7 130.3 372.4 131.3 375.7 131.3C378 131.3 380 130.8 381.7 129.9C383.4 128.9 384.7 127.7 385.6 126.1L388.1 127.6C386.9 129.6 385.2 131.2 383.1 132.3C380.9 133.5 378.4 134 375.6 134C371.2 134 367.6 132.6 364.8 129.8C362 127 360.6 123.4 360.6 119.1C360.6 114.8 362 111.3 364.8 108.4C367.5 105.4 371 104 375.4 104ZM375.4 106.7C372.2 106.7 369.4 107.7 367.3 109.7C365.2 111.7 363.9 114.3 363.6 117.6H386.6C386.3 114.2 385.1 111.5 383 109.6C380.8 107.7 378.3 106.7 375.4 106.7Z" fill="white"/>
<path d="M397.1 112C397.1 113.4 397.7 114.5 398.9 115.3C400.1 116.1 401.5 116.7 403.2 117.2C404.9 117.6 406.6 118.1 408.3 118.5C410 119 411.5 119.8 412.6 121C413.8 122.2 414.4 123.8 414.4 125.8C414.4 128.2 413.5 130.1 411.6 131.6C409.7 133.1 407.2 133.9 404.2 133.9C401.4 133.9 399.1 133.3 397.2 132.2C395.3 131 394 129.5 393.3 127.6L395.8 126.2C396.3 127.8 397.3 129 398.8 129.9C400.3 130.8 402.1 131.2 404.2 131.2C406.3 131.2 408.1 130.7 409.5 129.8C410.9 128.9 411.6 127.5 411.6 125.8C411.6 124.4 411 123.3 409.8 122.4C408.6 121.6 407.2 120.9 405.5 120.5C403.8 120.1 402.1 119.6 400.4 119.1C398.7 118.6 397.2 117.8 396 116.7C394.8 115.6 394.2 114 394.2 112.1C394.2 109.8 395.1 107.9 396.9 106.3C398.7 104.7 401.1 103.9 403.9 103.9C406.2 103.9 408.2 104.4 409.9 105.4C411.6 106.4 412.9 107.8 413.7 109.6L411.3 111C410.7 109.6 409.8 108.5 408.4 107.8C407.1 107.1 405.6 106.7 403.9 106.7C402 106.7 400.3 107.2 399 108.1C397.7 109.1 397.1 110.4 397.1 112Z" fill="white"/>
<path d="M31.3 5.69995C42.1 5.69995 51.1 9.49995 58.4 17.1C65.6 24.7 69.3 33.9999 69.3 45.0999C69.3 56.1999 65.7 65.4999 58.4 73.0999C51.2 80.6999 42.1 84.5 31.3 84.5H0V5.69995H31.3ZM31.3 69.5999C38.1 69.5999 43.7 67.3 47.9 62.8C52.2 58.3 54.3 52.3999 54.3 45.0999C54.3 37.7999 52.2 31.9 47.9 27.4C43.6 22.9 38.1 20.6 31.3 20.6H15.5V69.5999H31.3Z" fill="white"/>
<path d="M91.8002 62.2C93.7002 69.3 99.0002 72.8 107.7 72.8C113.2 72.8 117.4 70.9 120.3 67.2L132 73.9C126.4 81.9 118.3 85.9 107.5 85.9C98.2002 85.9 90.7002 83.1 85.1002 77.5C79.5002 71.9 76.7002 64.8 76.7002 56.2C76.7002 47.7 79.5002 40.7 85.0002 35C90.5002 29.3 97.7002 26.5 106.4 26.5C114.6 26.5 121.5 29.4 126.8 35C132.2 40.7 134.8 47.8 134.8 56.1C134.8 58 134.6 60 134.2 62.1H91.8002V62.2ZM91.6002 51H120.3C119.5 47.2 117.8 44.3 115.2 42.5C112.6 40.6 109.7 39.7 106.4 39.7C102.5 39.7 99.3002 40.7 96.7002 42.7C94.1002 44.6 92.4002 47.4 91.6002 51Z" fill="white"/>
<path d="M156 44.0999C156 45.5999 157 46.8 159 47.8C161 48.7 163.4 49.6 166.3 50.3C169.1 51 172 51.9 174.8 53C177.6 54.1 180.1 55.9 182.1 58.5C184.1 61.1 185.1 64.1999 185.1 68.0999C185.1 73.8999 182.9 78.3 178.6 81.4C174.3 84.5 168.9 86.0999 162.5 86.0999C151 86.0999 143.1 81.6 138.9 72.7L151.5 65.5999C153.1 70.4999 156.8 72.9 162.5 72.9C167.7 72.9 170.3 71.2999 170.3 68.0999C170.3 66.5999 169.3 65.4 167.3 64.4C165.3 63.5 162.9 62.6 160 61.9C157.1 61.2 154.3 60.1999 151.5 59.0999C148.6 57.9999 146.2 56.2 144.2 53.8C142.2 51.4 141.2 48.2999 141.2 44.5999C141.2 39.0999 143.2 34.7 147.3 31.5C151.4 28.3 156.5 26.7 162.5 26.7C167.1 26.7 171.2 27.7 175 29.8C178.7 31.9 181.7 34.8 183.9 38.6L171.5 45.3C169.7 41.5 166.7 39.6 162.5 39.6C160.6 39.6 159.1 40 157.8 40.8C156.6 41.6 156 42.6999 156 44.0999Z" fill="white"/>
<path d="M224.9 42.1H212.2V65.5C212.2 67.5 212.7 68.9 213.7 69.8C214.7 70.7 216.1 71.2 218 71.3C219.9 71.4 222.2 71.4 225 71.2V84.4C215 85.5 208 84.6 203.9 81.6C199.8 78.6 197.8 73.2 197.8 65.5V42.1H188V28.2H197.8V16.8L212.3 12.4V28.1H225V42.1H224.9Z" fill="white"/>
<path d="M242.3 21.4C239.9 21.4 237.8 20.5 236.1 18.8C234.3 17 233.5 15 233.5 12.6C233.5 10.2 234.4 8.09997 236.1 6.29997C237.9 4.49997 239.9 3.59998 242.3 3.59998C244.8 3.59998 246.9 4.49997 248.7 6.29997C250.5 8.09997 251.3 10.2 251.3 12.6C251.3 15 250.4 17.1 248.7 18.8C246.9 20.5 244.8 21.4 242.3 21.4ZM235.1 84.4V28.2H249.6V84.4H235.1Z" fill="white"/>
<path d="M315.4 53.7C313.2 53.5 311 53.3 308.9 53.2L306.7 53C305.9 52.9 305.3 52.3 305.3 51.5C305.3 51.4 305.3 51.3 305.3 51.2C305.3 50.4 305.9 49.8 306.7 49.7C306.7 49.7 310.3 49.4 315.4 49C315.3 42.1 313.3 36.7 309.4 32.7C305.4 28.6 300.3 26.5 294.2 26.5C286.6 26.5 281 29.1 277.4 34.4V28.1H262.9V84.3H277.4V54C277.4 49.4 278.5 45.9 280.8 43.5C283 41.2 286 40 289.8 40C293.2 40 295.9 41 297.9 43C299.9 45 300.9 47.9 300.9 51.6V84.3H315.4V53.7Z" fill="white"/>
<rect x="430.4" y="2" width="8.75916" height="130" fill="white"/>
<path d="M487.316 84.634C470.144 84.634 457.832 71.674 457.832 55.15C457.832 38.545 470.144 25.666 487.316 25.666C497.684 25.666 506.837 30.931 511.697 39.031L502.058 44.62C499.304 39.598 493.796 36.52 487.316 36.52C476.219 36.52 468.929 44.215 468.929 55.15C468.929 66.004 476.219 73.699 487.316 73.699C493.796 73.699 499.385 70.621 502.058 65.68L511.697 71.269C506.918 79.369 497.765 84.634 487.316 84.634ZM554.777 83.5L551.375 73.294H528.776L525.374 83.5H513.305L533.15 26.8H547.001L566.927 83.5H554.777ZM532.34 62.845H547.892L540.116 39.679L532.34 62.845ZM603.536 83.5L592.115 63.817H583.61V83.5H572.432V26.8H595.112C605.561 26.8 613.985 35.224 613.985 45.592C613.985 52.72 609.53 59.119 603.05 62.116L615.605 83.5H603.536ZM583.61 37.249V54.016H595.112C599.324 54.016 602.807 50.29 602.807 45.592C602.807 40.894 599.324 37.249 595.112 37.249H583.61ZM622.187 26.8H633.365V83.5H622.187V26.8ZM678.124 54.097C682.66 56.689 685.576 61.144 685.576 67.057C685.576 76.777 677.719 83.5 667.918 83.5H643.861V26.8H666.217C675.775 26.8 683.47 33.28 683.47 42.757C683.47 47.617 681.445 51.424 678.124 54.097ZM666.217 37.249H655.039V49.723H666.217C669.7 49.723 672.292 47.05 672.292 43.486C672.292 39.922 669.781 37.249 666.217 37.249ZM667.918 73.051C671.725 73.051 674.479 70.216 674.479 66.328C674.479 62.521 671.725 59.686 667.918 59.686H655.039V73.051H667.918ZM704.082 72.808H727.977V83.5H692.904V26.8H727.572V37.492H704.082V49.561H725.547V60.091H704.082V72.808Z" fill="white"/>
</svg>
